<svg width="21" height="16" viewBox="0 0 21 16" fill="none" xmlns="http://www.w3.org/2000/svg">
<path d="M12.6285 14.5815L3.52546 8.89183C1.7761 7.79841 1.28024 5.43921 2.41739 3.61987C3.55454 1.80054 5.89249 1.21257 7.64185 2.30599L17.5364 8.49047C18.6288 9.17324 18.9391 10.6494 18.229 11.7854C17.5189 12.9215 16.0561 13.2894 14.9637 12.6066L6.65224 7.41165C6.21688 7.13954 6.09222 6.54644 6.37522 6.09367C6.65823 5.64089 7.24598 5.49308 7.68134 5.7652L15.2012 10.4654L15.973 9.23056L8.45316 4.53035C7.3608 3.84759 5.89795 4.21547 5.18787 5.35153C4.4778 6.48759 4.78806 7.96373 5.88042 8.6465L14.1919 13.8415C15.9412 14.9349 18.2792 14.3469 19.4163 12.5276C20.5535 10.7082 20.0576 8.34904 18.3083 7.25563L8.41367 1.07115C6.00731 -0.432919 2.79427 0.37512 1.23004 2.87774C-0.334188 5.38035 0.347276 8.6226 2.75364 10.1267L11.8567 15.8164L12.6285 14.5815Z" fill="#4E88F4"/>
</svg>
