<svg width="31" height="37" viewBox="0 0 31 37" fill="none" xmlns="http://www.w3.org/2000/svg">
<g clip-path="url(#clip0_338_362)">
<path d="M1.05678 37C0.608407 36.749 0.186882 36.4768 0.125244 35.9141C0.157057 35.9314 0.202789 35.9401 0.217701 35.9662C0.626302 36.6844 1.24567 36.9411 2.09071 36.9402C11.0302 36.9228 19.9697 36.9295 28.9102 36.9295C29.1081 36.9295 29.3069 36.9334 29.5048 36.9363C29.4998 36.9575 29.4958 36.9797 29.4938 37.001H1.05678V37Z" fill="#161115"/>
<path d="M29.4939 37C29.4959 36.9778 29.4999 36.9566 29.5048 36.9353C29.7186 36.8533 29.9492 36.7973 30.1421 36.6815C30.3638 36.5492 30.5527 36.3639 30.7555 36.2017C30.6769 36.6535 30.2604 36.7799 29.9403 36.999H29.4939V37Z" fill="#574857"/>
<path d="M30.7556 36.2027C30.5528 36.3649 30.3639 36.5492 30.1422 36.6824C29.9493 36.7973 29.7187 36.8533 29.5049 36.9363C29.3071 36.9344 29.1083 36.9296 28.9104 36.9296C19.9709 36.9296 11.0304 36.9228 2.09088 36.9402C1.24584 36.9421 0.626478 36.6844 0.217877 35.9662C0.202965 35.9402 0.157233 35.9315 0.12542 35.9141C0.0856535 35.3764 0.0220271 34.8397 0.0100971 34.3021C-0.00879201 33.4111 0.00214379 32.5192 0.00512628 31.6283C0.0110913 29.8473 0.966482 28.5461 2.69136 27.9708C4.58524 27.3405 6.48111 26.7111 8.37896 26.0914C8.60663 26.0171 8.76072 25.91 8.85616 25.6918C8.99037 25.3829 9.16634 25.0905 9.30155 24.7816C9.5302 24.2603 9.89805 23.907 10.5144 23.8047C10.5144 23.3143 10.5293 22.8336 10.5035 22.3558C10.4975 22.2429 10.3743 22.1116 10.2699 22.0305C8.46247 20.6299 7.40071 18.8171 7.05772 16.5777C6.86485 16.5526 6.65608 16.54 6.45526 16.4966C5.59431 16.3093 5.01969 15.8016 4.78208 14.9811C4.54348 14.1577 4.78208 13.4444 5.39548 12.8324C5.50583 12.7224 5.58835 12.5361 5.59133 12.3836C5.62513 10.7947 5.49688 9.18946 5.68876 7.62088C6.11426 4.14975 8.14633 1.80606 11.4698 0.515483C12.4441 0.137095 13.4721 -0.0192801 14.5239 0.00195597C15.5399 0.0222268 16.5679 -0.0472731 17.569 0.0820739C21.0416 0.530927 23.4336 2.39874 24.7946 5.51272C25.2101 6.46255 25.3941 7.4703 25.398 8.50314C25.403 9.81592 25.3921 11.1287 25.398 12.4415C25.398 12.5554 25.4497 12.7002 25.5313 12.7774C26.266 13.4791 26.5036 14.3257 26.1486 15.1722C25.7738 16.0661 25.066 16.514 24.0758 16.5497C24.039 16.5507 24.0032 16.5584 23.9824 16.5613C23.8223 17.1462 23.703 17.736 23.4992 18.2968C22.9514 19.8094 22.003 21.0508 20.7096 22.0498C20.5893 22.1425 20.5008 22.3356 20.4909 22.4881C20.462 22.9186 20.4809 23.352 20.4809 23.8037C21.1202 23.9051 21.5307 24.2806 21.7127 24.8375C22 25.7208 22.6054 26.1455 23.5131 26.4042C25.1843 26.8801 26.8217 27.4679 28.464 28.0345C30.0219 28.5722 30.9703 29.8744 30.9882 31.4719C31.0021 32.7007 31.0081 33.9295 30.9813 35.1573C30.9733 35.5077 30.8351 35.8542 30.7566 36.2037L30.7556 36.2027ZM12.298 24.4968C13.2653 25.0547 14.2376 25.6059 15.1979 26.1745C15.4147 26.3028 15.5717 26.3144 15.7974 26.1812C16.7697 25.6069 17.739 25.0229 18.7461 24.5103C19.2253 24.2661 19.3694 23.962 19.277 23.49V22.9321C16.7359 24.0769 14.2336 24.0595 11.6826 22.9195C11.8078 23.5325 11.3793 24.2545 12.299 24.4978L12.298 24.4968ZM1.65345 35.7693C1.82246 35.7925 1.99146 35.8369 2.16047 35.8369C5.5963 35.8407 9.03213 35.8398 12.467 35.8398H12.8139C12.0852 35.417 11.3446 35.0618 10.6079 34.6988C9.97658 34.387 9.73799 33.8137 9.95571 33.1611C9.99547 33.0405 10.0382 32.9208 10.0869 32.7779C9.90202 32.7267 9.76085 32.6872 9.61968 32.6486C8.80148 32.4266 8.49528 32.0375 8.49627 31.219C8.49627 30.2074 8.49826 29.1967 8.49926 28.1851V27.3328C8.40779 27.3328 8.36803 27.3231 8.33522 27.3338C6.49701 27.9438 4.65085 28.5326 2.82557 29.1765C1.84234 29.523 1.2697 30.2769 1.21999 31.2837C1.15637 32.581 1.19912 33.8832 1.20608 35.1834C1.20707 35.4701 1.34029 35.6911 1.65146 35.7703L1.65345 35.7693ZM9.7688 2.75299C7.87691 4.18643 6.89667 6.0832 6.79824 8.39696C6.74854 9.56302 6.7883 10.7329 6.79029 11.9009C6.79029 12.0167 6.80322 12.1326 6.81216 12.2793C6.99211 12.2793 7.13825 12.2803 7.28538 12.2793C7.87791 12.2745 8.05984 12.0969 8.06183 11.5225C8.06381 11.1007 8.06083 10.6798 8.06183 10.258C8.0668 9.18849 8.76569 8.64987 9.84138 8.88539C10.5194 9.00605 11.1944 9.21166 11.8754 9.23193C14.1222 9.2995 15.9197 8.36511 17.3533 6.72897C17.8842 6.12374 18.6785 6.0552 19.28 6.59383C20.0703 7.30041 20.9561 7.86413 21.9523 8.26376C22.678 8.55527 22.9315 8.93173 22.9335 9.70781C22.9345 10.37 22.9405 11.0322 22.9315 11.6943C22.9266 12.0158 23.0836 12.2069 23.3938 12.2465C23.6543 12.2793 23.9227 12.2532 24.208 12.2532C24.208 10.9607 24.214 9.70974 24.2041 8.45778C24.2011 8.12283 24.1772 7.78305 24.1156 7.45389C23.7746 5.61118 22.8888 4.06673 21.3945 2.86979C20.2582 1.95954 18.9539 1.36493 17.4905 1.25006C16.2488 1.15353 14.9911 1.17573 13.7455 1.23461C12.2592 1.30508 10.934 1.85336 9.7688 2.75396V2.75299ZM9.76682 10.1161C9.62266 10.0659 9.47751 10.0148 9.29161 9.95009C9.28266 10.119 9.27272 10.2358 9.27172 10.3526C9.26973 10.8102 9.28465 11.2687 9.26675 11.7252C9.22997 12.7127 8.49031 13.4077 7.47129 13.428C7.27246 13.4318 7.07363 13.4241 6.87579 13.4318C6.30116 13.4569 5.88958 13.8643 5.88958 14.401C5.88958 14.9357 6.30017 15.3556 6.86585 15.3885C7.08854 15.401 7.31223 15.3885 7.53591 15.3933C7.95744 15.4039 8.15329 15.5989 8.20797 16.0082C8.26662 16.4483 8.31534 16.8953 8.43265 17.3219C8.84523 18.8297 9.65348 20.0961 10.9469 21.0488C11.0105 21.1048 11.0692 21.1666 11.1378 21.2168C13.4194 22.9002 16.6255 23.1029 19.1139 21.6869C21.3339 20.4233 22.5418 18.5198 22.7884 16.0381C22.8331 15.5834 23.0309 15.3991 23.5022 15.3923C23.7249 15.3885 23.9495 15.4029 24.1712 15.3846C24.7141 15.3412 25.1068 14.9184 25.1038 14.3962C25.1018 13.8749 24.7001 13.4656 24.1494 13.4338C23.9764 13.4232 23.8024 13.4289 23.6284 13.428C22.4275 13.4222 21.7296 12.7542 21.7226 11.5978C21.7186 10.9598 21.7137 10.3217 21.7266 9.68368C21.7306 9.48097 21.6451 9.40471 21.4671 9.31301C20.7593 8.94621 20.0564 8.56878 19.3754 8.15854C19.0145 7.94135 18.7024 7.64694 18.3564 7.3786C16.0599 10.0177 13.2016 10.9356 9.76284 10.1161H9.76682ZM18.1774 35.7722C18.1814 35.7944 18.1854 35.8166 18.1894 35.8388C21.8191 35.8388 25.4487 35.8427 29.0784 35.834C29.5407 35.833 29.7932 35.5473 29.7942 35.0859C29.7982 33.9189 29.7972 32.7509 29.7942 31.5839C29.7913 30.3724 29.148 29.4931 27.9729 29.0992C26.2888 28.5346 24.6037 27.9737 22.9176 27.4129C22.7943 27.3714 22.6661 27.3424 22.4891 27.2932C22.4891 27.4785 22.4891 27.6079 22.4891 27.7372C22.4931 28.9284 22.4991 30.1205 22.4991 31.3117C22.4991 31.9941 22.2028 32.3841 21.5317 32.5974C21.3349 32.6592 21.1361 32.7152 20.9233 32.7779C20.9442 32.8648 20.9482 32.9246 20.972 32.9758C21.3568 33.7857 20.9422 34.5009 20.2075 34.8002C19.5126 35.083 18.8525 35.445 18.1764 35.7722H18.1774ZM15.4982 35.305C15.8928 34.6901 16.2557 34.1332 16.6037 33.5675C16.6514 33.4893 16.6434 33.3619 16.6246 33.2644C16.4715 32.498 16.3223 31.7306 16.1454 30.9699C16.0758 30.6697 16.1841 30.468 16.3283 30.2093C16.545 29.8203 16.6355 29.3637 16.7687 28.9323C16.7806 28.8936 16.7279 28.8193 16.6852 28.7836C16.2975 28.4515 15.9058 28.1233 15.5002 27.7816C15.0965 28.1205 14.7197 28.4303 14.3529 28.7517C14.2883 28.8077 14.2157 28.9255 14.2346 28.9902C14.3638 29.4323 14.3628 29.912 14.7088 30.2962C14.837 30.439 14.8848 30.7199 14.851 30.9188C14.7177 31.6997 14.5338 32.4729 14.3787 33.2519C14.3569 33.359 14.3559 33.499 14.4096 33.5868C14.7496 34.1447 15.1085 34.693 15.5002 35.305H15.4982ZM14.4394 27.1397C14.4185 27.104 14.4115 27.0741 14.3937 27.0644C13.2116 26.3849 12.0285 25.7073 10.8455 25.0296C10.6715 24.9302 10.5383 24.965 10.4498 25.1406C10.2599 25.5181 10.068 25.8955 9.89109 26.2787C9.85728 26.3521 9.8543 26.4727 9.89407 26.5403C10.4707 27.5056 11.0572 28.466 11.6647 29.466C12.6101 28.6736 13.5267 27.9062 14.4404 27.1407L14.4394 27.1397ZM19.3317 29.4612C19.7492 28.7788 20.1479 28.1311 20.5416 27.4814C20.7543 27.1301 21.1062 26.7787 21.1221 26.4167C21.1371 26.0548 20.814 25.6783 20.633 25.3105C20.4292 24.8955 20.4024 24.8897 20.0027 25.1184C19.1169 25.6233 18.2311 26.1281 17.3463 26.6339C17.0819 26.7845 16.8194 26.939 16.5261 27.1088C17.4726 27.9023 18.3862 28.6687 19.3317 29.4612ZM19.9113 33.6312C19.8546 33.4642 19.8287 33.3445 19.7751 33.2393C19.4937 32.6959 19.8864 31.8628 20.5426 31.6678C20.7076 31.6186 20.8696 31.5433 21.0386 31.5211C21.2703 31.4912 21.312 31.3647 21.3091 31.1717C21.3021 30.7026 21.3061 30.2325 21.3061 29.7634C21.3061 29.4004 21.3061 29.0375 21.3061 28.6745C21.2772 28.6697 21.2484 28.6649 21.2196 28.66C19.8775 30.7151 18.5363 32.7702 17.1942 34.8262C17.223 34.8523 17.2509 34.8793 17.2797 34.9054C18.1486 34.4845 19.0175 34.0646 19.9113 33.6312ZM9.77378 28.6571C9.74693 28.6649 9.72009 28.6736 9.69225 28.6813C9.69225 29.3975 9.69225 30.1137 9.69225 30.829C9.69225 31.4217 9.68728 31.4371 10.2649 31.6022C10.8455 31.7692 11.2372 32.109 11.2899 32.6978C11.3167 32.9932 11.1964 33.3001 11.1338 33.6534C11.9768 34.0617 12.8517 34.4845 13.7256 34.9073C13.7514 34.8784 13.7783 34.8494 13.8041 34.8204C12.461 32.7654 11.1169 30.7103 9.77378 28.6552V28.6571ZM12.3656 30.4014C12.6827 30.8995 12.9869 31.3792 13.2921 31.858C13.317 31.8966 13.3518 31.9304 13.3866 31.9709C13.6957 31.1698 13.6301 30.6109 13.1281 29.7701C12.8825 29.9728 12.639 30.1746 12.3656 30.4004V30.4014ZM17.6406 31.9584C17.9707 31.441 18.3007 30.9236 18.6338 30.4004C18.3624 30.1775 18.1098 29.9699 17.8454 29.7518C17.5869 30.4834 17.1256 31.164 17.6406 31.9584Z" fill="#020202"/>
<path d="M9.7666 10.1161C13.2054 10.9356 16.0636 10.0177 18.3601 7.3786C18.7061 7.64695 19.0183 7.94136 19.3792 8.15854C20.0602 8.56879 20.763 8.94718 21.4709 9.31301C21.6488 9.40472 21.7343 9.48194 21.7304 9.68368C21.7174 10.3217 21.7224 10.9598 21.7264 11.5978C21.7333 12.7542 22.4303 13.4222 23.6322 13.428C23.8062 13.428 23.9802 13.4232 24.1531 13.4338C24.7029 13.4666 25.1046 13.8749 25.1075 14.3962C25.1095 14.9184 24.7178 15.3412 24.175 15.3846C23.9533 15.4029 23.7286 15.3885 23.5059 15.3923C23.0337 15.3991 22.8369 15.5834 22.7921 16.0381C22.5456 18.5198 21.3377 20.4243 19.1177 21.6869C16.6293 23.103 13.4231 22.9002 11.1415 21.2168C11.0739 21.1666 11.0143 21.1048 10.9507 21.0488C10.9009 20.9291 10.8671 20.8008 10.7985 20.6927C10.1802 19.7119 9.82426 18.6685 9.83619 17.5005C9.85807 15.2282 9.84415 12.956 9.83918 10.6837C9.83918 10.4945 9.79344 10.3053 9.76958 10.1161H9.7666ZM15.5347 19.0073C16.4911 18.9996 17.3063 18.6868 18.037 18.1559C18.3383 17.9368 18.386 17.6009 18.1802 17.3325C17.9903 17.0854 17.6563 17.0362 17.3511 17.2138C17.2666 17.263 17.188 17.3219 17.1045 17.374C16.2515 17.9078 15.3528 17.9899 14.4193 17.6038C14.1369 17.487 13.8735 17.3267 13.5981 17.1897C13.28 17.0314 12.9529 17.1067 12.7839 17.3711C12.6079 17.6462 12.6676 17.9667 12.9668 18.1588C13.7532 18.6636 14.6062 18.9889 15.5327 19.0063L15.5347 19.0073ZM11.9597 11.9994V12.0013C12.1824 12.0013 12.4061 12.0013 12.6288 12.0013C12.6537 12.0013 12.6785 12.0013 12.7034 11.9994C13.0404 11.9714 13.2631 11.7571 13.275 11.4492C13.2859 11.1403 13.0792 10.871 12.7531 10.8565C12.2222 10.8314 11.6873 10.8333 11.1564 10.8546C10.8373 10.8671 10.6057 11.1461 10.6126 11.4376C10.6206 11.7378 10.8532 11.9772 11.1813 11.9955C11.4408 12.01 11.7012 11.9984 11.9617 11.9984L11.9597 11.9994ZM19.0352 12.0003C19.2827 12.0003 19.5313 12.0081 19.7788 11.9984C20.1317 11.9839 20.3773 11.7513 20.3853 11.4386C20.3932 11.1326 20.1467 10.8623 19.8047 10.8507C19.2967 10.8343 18.7876 10.8324 18.2806 10.8507C17.9317 10.8642 17.709 11.1239 17.7209 11.4472C17.7318 11.7552 17.9545 11.9781 18.2916 11.9955C18.5391 12.0081 18.7866 11.9984 19.0352 11.9994V12.0003ZM12.5314 13.7263C12.5314 13.7263 12.5324 13.7263 12.5334 13.7263C12.5334 13.5699 12.5443 13.4135 12.5314 13.2581C12.5035 12.9328 12.2967 12.7523 11.9786 12.732C11.6734 12.7127 11.4249 12.871 11.3871 13.1664C11.3424 13.5187 11.3424 13.8855 11.3921 14.2369C11.4328 14.5323 11.6853 14.6819 11.9915 14.6587C12.2948 14.6355 12.4936 14.4628 12.5294 14.1568C12.5463 14.0149 12.5324 13.8691 12.5324 13.7253L12.5314 13.7263ZM19.6386 13.6944H19.6436C19.6436 13.5506 19.6595 13.4048 19.6406 13.2629C19.5969 12.9328 19.3175 12.705 19.0083 12.7272C18.7011 12.7494 18.4785 12.9753 18.4625 13.3035C18.4506 13.567 18.4496 13.8324 18.4625 14.096C18.4785 14.4232 18.7061 14.6471 19.0143 14.6655C19.3165 14.6838 19.585 14.4763 19.6347 14.1606C19.6585 14.0081 19.6386 13.8498 19.6386 13.6934V13.6944Z" fill="#FDCF8C"/>
<path d="M9.76857 2.75298C10.9347 1.85237 12.2599 1.3041 13.7452 1.23363C14.9909 1.17475 16.2485 1.15158 17.4902 1.24908C18.9536 1.36298 20.258 1.95759 21.3943 2.86881C22.8885 4.06575 23.7753 5.61019 24.1153 7.45291C24.176 7.78207 24.2008 8.12184 24.2038 8.45679C24.2138 9.70876 24.2078 10.9598 24.2078 12.2523C23.9225 12.2523 23.654 12.2783 23.3936 12.2455C23.0844 12.2059 22.9273 12.0148 22.9313 11.6934C22.9412 11.0312 22.9353 10.369 22.9333 9.70683C22.9313 8.93074 22.6788 8.55429 21.952 8.26277C20.9559 7.86315 20.0701 7.30039 19.2797 6.59285C18.6783 6.05519 17.8839 6.12276 17.353 6.72798C15.9195 8.36413 14.122 9.29851 11.8752 9.23094C11.1942 9.21067 10.5192 9.00507 9.84115 8.88441C9.84115 7.03012 9.84313 5.17582 9.83717 3.32152C9.83717 3.13233 9.79144 2.94314 9.76758 2.75394L9.76857 2.75298Z" fill="#4D3D4C"/>
<path d="M18.1772 35.7722C18.8533 35.445 19.5134 35.084 20.2083 34.8002C20.943 34.5009 21.3576 33.7857 20.9728 32.9758C20.949 32.9246 20.945 32.8638 20.9241 32.7779C21.1379 32.7152 21.3367 32.6592 21.5325 32.5974C22.2036 32.385 22.4999 31.9941 22.4999 31.3117C22.4999 30.1205 22.4929 28.9284 22.4899 27.7372C22.4899 27.6079 22.4899 27.4776 22.4899 27.2932C22.6679 27.3424 22.7951 27.3714 22.9184 27.4129C24.6035 27.9737 26.2896 28.5346 27.9737 29.0992C29.1488 29.494 29.7921 30.3734 29.795 31.5839C29.798 32.7509 29.798 33.9189 29.795 35.0859C29.794 35.5463 29.5415 35.833 29.0792 35.834C25.4496 35.8417 21.8199 35.8388 18.1902 35.8388C18.1862 35.8166 18.1822 35.7944 18.1782 35.7722H18.1772ZM24.6085 34.9102C25.1165 34.9102 25.6245 34.9131 26.1315 34.9092C26.5511 34.9054 26.8016 34.6969 26.8126 34.3542C26.8235 34.0125 26.5441 33.7644 26.1216 33.7557C25.7259 33.748 25.3293 33.7538 24.9326 33.7538C24.3132 33.7538 23.6939 33.7451 23.0745 33.7577C22.6639 33.7654 22.4144 34.0057 22.4203 34.3465C22.4273 34.6978 22.6699 34.9073 23.0844 34.9102C23.5925 34.9141 24.1005 34.9102 24.6075 34.9102H24.6085Z" fill="#4D3C4C"/>
<path d="M8.50011 28.1841C8.49911 29.1957 8.49812 30.2064 8.49712 31.218C8.49712 32.0375 8.80233 32.4256 9.62053 32.6476C9.7617 32.6862 9.90287 32.7258 10.0878 32.7769C10.0391 32.9207 9.99632 33.0404 9.95655 33.1601C9.73883 33.8127 9.97743 34.386 10.6087 34.6978C11.3454 35.0617 12.0861 35.416 12.8148 35.8388H12.4678C9.03198 35.8388 5.59615 35.8397 2.16132 35.8359C1.99231 35.8359 1.8233 35.7915 1.6543 35.7683C1.67816 34.6032 1.6543 33.4352 1.73979 32.275C1.83126 31.0182 2.59279 30.1707 3.76689 29.7141C4.81971 29.3048 5.90534 28.9718 6.98102 28.6195C7.48208 28.4554 7.99507 28.328 8.50209 28.1832L8.50011 28.1841Z" fill="#4D3C4C"/>
<path d="M9.76866 2.75297C9.79252 2.94216 9.83725 3.13136 9.83825 3.32055C9.84421 5.17485 9.84222 7.02914 9.84222 8.88344C8.76654 8.64791 8.06764 9.18653 8.06267 10.2561C8.06068 10.6779 8.06267 11.0987 8.06267 11.5206C8.06068 12.0959 7.87776 12.2725 7.28623 12.2773C7.14009 12.2783 6.99295 12.2773 6.81301 12.2773C6.80406 12.1306 6.79114 12.0148 6.79114 11.899C6.79014 10.731 6.75038 9.56106 6.79909 8.39501C6.89652 6.08221 7.87776 4.18544 9.76965 2.75104L9.76866 2.75297Z" fill="#453744"/>
<path d="M9.76662 10.1161C9.79048 10.3053 9.83622 10.4945 9.83622 10.6837C9.84119 12.9559 9.8551 15.2282 9.83323 17.5005C9.8223 18.6684 10.1782 19.7129 10.7956 20.6926C10.8642 20.8007 10.898 20.9301 10.9477 21.0488C9.65428 20.0961 8.84702 18.8296 8.43345 17.3219C8.31614 16.8943 8.26743 16.4483 8.20877 16.0081C8.15409 15.5989 7.95824 15.4029 7.53672 15.3933C7.31402 15.3875 7.08934 15.401 6.86665 15.3884C6.30097 15.3566 5.89038 14.9367 5.89038 14.401C5.89038 13.8643 6.30196 13.4569 6.87659 13.4318C7.07443 13.4231 7.27326 13.4318 7.4721 13.428C8.49111 13.4077 9.22978 12.7137 9.26755 11.7252C9.28445 11.2686 9.26954 10.8101 9.27252 10.3526C9.27252 10.2358 9.28346 10.12 9.29241 9.95007C9.47832 10.0147 9.62247 10.0659 9.76762 10.1161H9.76662Z" fill="#E3BA7D"/>
<path d="M15.4981 35.305C15.1064 34.692 14.7475 34.1447 14.4075 33.5868C14.3538 33.4989 14.3558 33.359 14.3767 33.2518C14.5317 32.4738 14.7157 31.7006 14.8489 30.9188C14.8827 30.7199 14.836 30.439 14.7067 30.2962C14.3617 29.912 14.3627 29.4322 14.2325 28.9901C14.2136 28.9255 14.2872 28.8077 14.3508 28.7517C14.7177 28.4303 15.0944 28.1204 15.4981 27.7816C15.9037 28.1233 16.2954 28.4506 16.6831 28.7836C16.7259 28.8203 16.7786 28.8936 16.7666 28.9322C16.6334 29.3637 16.5429 29.8193 16.3262 30.2093C16.1821 30.468 16.0737 30.6697 16.1433 30.9699C16.3202 31.7315 16.4704 32.498 16.6225 33.2644C16.6424 33.3619 16.6503 33.4893 16.6016 33.5675C16.2536 34.1331 15.8908 34.6891 15.4961 35.305H15.4981Z" fill="#716370"/>
<path d="M14.4392 27.1397C13.5255 27.9052 12.6089 28.6726 11.6635 29.4651C11.056 28.4651 10.4695 27.5046 9.89285 26.5393C9.85308 26.4727 9.85606 26.3521 9.88987 26.2777C10.0668 25.8945 10.2587 25.5171 10.4486 25.1397C10.5371 24.964 10.6703 24.9292 10.8443 25.0287C12.0273 25.7073 13.2104 26.3849 14.3924 27.0635C14.4103 27.0741 14.4173 27.103 14.4382 27.1388L14.4392 27.1397Z" fill="#D8D5D8"/>
<path d="M19.3314 29.4612C18.386 28.6687 17.4713 27.9023 16.5259 27.1088C16.8202 26.9389 17.0826 26.7855 17.3461 26.6339C18.2309 26.1281 19.1167 25.6233 20.0025 25.1184C20.4021 24.8906 20.429 24.8964 20.6328 25.3105C20.8137 25.6783 21.1368 26.0547 21.1219 26.4167C21.106 26.7787 20.7541 27.1301 20.5413 27.4814C20.1486 28.132 19.749 28.7788 19.3314 29.4612Z" fill="#D8D5D8"/>
<path d="M19.2769 23.489C19.3703 23.962 19.2262 24.2651 18.746 24.5093C17.7389 25.0219 16.7696 25.6059 15.7973 26.1802C15.5716 26.3134 15.4146 26.3018 15.1978 26.1734C14.2375 25.6049 13.2652 25.0537 12.2979 24.4958C12.5365 23.9311 12.9749 23.9224 13.4968 24.0344C14.8012 24.3143 16.1085 24.3336 17.4069 24.0479C18.0411 23.9079 18.6545 23.6772 19.2769 23.488V23.489Z" fill="#FCCF8B"/>
<path d="M8.50015 28.1841C7.99313 28.3279 7.48014 28.4563 6.97908 28.6204C5.90339 28.9718 4.81777 29.3058 3.76495 29.715C2.58985 30.1716 1.82931 31.0191 1.73785 32.2759C1.65335 33.4362 1.67721 34.6051 1.65235 35.7693C1.34118 35.6901 1.20796 35.47 1.20697 35.1824C1.201 33.8821 1.15726 32.58 1.22089 31.2827C1.27059 30.2768 1.84323 29.523 2.82646 29.1755C4.65174 28.5316 6.4979 27.9428 8.33611 27.3327C8.36892 27.3221 8.40769 27.3318 8.50015 27.3318V28.1841Z" fill="#453644"/>
<path d="M19.9111 33.6312C19.0174 34.0637 18.1485 34.4845 17.2796 34.9054C17.2508 34.8793 17.2229 34.8523 17.1941 34.8262C18.5362 32.7711 19.8773 30.7161 21.2195 28.66C21.2483 28.6649 21.2771 28.6697 21.306 28.6745C21.306 29.0375 21.306 29.4004 21.306 29.7633C21.306 30.2325 21.302 30.7026 21.3089 31.1717C21.3119 31.3647 21.2702 31.4912 21.0385 31.5211C20.8695 31.5433 20.7085 31.6186 20.5424 31.6678C19.8863 31.8628 19.4936 32.6959 19.7749 33.2393C19.8296 33.3445 19.8545 33.4642 19.9111 33.6312Z" fill="#282028"/>
<path d="M9.77366 28.6571C11.1168 30.7122 12.4609 32.7673 13.804 34.8223C13.7782 34.8513 13.7513 34.8802 13.7255 34.9092C12.8506 34.4864 11.9767 34.0627 11.1337 33.6553C11.1963 33.302 11.3166 32.9951 11.2898 32.6997C11.2371 32.1109 10.8464 31.7701 10.2648 31.6041C9.68717 31.439 9.69214 31.4236 9.69214 30.8309C9.69214 30.1147 9.69214 29.3984 9.69214 28.6832C9.71898 28.6754 9.74582 28.6668 9.77366 28.659V28.6571Z" fill="#282028"/>
<path d="M19.2768 23.4891C18.6545 23.6783 18.0411 23.909 17.4068 24.0489C16.1074 24.3346 14.8011 24.3144 13.4967 24.0354C12.9748 23.9234 12.5364 23.9331 12.2978 24.4968C11.3792 24.2536 11.8067 23.5325 11.6814 22.9186C14.2334 24.0586 16.7357 24.0759 19.2758 22.9311V23.4891H19.2768Z" fill="#E1B87C"/>
<path d="M12.3655 30.4014C12.6389 30.1755 12.8824 29.9738 13.128 29.7711C13.6301 30.6118 13.6957 31.1707 13.3865 31.9719C13.3517 31.9304 13.3169 31.8976 13.292 31.8589C12.9868 31.3802 12.6826 30.9014 12.3655 30.4023V30.4014Z" fill="#1AA6D5"/>
<path d="M17.6405 31.9583C17.1255 31.1639 17.5868 30.4834 17.8453 29.7517C18.1107 29.9699 18.3632 30.1774 18.6336 30.4004C18.2996 30.9236 17.9705 31.4409 17.6405 31.9583Z" fill="#1AA6D5"/>
<path d="M15.5347 19.0072C14.6082 18.9899 13.7552 18.6646 12.9688 18.1597C12.6695 17.9676 12.6099 17.6472 12.7859 17.3721C12.9549 17.1076 13.2819 17.0333 13.6001 17.1906C13.8745 17.3267 14.1379 17.4879 14.4213 17.6047C15.3548 17.9898 16.2525 17.9088 17.1065 17.375C17.19 17.3228 17.2685 17.264 17.353 17.2147C17.6583 17.0371 17.9923 17.0854 18.1822 17.3335C18.388 17.6018 18.3402 17.9377 18.039 18.1568C17.3083 18.6887 16.4931 19.0005 15.5367 19.0082L15.5347 19.0072Z" fill="#050403"/>
<path d="M11.9599 11.9994C11.6994 11.9994 11.4389 12.011 11.1795 11.9965C10.8524 11.9781 10.6187 11.7378 10.6108 11.4385C10.6028 11.147 10.8355 10.8681 11.1546 10.8555C11.6865 10.8343 12.2203 10.8324 12.7512 10.8575C13.0773 10.8729 13.2851 11.1412 13.2732 11.4501C13.2622 11.7571 13.0385 11.9723 12.7015 12.0003C12.6767 12.0023 12.6518 12.0023 12.627 12.0023C12.4043 12.0023 12.1806 12.0023 11.9579 12.0023V12.0003L11.9599 11.9994Z" fill="#040302"/>
<path d="M19.0352 12.0003C18.7877 12.0003 18.5391 12.0099 18.2916 11.9974C17.9545 11.98 17.7319 11.757 17.7209 11.4491C17.709 11.1257 17.9317 10.8651 18.2806 10.8526C18.7877 10.8333 19.2967 10.8352 19.8047 10.8526C20.1467 10.8642 20.3932 11.1344 20.3853 11.4404C20.3773 11.7532 20.1318 11.9858 19.7788 12.0003C19.5313 12.0099 19.2827 12.0022 19.0352 12.0022V12.0003Z" fill="#040302"/>
<path d="M12.5314 13.7262C12.5314 13.8701 12.5453 14.0158 12.5284 14.1577C12.4926 14.4627 12.2938 14.6355 11.9906 14.6597C11.6844 14.6838 11.4318 14.5332 11.3911 14.2378C11.3424 13.8865 11.3414 13.5197 11.3861 13.1673C11.4239 12.872 11.6734 12.7137 11.9776 12.733C12.2958 12.7532 12.5026 12.9337 12.5304 13.259C12.5433 13.4144 12.5324 13.5708 12.5324 13.7272C12.5324 13.7272 12.5314 13.7272 12.5304 13.7272L12.5314 13.7262Z" fill="#070604"/>
<path d="M19.6387 13.6944C19.6387 13.8498 19.6586 14.009 19.6347 14.1616C19.585 14.4772 19.3166 14.6847 19.0143 14.6664C18.7061 14.648 18.4795 14.4241 18.4626 14.0969C18.4496 13.8334 18.4496 13.5679 18.4626 13.3044C18.4785 12.9762 18.7012 12.7503 19.0084 12.7281C19.3185 12.7059 19.5969 12.9337 19.6407 13.2638C19.6595 13.4057 19.6436 13.5515 19.6436 13.6953H19.6387V13.6944Z" fill="#060504"/>
<path d="M24.6084 34.9102C24.1004 34.9102 23.5924 34.9131 23.0853 34.9102C22.6708 34.9073 22.4282 34.6978 22.4212 34.3465C22.4153 34.0057 22.6648 33.7663 23.0754 33.7576C23.6948 33.7451 24.3141 33.7538 24.9335 33.7538C25.3302 33.7538 25.7258 33.748 26.1225 33.7557C26.545 33.7644 26.8234 34.0125 26.8135 34.3542C26.8025 34.6959 26.552 34.9054 26.1325 34.9092C25.6244 34.914 25.1164 34.9102 24.6094 34.9102H24.6084Z" fill="#010101"/>
</g>
<defs>
<clipPath id="clip0_338_362">
<rect width="31" height="37" fill="white"/>
</clipPath>
</defs>
</svg>
