<svg width="114" height="127" viewBox="0 0 114 127" fill="none" xmlns="http://www.w3.org/2000/svg">
<g clip-path="url(#clip0_5_35)">
<path d="M49.4773 27.7582L0.00268555 77.3819L49.4773 127.006L98.9519 77.3819L49.4773 27.7582Z" fill="#508CFB"/>
<path d="M99.0822 -22.0056L49.6075 27.6181L99.0822 77.2418L148.557 27.6181L99.0822 -22.0056Z" fill="#EF8B1D"/>
<path d="M148.526 27.591L99.0518 77.2147L148.526 126.838L198.001 77.2147L148.526 27.591Z" fill="#E20052"/>
<path d="M71.6107 114.167C77.9047 114.167 83.0069 109.049 83.0069 102.736C83.0069 96.4235 77.9047 91.3059 71.6107 91.3059C65.3168 91.3059 60.2145 96.4235 60.2145 102.736C60.2145 109.049 65.3168 114.167 71.6107 114.167Z" fill="#508CFB"/>
<path d="M111.794 52.2633C111.794 58.5746 116.898 63.6938 123.191 63.6938C129.483 63.6938 134.587 58.5746 134.587 52.2633C134.587 45.952 129.483 40.8328 123.191 40.8328C116.898 40.8328 111.794 45.952 111.794 52.2633Z" fill="#F086B9"/>
<path d="M12.0779 101.72C12.0779 108.031 17.1817 113.15 23.4741 113.15C29.7664 113.15 34.8703 108.031 34.8703 101.72C34.8703 95.4083 29.7664 90.2891 23.4741 90.2891C17.1817 90.2891 12.0779 95.4083 12.0779 101.72Z" fill="#31305F"/>
<path d="M112.494 102.701C112.494 109.013 117.597 114.132 123.89 114.132C130.182 114.132 135.286 109.013 135.286 102.701C135.286 96.3901 130.182 91.2709 123.89 91.2709C117.597 91.2709 112.494 96.3901 112.494 102.701Z" fill="#F086B9"/>
</g>
<defs>
<clipPath id="clip0_5_35">
<rect width="198" height="149" fill="white" transform="translate(0 -22)"/>
</clipPath>
</defs>
</svg>
