<svg width="36" height="37" viewBox="0 0 36 37" fill="none" xmlns="http://www.w3.org/2000/svg">
<g clip-path="url(#clip0_126_118)">
<path d="M12.459 27.6631C12.5989 27.1988 12.7223 27.1032 13.2072 27.1032C14.688 27.1061 16.1698 27.1109 17.6507 27.1148C17.8071 27.1148 17.9636 27.1148 18.1414 27.1148C19.1578 23.3557 20.1693 19.613 21.1944 15.8202C20.7785 15.7043 20.3656 15.5875 19.9516 15.4746C19.6718 15.3983 19.389 15.3298 19.1092 15.2516C18.4504 15.0691 18.1161 14.653 18.0763 13.9821C18.0559 13.6394 18.0248 13.2977 17.9917 12.87C17.7449 13.233 17.5487 13.5284 17.3456 13.819C16.9598 14.3683 16.4885 14.5517 15.8307 14.3799C14.0739 13.9223 12.32 13.4589 10.5671 12.9878C9.95396 12.8227 9.60609 12.3922 9.56042 11.7647C9.49726 10.8882 9.43702 10.0116 9.39621 9.13413C9.38746 8.95361 9.43022 8.74316 9.52253 8.58967C11.8283 4.72827 15.2137 2.40853 19.6766 1.65169C21.482 1.34567 23.2777 1.43835 25.0608 1.83993C25.1181 1.85248 25.1764 1.86117 25.2522 1.87469C25.4028 1.46055 25.5349 1.04931 25.704 0.654482C25.8031 0.422798 25.9625 0.217178 26.0946 -0.000991821C26.2404 -0.000991821 26.3861 -0.000991821 26.5319 -0.000991821C26.8681 0.25 26.9254 0.552155 26.7602 0.93733C26.5912 1.33119 26.4658 1.74436 26.3123 2.17491C26.664 2.31585 27.007 2.45004 27.3471 2.59098C28.7065 3.15667 29.9435 3.91834 31.0599 4.87403C31.435 5.1955 31.4661 5.32871 31.2611 5.77567C30.9365 6.01508 30.646 5.96585 30.3496 5.70424C30.0611 5.44938 29.7598 5.20418 29.4392 4.99084C28.8649 4.60953 28.2722 4.25621 27.6017 3.83821C27.6629 4.20891 27.7028 4.45507 27.7436 4.70124C27.8087 5.86352 27.9476 7.0287 27.9224 8.18905C27.8884 9.73458 27.7222 11.2772 27.625 12.8227C27.6182 12.9289 27.696 13.1191 27.7698 13.1384C29.5888 13.6317 31.4117 14.1086 33.2346 14.5874C33.7797 14.739 34.3238 14.8915 34.8748 15.045C34.8894 14.9784 34.902 14.9436 34.903 14.9089C34.903 14.8365 34.901 14.765 34.8952 14.6926C34.6853 12.1306 33.8331 9.80505 32.2726 7.74596C32.0307 7.42739 31.9578 7.13392 32.2279 6.80763C32.6827 6.6358 32.8381 6.67731 33.1258 7.06152C35.0157 9.58302 35.9893 12.4115 36 15.5556C36 15.7786 35.9194 16.0306 35.7989 16.2198C35.347 16.9322 34.866 17.6263 34.389 18.3223C33.9906 18.9035 33.5047 19.0773 32.8119 18.8948C31.1037 18.4449 29.3945 17.9932 27.6872 17.5385C26.9594 17.3444 26.6427 16.9496 26.5931 16.2015C26.5717 15.8771 26.5426 15.5537 26.5095 15.1444C26.3026 15.4408 26.1286 15.685 25.9605 15.9331C25.4553 16.6755 25.0316 16.8338 24.1649 16.6031C23.5566 16.4409 22.9493 16.2777 22.341 16.1165C22.3196 16.1107 22.2944 16.1194 22.2448 16.1242C21.2605 19.7665 20.2742 23.4165 19.2715 27.1283C19.9167 27.1283 20.5181 27.1273 21.1196 27.1283C21.8843 27.1302 22.65 27.1157 23.4147 27.1437C23.9161 27.1621 24.2883 26.9873 24.6332 26.6302C25.7827 25.438 26.9546 24.266 28.1206 23.0893C29.3818 21.8169 30.8734 21.4568 32.5855 22.0013C33.0577 22.1519 33.5271 22.3131 33.9964 22.4724C34.7047 22.7137 34.8524 23.3364 34.32 23.8693C32.0627 26.1263 29.8045 28.3842 27.5366 30.6315C27.3287 30.8372 27.2772 30.9897 27.4093 31.2658C27.9059 32.2939 28.3684 33.3384 28.8513 34.3733C29.0748 34.8521 29.2575 35.3309 29.0398 35.913C29.2079 35.913 29.3342 35.913 29.4596 35.913C30.99 35.913 32.5204 35.9033 34.0498 35.9246C34.249 35.9275 34.5056 36.0433 34.6299 36.1939C34.867 36.4806 34.6416 36.9237 34.2607 36.9865C34.1305 37.0087 33.9944 36.9961 33.8604 36.9961C22.857 36.9961 11.8536 36.9961 0.849257 36.9961C0.752088 36.9961 0.65492 37.0009 0.557751 36.9942C0.220576 36.9749 -0.000968503 36.7567 3.18349e-06 36.4526C0.00097487 36.1495 0.224463 35.9207 0.562609 35.9168C1.4245 35.9082 2.28735 35.913 3.14924 35.913C3.23377 35.913 3.31734 35.913 3.44657 35.913C3.23086 35.3087 3.44172 34.7951 3.6895 34.2786C4.00627 33.6203 4.29971 32.9513 4.62912 32.2302C4.19186 32.2302 3.7993 32.2331 3.40674 32.2302C2.84704 32.2244 2.53027 31.9319 2.56137 31.3807C2.59246 30.8314 2.63619 30.2724 2.76737 29.7396C3.14632 28.2037 4.53681 27.1215 6.13523 27.1003C7.54417 27.082 8.95312 27.0964 10.3611 27.1022C10.7838 27.1042 10.9276 27.2335 11.0277 27.6602C10.9577 28.0463 10.7196 28.1921 10.3319 28.1882C8.97353 28.1767 7.61414 28.1709 6.25572 28.1805C4.8458 28.1902 3.75557 29.2318 3.66132 30.6354V31.1461H3.9363C10.8576 31.1461 17.7789 31.1442 24.7003 31.149C25.2454 31.149 25.6817 30.954 26.0616 30.5746C28.3771 28.2558 30.6975 25.9428 33.016 23.627C33.0898 23.5526 33.1559 23.4706 33.289 23.3209C32.5709 23.1539 31.917 23.0024 31.263 22.8498C30.3769 22.8151 29.6238 23.1201 29.0058 23.7418C27.7873 24.9659 26.563 26.1851 25.3668 27.4304C24.8256 27.9942 24.2008 28.2355 23.4244 28.2298C20.0158 28.2037 16.6071 28.195 13.1984 28.1921C12.7981 28.1921 12.5474 28.055 12.457 27.6621L12.459 27.6631ZM31.7061 17.469C31.95 17.5366 32.192 17.6118 32.4378 17.6707C33.5727 17.9459 33.2025 18.0839 33.8788 17.1311C34.1169 16.7961 34.3394 16.4496 34.6027 16.0576C33.9731 15.9244 33.4221 15.8076 32.8721 15.6908C32.7526 15.6387 32.636 15.5711 32.5117 15.5363C31.812 15.3433 31.1115 15.156 30.4089 14.9716C29.4664 14.7226 28.5238 14.4774 27.5463 14.2215C27.5969 14.9195 27.6357 15.5788 27.7028 16.2353C27.7115 16.3241 27.8534 16.4438 27.9554 16.4718C29.2031 16.8125 30.4556 17.1388 31.7061 17.469ZM24.2708 2.88831C24.2173 2.93561 24.16 2.98001 24.1105 3.03118C22.2127 5.01304 20.7086 7.25459 19.6086 9.76161C19.4512 10.1198 19.3094 10.4856 19.1529 10.864C21.6278 11.5214 24.057 12.1663 26.5047 12.8169C26.8457 10.6381 26.9351 8.48928 26.7738 6.33365C26.7097 5.47255 26.5669 4.61725 26.46 3.75905C26.3939 3.61425 26.3599 3.37484 26.255 3.34009C25.7001 3.15281 25.1268 3.0167 24.5603 2.86224H24.5419C24.4515 2.87093 24.3602 2.87962 24.2698 2.88927L24.2708 2.88831ZM10.7847 8.63311C10.8557 8.65435 10.8994 8.66787 10.9441 8.67945C13.2363 9.28955 15.5295 9.89193 17.8168 10.5165C18.1015 10.5937 18.1443 10.4547 18.2181 10.2655C19.1393 7.89172 20.4112 5.71775 22.0291 3.74361C22.3303 3.37581 22.6442 3.0167 22.9658 2.63731C18.5417 2.14788 13.4384 4.33633 10.7838 8.63311H10.7847ZM6.555 35.8985H15.7685C16.0979 34.6783 16.4244 33.4658 16.7577 32.2311C13.9544 32.2311 11.187 32.2302 8.41966 32.2369C8.3361 32.2369 8.20881 32.3093 8.1748 32.3817C7.63163 33.543 7.09914 34.7102 6.55403 35.8985H6.555ZM17.8887 32.2408C17.5564 33.4726 17.2319 34.6764 16.9025 35.8975H25.9382C25.3707 34.6609 24.8159 33.4513 24.2611 32.2408H17.8887ZM10.5214 9.69404C10.5661 10.3852 10.5953 11.0214 10.6604 11.6527C10.672 11.7637 10.8207 11.9211 10.9363 11.953C12.6504 12.4221 14.3683 12.8758 16.0892 13.3228C16.1834 13.3469 16.3525 13.3151 16.4001 13.2475C16.7888 12.705 17.158 12.148 17.5564 11.561C15.1904 10.9326 12.8797 10.3196 10.5214 9.69404ZM19.0334 11.9559C19.082 12.6702 19.117 13.317 19.1811 13.9609C19.1908 14.0545 19.3259 14.1858 19.4269 14.2138C21.1429 14.681 22.8618 15.1377 24.5837 15.5836C24.6867 15.6107 24.8723 15.5682 24.9267 15.4919C25.3134 14.9571 25.6758 14.405 26.0684 13.8257C23.7121 13.1992 21.4014 12.5853 19.0334 11.9559ZM25.4407 32.1954C25.9508 33.3075 26.4551 34.4128 26.9662 35.5143C27.1334 35.8734 27.4258 35.9979 27.7251 35.858C28.0254 35.717 28.1196 35.4226 27.9574 35.0625C27.5765 34.2178 27.1878 33.378 26.8011 32.5362C26.6776 32.2678 26.5523 32.0004 26.4318 31.7427C26.0917 31.8981 25.7856 32.0381 25.4407 32.1954ZM7.00683 32.2302C6.67354 32.2302 6.37038 32.208 6.07401 32.2408C5.95158 32.2543 5.78834 32.3586 5.73684 32.4667C5.33165 33.3104 4.94589 34.1628 4.55915 35.0152C4.37259 35.4265 4.45616 35.7228 4.78556 35.8647C5.09261 35.997 5.3676 35.8589 5.54833 35.467C6.00211 34.4872 6.452 33.5054 6.90189 32.5236C6.93979 32.4406 6.96408 32.3508 7.00683 32.2302Z" fill="#030302"/>
<path d="M12.459 27.6631C12.5493 28.056 12.8 28.1921 13.2004 28.1931C16.609 28.196 20.0177 28.2047 23.4264 28.2307C24.2028 28.2365 24.8276 27.9952 25.3688 27.4314C26.5649 26.1861 27.7893 24.9669 29.0078 23.7428C29.6267 23.1221 30.3788 22.8161 31.265 22.8508C30.0387 24.0981 28.8173 25.3511 27.5833 26.5925C26.4843 27.6979 25.3698 28.7877 24.2659 29.8873C23.7616 30.3893 23.1533 30.6364 22.445 30.6364C16.1844 30.6383 9.92384 30.6364 3.66229 30.6364C3.75655 29.2328 4.84678 28.1912 6.25669 28.1815C7.61511 28.1719 8.9745 28.1776 10.3329 28.1892C10.7206 28.1931 10.9587 28.0473 11.0286 27.6612C11.5048 27.6612 11.9809 27.6621 12.457 27.6631H12.459Z" fill="#7EB2F9"/>
<path d="M27.7426 4.70223C27.7018 4.45606 27.662 4.2099 27.6008 3.8392C28.2712 4.2572 28.864 4.61052 29.4382 4.99183C29.7589 5.20421 30.0611 5.44941 30.3487 5.70523C30.6451 5.9678 30.9346 6.01607 31.2601 5.77666C31.5827 6.12033 31.9044 6.46496 32.227 6.80862C31.9578 7.13491 32.0307 7.42838 32.2717 7.74695C33.8322 9.80604 34.6834 12.1316 34.8942 14.6936C34.9001 14.7651 34.903 14.8375 34.902 14.9099C34.902 14.9446 34.8884 14.9794 34.8738 15.046C34.3229 14.8925 33.7778 14.74 33.2336 14.5884C33.1199 13.8567 33.049 13.1162 32.8858 12.3961C32.4378 10.419 31.538 8.64569 30.2574 7.0741C29.5276 6.17922 28.724 5.34226 27.7417 4.70223H27.7426Z" fill="#DB636D"/>
<path d="M26.461 3.75909C26.5678 4.61728 26.7107 5.47258 26.7748 6.33368C26.9351 8.48931 26.8467 10.6382 26.5056 12.817C24.058 12.1673 21.6288 11.5215 19.1539 10.8641C19.3093 10.4857 19.4522 10.1208 19.6096 9.76164C20.7095 7.25462 22.2137 5.01308 24.1114 3.03121C24.161 2.98005 24.2183 2.93564 24.2717 2.88834C24.3621 2.87965 24.4534 2.87096 24.5438 2.86227H24.5623C25.0219 3.0872 25.4805 3.31406 25.9421 3.53512C26.1121 3.61621 26.288 3.68475 26.4619 3.75812L26.461 3.75909Z" fill="#FDDE7C"/>
<path d="M10.7847 8.63314C13.4394 4.33636 18.5427 2.14791 22.9668 2.63734C22.6451 3.01672 22.3313 3.37583 22.0301 3.74363C20.4132 5.71778 19.1412 7.89175 18.2191 10.2655C18.1453 10.4548 18.1025 10.5938 17.8178 10.5165C15.5304 9.89292 13.2363 9.28958 10.9451 8.67948C10.9004 8.66789 10.8566 8.65341 10.7857 8.63314H10.7847Z" fill="#DF7E84"/>
<path d="M27.7426 4.70222C28.725 5.34322 29.5276 6.17921 30.2583 7.07409C31.539 8.64472 32.4378 10.419 32.8867 12.3961C33.05 13.1162 33.1219 13.8567 33.2346 14.5884C31.4117 14.1096 29.5879 13.6327 27.7698 13.1394C27.695 13.1191 27.6183 12.929 27.6251 12.8237C27.7222 11.2792 27.8874 9.73653 27.9224 8.19004C27.9486 7.02969 27.8097 5.86451 27.7436 4.70222H27.7426Z" fill="#DF7E84"/>
<path d="M3.66229 30.6354C9.92287 30.6354 16.1834 30.6374 22.445 30.6354C23.1533 30.6354 23.7616 30.3883 24.2659 29.8863C25.3698 28.7858 26.4843 27.6959 27.5833 26.5916C28.8173 25.3511 30.0387 24.0981 31.265 22.8499C31.9189 23.0014 32.5729 23.154 33.2909 23.321C33.1578 23.4706 33.0918 23.5526 33.0179 23.627C30.6995 25.9429 28.3791 28.2558 26.0635 30.5746C25.6836 30.955 25.2473 31.15 24.7022 31.149C17.7809 31.1451 10.8596 31.1461 3.93825 31.1461H3.66326V30.6354H3.66229Z" fill="#60A1F7"/>
<path d="M10.5214 9.69406C12.8797 10.3196 15.1904 10.9336 17.5564 11.5611C17.158 12.149 16.7898 12.705 16.4001 13.2475C16.3525 13.3141 16.1825 13.347 16.0892 13.3228C14.3693 12.8759 12.6504 12.4221 10.9363 11.953C10.8217 11.9211 10.672 11.7638 10.6604 11.6528C10.5943 11.0214 10.5661 10.3862 10.5214 9.69406Z" fill="#FBDD7B"/>
<path d="M19.0334 11.9559C21.4024 12.5853 23.713 13.1993 26.0684 13.8258C25.6758 14.405 25.3134 14.9572 24.9267 15.492C24.8722 15.5682 24.6857 15.6107 24.5837 15.5837C22.8618 15.1377 21.1429 14.6811 19.4269 14.2138C19.3259 14.1858 19.1898 14.0555 19.1811 13.9609C19.117 13.317 19.082 12.6702 19.0334 11.9559Z" fill="#DE7D83"/>
<path d="M31.7061 17.469C30.4556 17.1389 29.2031 16.8126 27.9554 16.4718C27.8534 16.4438 27.7115 16.3241 27.7028 16.2353C27.6348 15.5788 27.5969 14.9195 27.5463 14.2216C28.5238 14.4774 29.4674 14.7226 30.4089 14.9716C31.1105 15.157 31.812 15.3443 32.5116 15.5364C32.637 15.5711 32.7526 15.6377 32.8721 15.6908C32.843 15.7536 32.8216 15.8221 32.7827 15.8791C32.4252 16.41 32.0656 16.939 31.7061 17.468V17.469Z" fill="#FBDD7B"/>
<path d="M25.4407 32.1954C25.7856 32.0381 26.0917 31.8981 26.4318 31.7427C26.5513 32.0004 26.6776 32.2678 26.801 32.5362C27.1878 33.378 27.5764 34.2179 27.9573 35.0625C28.1196 35.4226 28.0254 35.717 27.7251 35.858C27.4268 35.998 27.1333 35.8734 26.9662 35.5143C26.4551 34.4129 25.9518 33.3075 25.4407 32.1954Z" fill="#C18259"/>
<path d="M7.00682 32.2302C6.96407 32.3499 6.93978 32.4397 6.90188 32.5237C6.45199 33.5054 6.0021 34.4872 5.54832 35.467C5.36662 35.859 5.0926 35.998 4.78555 35.8647C4.45615 35.7228 4.37355 35.4255 4.55914 35.0152C4.94588 34.1628 5.33066 33.3104 5.73683 32.4667C5.78833 32.3596 5.95254 32.2543 6.074 32.2408C6.37037 32.208 6.67256 32.2302 7.00682 32.2302Z" fill="#C28259"/>
<path d="M31.7061 17.469C32.0656 16.939 32.4252 16.41 32.7827 15.88C32.8206 15.8231 32.843 15.7545 32.8721 15.6918C33.4231 15.8086 33.9731 15.9254 34.6027 16.0586C34.3394 16.4506 34.1169 16.7971 33.8788 17.1321C33.2025 18.0849 33.5727 17.9459 32.4378 17.6717C32.192 17.6119 31.95 17.5375 31.7061 17.47V17.469Z" fill="#FACC62"/>
<path d="M26.461 3.75908C26.288 3.68475 26.1112 3.61718 25.9411 3.53609C25.4796 3.31502 25.0209 3.0872 24.5613 2.86324C25.1278 3.01769 25.7011 3.15381 26.256 3.34108C26.3599 3.37584 26.3939 3.61524 26.461 3.76005V3.75908Z" fill="#F0C55F"/>
</g>
<defs>
<clipPath id="clip0_126_118">
<rect width="36" height="37" fill="white"/>
</clipPath>
</defs>
</svg>
