<svg width="43" height="45" viewBox="0 0 43 45" fill="none" xmlns="http://www.w3.org/2000/svg">
<g clip-path="url(#clip0_213_1031)">
<path d="M0.448947 45.0002C0.136806 44.7959 -0.0975898 44.5377 0.0393344 44.135C0.173938 43.7381 0.505805 43.6736 0.884087 43.6771C1.95279 43.6888 3.02266 43.6818 4.12385 43.6818C3.9057 43.0184 4.06467 42.4455 4.3362 41.8726C4.74581 41.0085 5.12294 40.1303 5.53719 39.204C5.00574 39.204 4.53346 39.2087 4.06119 39.2028C3.42067 39.1946 3.03426 38.8365 3.07023 38.1978C3.10852 37.5157 3.16074 36.8218 3.32087 36.162C3.76646 34.3199 5.42811 32.9944 7.30328 32.9674C8.99743 32.9428 10.6927 32.9616 12.388 32.9686C12.8916 32.971 13.0634 33.1283 13.1829 33.6472C13.0993 34.1168 12.8151 34.2941 12.3521 34.2894C10.7299 34.2753 9.1065 34.2683 7.4843 34.28C5.80059 34.2918 4.49865 35.5586 4.3861 37.2656V37.8867H4.71448C12.9798 37.8867 21.2452 37.8843 29.5105 37.8902C30.1615 37.8902 30.6825 37.653 31.1362 37.1916C33.9014 34.3716 36.6724 31.5586 39.441 28.742C39.5292 28.6516 39.6081 28.5518 39.7671 28.3699C38.9096 28.1668 38.1286 27.9824 37.3477 27.7969C36.2894 27.7547 35.3901 28.1257 34.6521 28.8818C33.197 30.3704 31.735 31.8533 30.3065 33.3678C29.6602 34.0534 28.9141 34.3469 27.987 34.3399C23.9164 34.3082 19.8458 34.2976 15.7752 34.2941C15.2971 34.2941 14.9977 34.1274 14.8898 33.6496C15.0569 33.0848 15.2043 32.9698 15.7833 32.9686C16.7545 32.9686 17.7269 32.971 18.6982 32.9721C19.6694 32.9721 20.6406 32.9721 21.6745 32.9721C22.2768 30.7121 22.8871 28.4368 23.4917 26.1591C24.0985 23.8744 24.7008 21.5886 25.3193 19.244C24.8249 19.1043 24.3295 18.9622 23.834 18.8249C23.4859 18.7286 23.1331 18.6464 22.7862 18.5455C22.0598 18.3353 21.649 17.8105 21.6003 17.0509C21.5724 16.6212 21.5376 16.1903 21.4981 15.6608C21.2092 16.0893 20.9795 16.4345 20.7451 16.7785C20.2635 17.4829 19.7181 17.7084 18.9117 17.4947C16.8137 16.9382 14.7181 16.3746 12.6248 15.8005C11.8937 15.5998 11.4818 15.0738 11.4273 14.3083C11.353 13.2576 11.2787 12.2056 11.2358 11.1525C11.2253 10.9071 11.2868 10.6218 11.411 10.4117C14.1634 5.73074 18.2038 2.92947 23.516 2.01371C25.73 1.63215 27.9324 1.76364 30.1603 2.29549C30.3715 1.70846 30.5583 1.11557 30.802 0.548506C30.8902 0.343048 31.0828 0.116457 31.2813 0.0401441C31.764 -0.146529 32.2049 0.366529 32.0367 0.91246C31.858 1.49479 31.6387 2.06302 31.4634 2.56199C32.6517 3.17015 33.8329 3.71608 34.9527 4.36885C35.7127 4.81147 36.3962 5.39262 37.0947 5.93738C37.5647 6.30368 37.5856 6.48683 37.3419 7.03159C36.9543 7.32275 36.6074 7.26287 36.2535 6.94471C35.9088 6.63476 35.5491 6.33655 35.1662 6.07709C34.4804 5.61334 33.7726 5.18364 32.9719 4.67528C33.045 5.12611 33.0926 5.42549 33.1413 5.72487C33.2191 7.13842 33.385 8.5555 33.3548 9.9667C33.3142 11.8463 33.1158 13.7225 32.9998 15.6021C32.9917 15.7313 33.0845 15.9626 33.1727 15.986C35.3449 16.586 37.5218 17.1659 39.6986 17.7483C40.3496 17.9326 40.9994 18.1181 41.6573 18.3048C41.6747 18.2238 41.6898 18.1815 41.691 18.1392C41.691 18.0512 41.6887 17.9643 41.6817 17.8762C41.4311 14.7603 40.4134 11.9321 38.551 9.42781C38.2621 9.04038 38.175 8.68347 38.4976 8.28664C39.0407 8.07766 39.2263 8.12815 39.5698 8.59424C41.8267 11.6597 42.9894 15.0985 43.0022 18.9211C43.0022 19.1924 42.9082 19.4988 42.7655 19.7301C42.2259 20.5953 41.6527 21.4395 41.0818 22.286C40.6037 22.9951 40.0247 23.2088 39.2008 22.988C37.1609 22.4409 35.1221 21.8903 33.0833 21.3385C32.2119 21.1025 31.8278 20.62 31.7686 19.7183C31.7419 19.3156 31.7048 18.9141 31.6653 18.4151C31.3915 18.8202 31.1687 19.1524 30.9447 19.4835C30.4249 20.2525 29.8911 20.4591 29.0069 20.2255C28.2097 20.0154 27.4149 19.8005 26.5852 19.5786C25.4005 24.0447 24.2204 28.492 23.0252 32.9991C23.8433 32.9991 24.5952 32.998 25.3459 32.9991C26.2592 33.0015 27.1724 32.9944 28.0856 33.0144C28.5822 33.025 28.971 32.8606 29.3202 32.4966C30.7301 31.022 32.1562 29.5627 33.5776 28.0998C35.0942 26.5384 36.8835 26.0934 38.9432 26.7732C39.4932 26.954 40.0398 27.143 40.5863 27.332C41.4635 27.6349 41.6376 28.3816 40.9785 29.052C38.2516 31.8274 35.5224 34.5994 32.7921 37.3713C32.7213 37.4441 32.6343 37.5004 32.5472 37.5697C33.1854 38.9891 33.8039 40.3698 34.4247 41.7481C34.7071 42.3751 34.81 43.0196 34.7334 43.6818C35.4296 43.6818 36.1212 43.6818 36.8128 43.6818C38.0451 43.6818 39.2774 43.6865 40.5097 43.6782C40.8868 43.6759 41.2547 43.6806 41.4218 44.0997C41.5773 44.4883 41.3394 44.7513 41.0911 45.0002H0.448947ZM39.2635 19.0879C39.1207 19.0245 38.9815 18.9423 38.833 18.9C37.9975 18.6652 37.1609 18.4374 36.3219 18.2132C35.1964 17.9103 34.0708 17.6121 32.9035 17.301C32.9638 18.1498 33.0102 18.9517 33.0903 19.75C33.1007 19.858 33.2701 20.0036 33.392 20.0377C34.8819 20.4521 36.3776 20.8489 37.871 21.2505C38.1623 21.3326 38.4512 21.4242 38.7448 21.4958C40.1001 21.8304 39.658 21.9983 40.4656 20.8395C40.7499 20.4321 41.0156 20.0107 41.3301 19.534C40.5782 19.372 39.9202 19.2299 39.2635 19.0879ZM28.993 3.51767C28.9292 3.5752 28.8607 3.6292 28.8015 3.69143C26.5353 6.10174 24.7391 8.82788 23.4255 11.8769C23.2375 12.3124 23.0681 12.7574 22.8813 13.2176C25.8368 14.0172 28.7377 14.8014 31.6584 15.5916C32.0715 12.9429 32.1736 10.3295 31.9821 7.70784C31.9055 6.66059 31.735 5.62038 31.6073 4.57666C31.5284 4.40055 31.4878 4.10939 31.3625 4.06712C30.6999 3.83936 30.0153 3.67382 29.3388 3.48597H29.3167C29.2088 3.49653 29.0998 3.5071 28.9918 3.51884L28.993 3.51767ZM12.9032 10.5173C15.8065 11.3028 18.7016 12.0847 21.6165 12.8725C22.9544 9.25171 24.9062 6.0583 27.4706 3.18893C20.8623 2.60778 15.3168 6.3389 12.9032 10.5173ZM18.8386 43.6712C19.2354 42.172 19.6241 40.702 20.021 39.2028C16.6768 39.2028 13.386 39.1993 10.0963 39.2157C9.96518 39.2157 9.7772 39.3812 9.71338 39.5163C9.23646 40.5306 8.78392 41.5579 8.32441 42.5805C8.16544 42.9351 8.00763 43.2896 7.83821 43.67H18.8386V43.6712ZM21.3717 39.2192C20.9783 40.7032 20.5872 42.1766 20.1962 43.6548H30.983C30.3042 42.1485 29.6405 40.6774 28.9826 39.2192H21.3717ZM12.5749 11.7947C12.6282 12.6435 12.6654 13.4301 12.742 14.2132C12.7536 14.3353 12.9311 14.5044 13.0622 14.5408C15.1103 15.109 17.1618 15.662 19.2157 16.2068C19.3294 16.2373 19.5336 16.2032 19.5905 16.1234C20.0558 15.4624 20.4967 14.7826 20.9737 14.0653C18.1563 13.3033 15.3969 12.5578 12.5749 11.7947ZM31.142 16.8184C28.3223 16.0553 25.556 15.3074 22.7397 14.5467C22.7978 15.4108 22.8372 16.1974 22.9184 16.9793C22.9312 17.099 23.1157 17.2622 23.2491 17.2998C25.2844 17.8645 27.3232 18.4163 29.3643 18.9552C29.4873 18.9881 29.7101 18.9388 29.7751 18.8472C30.2369 18.1968 30.6697 17.5252 31.1409 16.8184H31.142ZM30.3913 39.1605C30.8705 40.2242 31.3486 41.2867 31.8266 42.3469C31.9763 42.6791 32.1086 43.022 32.2885 43.3378C32.4672 43.6524 32.7538 43.7698 33.1054 43.6184C33.4349 43.4763 33.595 43.1335 33.4419 42.7836C32.8315 41.3842 32.2003 39.9929 31.5795 38.6052C31.1652 38.7989 30.7881 38.975 30.3913 39.1605ZM8.4126 39.2028C7.95889 39.2028 7.58409 39.1864 7.21161 39.2122C7.09789 39.2204 6.9366 39.3155 6.89135 39.4153C6.37846 40.5236 5.87602 41.6378 5.3875 42.7578C5.22737 43.1253 5.3875 43.4787 5.72981 43.6254C6.05124 43.7628 6.39471 43.6465 6.55948 43.2885C7.17448 41.9571 7.77207 40.6187 8.4126 39.2028Z" fill="#030302"/>
<path d="M14.8876 33.647C14.9955 34.1248 15.2949 34.2904 15.7729 34.2915C19.8435 34.295 23.9141 34.3056 27.9847 34.3373C28.9118 34.3444 29.658 34.0508 30.3043 33.3652C31.7327 31.8507 33.1948 30.3679 34.6499 28.8792C35.3891 28.1243 36.2872 27.7521 37.3454 27.7944C35.8811 29.3112 34.4225 30.8351 32.9488 32.345C31.6364 33.6892 30.3055 35.0147 28.9873 36.352C28.385 36.9625 27.6586 37.263 26.8127 37.263C19.3364 37.2654 11.8601 37.263 4.38269 37.263C4.49525 35.556 5.79719 34.2892 7.48089 34.2774C9.10309 34.2657 10.7265 34.2727 12.3487 34.2868C12.8116 34.2915 13.0959 34.1142 13.1795 33.6446C13.7481 33.6446 14.3167 33.6458 14.8852 33.647H14.8876Z" fill="#7EB2F9"/>
<path d="M38.4954 8.28524C38.1739 8.68207 38.261 9.03898 38.5487 9.42641C40.4123 11.9306 41.4288 14.7589 41.6794 17.8748C41.6864 17.9617 41.6899 18.0498 41.6887 18.1378C41.6887 18.1801 41.6725 18.2224 41.6551 18.3034C40.9971 18.1167 40.3462 17.9312 39.6964 17.7469C39.5606 16.8569 39.4759 15.9565 39.2809 15.0806C38.746 12.6762 37.6715 10.5194 36.1421 8.6081C35.2707 7.51976 34.3111 6.50186 33.1379 5.72347C33.0892 5.42409 33.0416 5.12471 32.9685 4.67387C33.7692 5.18224 34.477 5.61194 35.1628 6.07568C35.5457 6.33397 35.9066 6.63218 36.25 6.9433C36.604 7.26264 36.9498 7.32135 37.3385 7.03018C37.7237 7.44814 38.1078 7.86728 38.4931 8.28524H38.4954Z" fill="#DB636D"/>
<path d="M31.6086 4.57526C31.7362 5.61899 31.9068 6.65919 31.9834 7.70644C32.1748 10.3281 32.0716 12.9415 31.6596 15.5902C28.739 14.8 25.838 14.0158 22.8826 13.2162C23.0682 12.756 23.2388 12.3122 23.4268 11.8755C24.7403 8.82648 26.5366 6.10035 28.8028 3.69003C28.862 3.62781 28.9304 3.5738 28.9943 3.51627C29.1022 3.50571 29.2113 3.49514 29.3192 3.48457H29.3412C29.8901 3.75813 30.4378 4.03403 30.9889 4.30288C31.192 4.4015 31.402 4.48486 31.6097 4.57409L31.6086 4.57526Z" fill="#FDDE7C"/>
<path d="M12.9033 10.5171C15.3181 6.33867 20.8623 2.60755 27.4707 3.1887C24.9051 6.05807 22.9545 9.25147 21.6166 12.8722C18.7017 12.0844 15.8066 11.3014 12.9033 10.5171Z" fill="#DF7E84"/>
<path d="M33.1392 5.72231C34.3123 6.50187 35.2708 7.51859 36.1434 8.60694C37.6728 10.5171 38.7461 12.675 39.2822 15.0794C39.4772 15.9553 39.563 16.8558 39.6976 17.7457C37.5208 17.1634 35.3427 16.5834 33.1717 15.9835C33.0823 15.9588 32.9907 15.7275 32.9988 15.5996C33.1148 13.7211 33.3121 11.845 33.3539 9.96413C33.3852 8.55293 33.2193 7.13586 33.1404 5.72231H33.1392Z" fill="#DF7E84"/>
<path d="M4.38391 37.263C11.8602 37.263 19.3365 37.2654 26.814 37.263C27.6599 37.263 28.3863 36.9625 28.9885 36.352C30.3067 35.0136 31.6376 33.6881 32.95 32.345C34.4237 30.8363 35.8823 29.3124 37.3467 27.7944C38.1276 27.9787 38.9085 28.1642 39.7661 28.3673C39.6071 28.5493 39.5282 28.6491 39.44 28.7395C36.6713 31.556 33.9004 34.369 31.1352 37.1891C30.6815 37.6516 30.1605 37.8888 29.5095 37.8876C21.2442 37.8829 12.9788 37.8841 4.71346 37.8841H4.38507V37.263H4.38391Z" fill="#60A1F7"/>
<path d="M12.575 11.7945C15.397 12.5576 18.1564 13.3031 20.9737 14.0651C20.4968 14.7824 20.0559 15.461 19.5906 16.1232C19.5349 16.203 19.3295 16.2359 19.2158 16.2065C17.1619 15.6629 15.1104 15.11 13.0623 14.5406C12.9312 14.5042 12.7548 14.3351 12.742 14.213C12.6655 13.4299 12.6283 12.6445 12.575 11.7945Z" fill="#FBDD7B"/>
<path d="M31.1421 16.8182C30.671 17.5262 30.2381 18.1977 29.7763 18.847C29.7113 18.9385 29.4885 18.9878 29.3655 18.955C27.3233 18.4161 25.2845 17.8643 23.2504 17.2996C23.1169 17.262 22.9313 17.0988 22.9197 16.9791C22.8396 16.1971 22.8001 15.4105 22.741 14.5464C25.5572 15.3084 28.3235 16.0563 31.1432 16.8182H31.1421Z" fill="#DE7D83"/>
<path d="M37.8723 21.2502C36.3789 20.8487 34.8832 20.4519 33.3933 20.0374C33.2715 20.0034 33.102 19.8578 33.0916 19.7498C33.0104 18.9514 32.9651 18.1496 32.9048 17.3007C34.0721 17.6119 35.1988 17.9101 36.3232 18.213C37.161 18.4384 37.9988 18.6662 38.8343 18.8998C38.984 18.9421 39.1221 19.0231 39.2648 19.0876C39.23 19.1639 39.2045 19.2473 39.158 19.3166C38.731 19.9623 38.3017 20.6057 37.8723 21.2491V21.2502Z" fill="#FBDD7B"/>
<path d="M30.3914 39.1603C30.7882 38.9748 31.1665 38.7975 31.5796 38.605C32.2004 39.9939 32.8316 41.3839 33.442 42.7834C33.594 43.1333 33.4339 43.4761 33.1055 43.6182C32.755 43.7696 32.4673 43.6522 32.2886 43.3376C32.1099 43.0217 31.9776 42.6789 31.8267 42.3467C31.3475 41.2853 30.8706 40.224 30.3914 39.1603Z" fill="#C18259"/>
<path d="M8.41275 39.2026C7.77223 40.6185 7.17463 41.958 6.55963 43.2882C6.3937 43.6463 6.05023 43.7626 5.72997 43.6252C5.3865 43.4784 5.22752 43.125 5.38766 42.7576C5.87617 41.6375 6.37862 40.5234 6.8915 39.4151C6.93792 39.3153 7.09805 39.2202 7.21177 39.2119C7.58425 39.1861 7.95905 39.2026 8.41275 39.2026Z" fill="#C28259"/>
<path d="M37.8723 21.2502C38.3017 20.6057 38.731 19.9623 39.158 19.3177C39.2033 19.2485 39.23 19.1651 39.2648 19.0888C39.9227 19.2309 40.5795 19.3729 41.3314 19.5349C41.0169 20.0116 40.7512 20.4331 40.4669 20.8405C39.6593 21.9993 40.1014 21.8302 38.7461 21.4968C38.4525 21.424 38.1636 21.3336 37.8723 21.2514V21.2502Z" fill="#FACC62"/>
<path d="M31.6086 4.57526C31.4021 4.48486 31.1909 4.40268 30.9878 4.30406C30.4366 4.0352 29.8889 3.75813 29.3401 3.48575C30.0166 3.6736 30.7012 3.83914 31.3638 4.0669C31.4879 4.10917 31.5286 4.40033 31.6086 4.57644V4.57526Z" fill="#F0C55F"/>
<g clip-path="url(#clip1_213_1031)">
<path d="M10.5604 14.5034H9.80725V14.0134C9.80725 9.74309 9.80725 5.47153 9.80725 1.20124C9.80725 -0.0983022 10.4634 -0.762711 11.7468 -0.762711C21.5163 -0.762711 31.2859 -0.762711 41.0554 -0.762711C42.34 -0.762711 42.9987 -0.0995751 42.9987 1.19742C42.9987 3.83087 42.9987 6.46432 42.9987 9.13086C42.7342 9.14359 42.4899 9.15377 42.2456 9.16523C42.0012 9.1525 41.7569 9.13977 41.4899 9.12704V8.57083C41.4899 6.1423 41.4798 3.7125 41.4987 1.28397C41.5025 0.855034 41.3677 0.748118 40.9609 0.753209C39.2644 0.773574 37.568 0.760846 35.8728 0.763392C35.738 0.763392 35.6045 0.779939 35.476 0.787575V3.04936C36.6536 3.04936 37.8123 3.04936 38.9697 3.04936C39.7405 3.04936 39.9811 3.29247 39.9811 4.07271C39.9811 16.0906 39.9811 28.1098 39.9811 40.1277C39.9811 40.9385 39.7468 41.1739 38.9445 41.1739C35.4269 41.1739 31.908 41.1739 28.3904 41.1739H27.8967C27.8967 40.8825 27.8967 40.6457 27.8967 40.4102C27.908 40.1633 27.9194 39.9164 27.9319 39.6325H38.4445V4.60347H35.4647C35.4609 4.69384 35.4559 4.75621 35.4559 4.81857C35.4395 6.25431 34.8287 6.86271 33.403 6.86271C30.7783 6.86271 28.1549 6.86271 25.5302 6.86271C23.4093 6.86271 21.2871 6.86653 19.1662 6.86144C18.0705 6.85889 17.3652 6.15121 17.3513 5.05659C17.3501 4.90385 17.3513 4.75239 17.3513 4.6022H14.3198V14.5034H13.5818C13.3375 14.4907 13.0931 14.4792 12.8261 14.4652C12.8261 12.6846 12.8261 10.9408 12.8261 9.19705C12.8261 7.45202 12.8236 5.70572 12.8274 3.9607C12.8287 3.3332 13.1007 3.06209 13.7128 3.05064C13.8853 3.04682 14.0579 3.05064 14.2304 3.05064C15.2607 3.05064 16.2909 3.05064 17.3211 3.05064V0.762119C15.4874 0.762119 13.6838 0.777393 11.8816 0.751937C11.4193 0.745573 11.306 0.889401 11.3073 1.34252C11.3236 5.5479 11.3173 9.75327 11.3173 13.9586V14.5047H10.5617L10.5604 14.5034ZM33.9471 0.791394H18.8602C18.8602 2.13548 18.8803 3.45157 18.8501 4.76639C18.8387 5.23224 18.9823 5.34934 19.4319 5.34806C24.0806 5.33279 28.7292 5.33788 33.3765 5.33788C33.4546 5.33788 33.5566 5.3697 33.607 5.33152C33.733 5.2386 33.9294 5.11641 33.9319 5.00313C33.9546 3.6094 33.9471 2.2144 33.9471 0.791394Z" fill="black"/>
<path d="M23.9206 44.2096C22.7808 44.8664 21.5453 45.0051 20.2518 45C14.413 44.9758 8.57299 44.9898 2.73419 44.9886C1.3954 44.9886 0.754344 44.3356 0.754344 42.9724C0.754344 39.7509 0.754344 36.5307 0.754344 33.3092V32.8065C1.02009 32.7937 1.26442 32.7835 1.50749 32.7721C1.75183 32.7848 1.99616 32.7988 2.26316 32.8128V33.3729C2.26316 36.5345 2.27324 39.6949 2.25309 42.8566C2.25057 43.3326 2.36644 43.4764 2.85258 43.4739C7.5352 43.4548 12.2191 43.4624 16.9017 43.4624H17.3866C17.2808 43.3237 17.2292 43.2524 17.1737 43.185C15.3916 40.9932 15.3891 38.3432 17.1511 36.1285C17.2732 35.9745 17.3387 35.7314 17.34 35.529C17.3538 33.448 17.2833 31.3644 17.3753 29.2871C17.4231 28.1951 17.1901 27.3486 16.3047 26.7071C15.9294 26.4348 15.811 26.0491 15.8337 25.5807C15.8639 24.9392 15.8413 24.2939 15.8413 23.6638H3.80472V25.1874H13.5516V26.6868C13.3551 26.6868 13.1851 26.6868 13.0151 26.6868C10.1397 26.6868 7.26316 26.7186 4.38785 26.6664C3.61077 26.6524 3.04024 26.8408 2.56039 27.4505C2.37399 27.6859 2.25057 27.887 2.25686 28.2001C2.27576 29.2108 2.26442 30.2226 2.26442 31.2791H0.761901C0.761901 29.9515 0.744268 28.6545 0.779533 27.3575C0.78583 27.145 0.978525 26.8726 1.16366 26.7402C2.11707 26.0529 2.45334 25.1365 2.26568 23.9922C2.24805 23.8853 2.26316 23.772 2.26316 23.6702C1.06039 23.2298 0.754344 22.7881 0.754344 21.5102C0.754344 20.3189 0.753084 19.1275 0.754344 17.9362C0.755603 16.7016 1.42815 16.0168 2.64099 16.0142C5.28079 16.0079 7.9206 16.0041 10.5604 15.999C11.5667 15.999 12.5743 15.999 13.5805 15.999C14.743 16.0041 15.9042 16.0066 17.0667 16.0155C18.1511 16.0231 18.8539 16.7372 18.8589 17.8407C18.8652 19.0626 18.8601 20.2858 18.8601 21.5077C18.8601 22.7958 18.5642 23.2247 17.3639 23.6664C17.3601 23.7389 17.3639 23.8179 17.3513 23.8942C17.1599 25.0818 17.4874 26.0389 18.476 26.7797C18.7015 26.949 18.8387 27.3754 18.8438 27.6872C18.8778 29.5442 18.8601 31.4013 18.8601 33.2596V34.7768C20.641 34.2766 21.3211 34.2218 22.301 34.4484C24.7216 35.0097 26.7078 37.3288 26.3652 40.409C26.0869 42.0293 25.2518 43.2817 23.9206 44.2096ZM9.81858 22.1136C12.1586 22.1136 14.4987 22.1072 16.8387 22.1199C17.2103 22.1225 17.369 22.0436 17.3601 21.6235C17.3337 20.4182 17.3413 19.2103 17.3576 18.0036C17.3627 17.6613 17.2745 17.5302 16.9105 17.5302C12.1674 17.5403 7.42437 17.5403 2.6813 17.5302C2.33999 17.5302 2.25434 17.6562 2.25812 17.9782C2.27198 19.1848 2.28205 20.3914 2.25309 21.5968C2.24301 22.0359 2.40044 22.1225 2.79717 22.1199C5.13722 22.1034 7.47727 22.1123 9.81732 22.1123L9.81858 22.1136ZM22.3022 43.241C21.0755 41.0937 19.8614 38.9681 18.646 36.84C17.3526 37.7921 16.976 39.8642 17.7909 41.4285C18.6448 43.0666 20.5818 43.8697 22.3022 43.241ZM23.6158 42.4544C24.9823 41.4056 25.2947 39.1947 24.311 37.6177C23.3816 36.1285 21.3073 35.389 19.9596 36.0903C21.1196 38.1217 22.2795 40.1531 23.4395 42.1833C23.4924 42.2762 23.5566 42.364 23.6158 42.4544Z" fill="#010101"/>
<path d="M1.50883 31.2791H2.2645C2.2645 30.2227 2.27583 29.212 2.25694 28.2002C2.25064 27.887 2.37533 27.6872 2.56047 27.4505C3.04031 26.8421 3.61084 26.6524 4.38792 26.6664C7.26324 26.7186 10.1398 26.6868 13.0151 26.6868C13.1852 26.6868 13.3552 26.6868 13.5517 26.6868V25.1874H3.8048V23.6638H15.8413C15.8413 24.2939 15.864 24.9379 15.8338 25.5807C15.8111 26.0491 15.9295 26.4348 16.3048 26.7071C17.1902 27.3486 17.4245 28.1951 17.3753 29.2871C17.2834 31.3644 17.3539 33.448 17.3401 35.529C17.3388 35.7314 17.2733 35.9745 17.1512 36.1285C15.3892 38.3432 15.3917 40.9945 17.1738 43.185C17.2292 43.2524 17.2809 43.3237 17.3867 43.4625H16.9018C12.2192 43.4625 7.53528 43.4548 2.85266 43.4739C2.36651 43.4764 2.24938 43.3326 2.25316 42.8566C2.27331 39.6949 2.26324 36.5345 2.26324 33.3729V32.8128C1.99623 32.7988 1.7519 32.7848 1.50757 32.7721C1.50757 32.2744 1.50757 31.7768 1.50757 31.2778L1.50883 31.2791ZM12.0705 32.7886C12.0705 32.0555 12.0731 31.3898 12.0705 30.7241C12.068 30.0012 11.8161 29.7415 11.1146 29.739C10.2658 29.7364 9.41815 29.7377 8.56929 29.739C7.77331 29.739 7.54536 29.9757 7.5441 30.7967C7.5441 31.456 7.5441 32.1153 7.5441 32.7886C6.79473 32.7886 6.11966 32.7848 5.44334 32.7886C4.79472 32.7937 4.53024 33.0598 4.52772 33.7165C4.52268 34.6062 4.52394 35.4959 4.52772 36.3843C4.53024 37.1035 4.78213 37.3593 5.4912 37.3619C6.16248 37.3644 6.83251 37.3619 7.54536 37.3619C7.54536 38.0899 7.54284 38.7696 7.54536 39.448C7.54913 40.1404 7.8048 40.4077 8.47609 40.4102C9.35644 40.4141 10.2355 40.4141 11.1159 40.4102C11.8161 40.4077 12.068 40.1455 12.0705 39.4238C12.0731 38.7467 12.0705 38.0695 12.0705 37.3606C12.8174 37.3606 13.5063 37.3657 14.194 37.3593C14.8098 37.3542 15.0819 37.078 15.0857 36.4543C15.092 35.5328 15.092 34.6113 15.0857 33.6911C15.0819 33.0674 14.8086 32.7925 14.1927 32.7874C13.5038 32.781 12.8161 32.7861 12.0705 32.7861V32.7886Z" fill="#DF7E84"/>
<path d="M23.9207 44.2096C25.2519 43.2817 26.0869 42.028 26.3652 40.409C26.8753 40.409 27.3866 40.4115 27.8967 40.4128V41.1765H28.3904C31.9081 41.1765 35.427 41.1765 38.9446 41.1765C39.7469 41.1765 39.9811 40.9397 39.9811 40.1302C39.9811 28.1123 39.9811 16.0931 39.9811 4.07525C39.9811 3.29501 39.7406 3.05191 38.9698 3.05191C37.8123 3.05063 36.6549 3.05191 35.4761 3.05191V0.787574C35.6045 0.779937 35.738 0.76339 35.8728 0.76339C37.5693 0.762117 39.2657 0.774845 40.961 0.753208C41.3678 0.748116 41.5025 0.855033 41.4987 1.28397C41.4799 3.7125 41.4899 6.1423 41.4899 8.57082V9.12704C41.7569 9.14104 42.0013 9.15377 42.2456 9.16523C42.2456 9.66417 42.2456 10.1644 42.2456 10.6633C42.0013 10.6773 41.7582 10.6913 41.4912 10.7066V11.3125C41.4912 21.8374 41.4887 32.3622 41.5013 42.8871C41.5013 43.3453 41.3778 43.4752 40.9232 43.4726C36.2595 43.4561 31.5945 43.4624 26.9307 43.4624C26.7632 43.4624 26.5957 43.4624 26.3904 43.4624V44.2261C25.568 44.2198 24.7456 44.2147 23.9232 44.2083L23.9207 44.2096Z" fill="#7EB2F9"/>
<path d="M26.3879 44.2274V43.4637C26.5944 43.4637 26.762 43.4637 26.9282 43.4637C31.5919 43.4637 36.2569 43.4573 40.9206 43.4739C41.3766 43.4752 41.5 43.3466 41.4987 42.8884C41.4861 32.3635 41.4887 21.8386 41.4887 11.3137V10.7079C41.7557 10.6926 42 10.6786 42.2431 10.6646C42.4761 10.6646 42.7103 10.6646 42.9962 10.6646V11.2094C42.9962 21.7992 42.9962 32.389 42.9962 42.98C42.9962 44.3445 42.3564 44.9898 41.0063 44.9898C36.2947 44.9898 31.5819 44.9898 26.8703 44.9898H26.4194C26.4068 44.7225 26.3967 44.4756 26.3854 44.2287L26.3879 44.2274Z" fill="black"/>
<path d="M13.5806 15.9977C12.5743 15.9977 11.5667 15.9977 10.5604 15.9977C10.5604 15.5 10.5604 15.0023 10.5604 14.5034C10.7934 14.5034 11.0277 14.5034 11.3161 14.5034V13.9574C11.3161 9.75199 11.3224 5.54662 11.306 1.34124C11.3048 0.888122 11.4181 0.744294 11.8803 0.750659C13.6839 0.777388 15.4874 0.760841 17.3199 0.760841V3.04809C16.2896 3.04809 15.2594 3.04809 14.2292 3.04809C14.0566 3.04809 13.8841 3.04554 13.7116 3.04809C13.0995 3.05954 12.8274 3.33065 12.8262 3.95815C12.8211 5.70317 12.8249 7.44947 12.8249 9.1945C12.8249 10.9383 12.8249 12.682 12.8249 14.4627C13.0919 14.4767 13.3362 14.4881 13.5806 14.5009C13.5806 14.9985 13.5806 15.4962 13.5806 15.9951V15.9977Z" fill="#7EB2F9"/>
<path d="M13.5806 15.9977C13.5806 15.5 13.5806 15.0024 13.5806 14.5034C13.8149 14.5034 14.0479 14.5034 14.3186 14.5034V4.6022H17.3501C17.3501 4.75112 17.3489 4.90386 17.3501 5.0566C17.3627 6.15122 18.068 6.8589 19.165 6.86145C21.2859 6.86654 23.4081 6.86272 25.529 6.86272C28.1537 6.86272 30.7771 6.86272 33.4018 6.86272C34.8262 6.86272 35.437 6.25304 35.4547 4.81858C35.4547 4.75621 35.4597 4.69385 35.4635 4.60348H38.4433V39.6351H27.9307C27.9181 39.9189 27.9068 40.1659 27.8955 40.4128C27.3854 40.4128 26.8741 40.4102 26.364 40.409C26.7066 37.3275 24.7204 35.0097 22.2998 34.4484C21.3199 34.2206 20.6385 34.2753 18.8589 34.7768V33.2596C18.8589 31.4025 18.8753 29.5442 18.8426 27.6872C18.8375 27.3754 18.7003 26.949 18.4748 26.7797C17.4849 26.0389 17.1587 25.0818 17.3501 23.8942C17.3627 23.8179 17.3589 23.7389 17.3627 23.6664C18.563 23.2247 18.8589 22.7945 18.8589 21.5077C18.8589 20.2858 18.8627 19.0626 18.8577 17.8407C18.8526 16.7372 18.1499 16.0232 17.0655 16.0155C15.9043 16.0066 14.7418 16.0041 13.5793 15.999L13.5806 15.9977ZM21.1234 13.7219C21.1184 16.6545 23.4962 19.0664 26.3879 19.0626C29.3174 19.0588 31.6826 16.6646 31.6826 13.7015C31.6826 10.797 29.3124 8.39391 26.4383 8.38755C23.5 8.37991 21.1272 10.7613 21.1222 13.7232L21.1234 13.7219ZM31.6663 22.1479H20.403V23.6053H31.6663V22.1479ZM36.9484 25.9575H26.4358V27.4186H36.9484V25.9575ZM26.4144 35.0492H36.9358V33.5778H26.4144V35.0492ZM31.6726 29.7657H21.9055V31.2371H31.6726V29.7657ZM24.8778 25.9587H20.4018V27.4174H24.8778V25.9587ZM33.2078 23.6066H36.932V22.1454H33.2078V23.6066ZM36.9534 29.7657H33.2204V31.2358H36.9534V29.7657Z" fill="#D5F3F5"/>
<path d="M33.9471 0.791397C33.9471 2.2144 33.9546 3.60813 33.932 5.00314C33.9307 5.11642 33.733 5.23988 33.607 5.33152C33.5554 5.36971 33.4546 5.33788 33.3766 5.33788C28.7279 5.33788 24.0793 5.33152 19.432 5.34807C18.9823 5.34934 18.8388 5.23224 18.8501 4.76639C18.8803 3.45158 18.8602 2.13549 18.8602 0.791397H33.9471ZM23.403 3.77996H29.3854V2.32132H23.403V3.77996ZM21.8614 2.32005H20.4005V3.77996H21.8614V2.32005ZM30.966 2.30732V3.79142H32.4169V2.30732H30.966Z" fill="#FDDE7C"/>
<path d="M9.8186 22.1136C7.47855 22.1136 5.13849 22.1047 2.79844 22.1212C2.40046 22.1237 2.24429 22.0372 2.25436 21.5981C2.28333 20.3927 2.27199 19.1848 2.2594 17.9795C2.25562 17.6587 2.34126 17.5314 2.68257 17.5314C7.42565 17.5403 12.1687 17.5416 16.9118 17.5314C17.2745 17.5314 17.3627 17.6625 17.3589 18.0049C17.3425 19.2115 17.335 20.4182 17.3614 21.6248C17.3702 22.0448 17.2115 22.1237 16.84 22.1212C14.5 22.1072 12.1599 22.1148 9.81986 22.1148L9.8186 22.1136Z" fill="#FDDE7C"/>
<path d="M22.3022 43.241C20.5831 43.8685 18.6448 43.0653 17.7909 41.4285C16.976 39.8655 17.3526 37.7933 18.646 36.84C19.8614 38.9681 21.0755 41.0937 22.3022 43.241Z" fill="#FDDE7C"/>
<path d="M23.6159 42.4544C23.5567 42.364 23.4937 42.2762 23.4396 42.1833C22.2796 40.1531 21.1197 38.123 19.9597 36.0903C21.3073 35.389 23.3816 36.1272 24.3111 37.6177C25.2947 39.1947 24.9824 41.4056 23.6159 42.4544Z" fill="#FDDE7C"/>
<path d="M12.0705 32.7886C12.8161 32.7886 13.505 32.7835 14.1926 32.7899C14.8085 32.795 15.0818 33.0699 15.0856 33.6936C15.0919 34.6151 15.0919 35.5366 15.0856 36.4569C15.0818 37.0818 14.8098 37.3568 14.1939 37.3618C13.505 37.3682 12.8161 37.3631 12.0705 37.3631C12.0705 38.0721 12.073 38.7492 12.0705 39.4264C12.068 40.148 11.8161 40.4102 11.1158 40.4128C10.2355 40.4166 9.35637 40.4166 8.47602 40.4128C7.80473 40.409 7.54907 40.1429 7.54529 39.4505C7.54151 38.7709 7.54529 38.0924 7.54529 37.3644C6.8337 37.3644 6.16241 37.3669 5.49113 37.3644C4.78206 37.3618 4.53017 37.106 4.52765 36.3869C4.52513 35.4972 4.52387 34.6075 4.52765 33.7191C4.53143 33.0623 4.79592 32.795 5.44327 32.7912C6.11833 32.7861 6.7934 32.7912 7.54403 32.7912C7.54403 32.1179 7.54403 31.4585 7.54403 30.7992C7.54403 29.9783 7.77325 29.7428 8.56922 29.7415C9.41808 29.7415 10.2657 29.739 11.1146 29.7415C11.8161 29.7441 12.068 30.0037 12.0705 30.7267C12.073 31.3924 12.0705 32.058 12.0705 32.7912V32.7886ZM9.05284 31.2791C9.05284 31.9728 9.0541 32.6359 9.05284 33.3003C9.05033 34.0704 8.80599 34.3122 8.03017 34.3135C7.37526 34.3135 6.72035 34.3135 6.05788 34.3135V35.8383C6.72161 35.8383 7.36267 35.8383 8.00373 35.8383C8.82992 35.8383 9.05158 36.0674 9.05284 36.9202C9.05284 37.5668 9.05284 38.2121 9.05284 38.865H10.5176C10.5402 38.8294 10.5554 38.8167 10.5554 38.8039C10.5579 38.1523 10.5591 37.5019 10.5617 36.8502C10.5642 36.0789 10.806 35.8396 11.5831 35.8383C12.238 35.8383 12.8929 35.8383 13.5566 35.8383V34.3593C13.5214 34.3351 13.51 34.3198 13.4974 34.3198C12.8526 34.3173 12.209 34.316 11.5642 34.3135C10.8022 34.3109 10.5629 34.0653 10.5617 33.2799C10.5617 32.6181 10.5617 31.9562 10.5617 31.2791H9.05284Z" fill="#010101"/>
<path d="M21.1234 13.7219C21.1285 10.7613 23.5012 8.37991 26.4395 8.38627C29.3136 8.39264 31.6851 10.797 31.6839 13.7003C31.6839 16.6646 29.3186 19.0575 26.3892 19.0614C23.4962 19.0652 21.1196 16.6532 21.1247 13.7206L21.1234 13.7219ZM30.1738 13.7677C30.1902 11.6561 28.5151 9.92892 26.4345 9.91365C24.369 9.89838 22.6536 11.5874 22.6335 13.657C22.6121 15.794 24.2947 17.5289 26.3967 17.5378C28.4534 17.5467 30.1574 15.8462 30.1738 13.769V13.7677Z" fill="#020303"/>
<path d="M31.6663 22.1479V23.6053H20.4031V22.1479H31.6663Z" fill="black"/>
<path d="M36.9484 25.9574V27.4186H26.4358V25.9574H36.9484Z" fill="black"/>
<path d="M26.4143 35.0491V33.5778H36.9357V35.0491H26.4143Z" fill="black"/>
<path d="M31.6725 29.7657V31.2371H21.9055V29.7657H31.6725Z" fill="black"/>
<path d="M24.8778 25.9587V27.4174H20.4017V25.9587H24.8778Z" fill="black"/>
<path d="M33.2078 23.6066V22.1454H36.9319V23.6066H33.2078Z" fill="black"/>
<path d="M36.9535 29.7657V31.2358H33.2205V29.7657H36.9535Z" fill="black"/>
<path d="M23.4031 3.77996V2.32132H29.3854V3.77996H23.4031Z" fill="black"/>
<path d="M21.8615 2.32004V3.77995H20.4005V2.32004H21.8615Z" fill="black"/>
<path d="M30.9659 2.30731H32.4168V3.79141H30.9659V2.30731Z" fill="black"/>
<path d="M30.1738 13.7677C30.1575 15.8449 28.4547 17.5454 26.3968 17.5365C24.2947 17.5276 22.6109 15.7928 22.6335 13.6557C22.6549 11.5861 24.369 9.89709 26.4345 9.91236C28.5151 9.92764 30.1902 11.6548 30.1738 13.7664V13.7677ZM27.1411 12.9697V11.4716H25.6222V12.9786H24.165V14.497H25.6638V15.9786H27.1826V14.4716H28.6398V12.9697H27.1411Z" fill="#FDDE7C"/>
<path d="M27.1411 12.9697H28.6399V14.4716H27.1827V15.9786H25.6638V14.497H24.165V12.9786H25.6222V11.4716H27.1411V12.9697Z" fill="black"/>
</g>
</g>
<defs>
<clipPath id="clip0_213_1031">
<rect width="43" height="45" fill="white"/>
</clipPath>
<clipPath id="clip1_213_1031">
<rect width="42.2456" height="45.7627" fill="white" transform="translate(0.754395 -0.762711)"/>
</clipPath>
</defs>
</svg>
