<svg width="34" height="33" viewBox="0 0 34 33" fill="none" xmlns="http://www.w3.org/2000/svg">
<g clip-path="url(#clip0_125_81)">
<path d="M31.5519 18.8301C31.8735 18.9055 31.9635 19.115 31.9626 19.4229C31.9535 21.2199 31.9608 23.0161 31.9544 24.8131C31.9544 25.0057 31.9989 25.1291 32.1706 25.2507C33.7213 26.3502 34.3673 28.2555 33.7949 29.9931C33.199 31.8026 31.5247 32.9935 29.5597 32.9944C21.3218 32.9979 13.0839 32.9979 4.84597 32.9997C4.03017 32.9997 3.21437 33.0032 2.39858 32.9997C0.984107 32.9926 0.00387906 32.0368 0.0029706 30.656C0.00024522 22.4694 0.00024522 14.2838 0.00115368 6.09901C0.00115368 4.71195 0.960487 3.76506 2.38404 3.74199C2.89278 3.734 3.40152 3.74022 3.95295 3.74022C3.95295 3.24237 3.9366 2.75783 3.95659 2.27507C3.99383 1.38675 4.40718 0.698102 5.21299 0.282784C6.01788 -0.132533 6.83459 -0.090824 7.59587 0.402588C8.26087 0.832991 8.6188 1.45597 8.63879 2.24312C8.6515 2.72854 8.64151 3.21486 8.64151 3.72069H23.3159C23.3159 3.24237 23.3077 2.75783 23.3177 2.27418C23.3404 1.08946 24.2089 0.170081 25.438 0.0218797C26.5182 -0.108573 27.602 0.615571 27.9063 1.69025C27.9717 1.92187 27.9953 2.16946 28.0035 2.41173C28.0189 2.84213 28.008 3.27254 28.008 3.7411C28.4877 3.7411 28.9474 3.7411 29.408 3.7411C31.0278 3.74288 31.9589 4.65338 31.9598 6.23478C31.9598 9.30707 31.9571 12.3794 31.9635 15.4516C31.9635 15.7578 31.8781 15.9708 31.5538 16.0436C31.224 15.9868 31.1259 15.7844 31.1295 15.4729C31.1404 14.4 31.1341 13.3271 31.1341 12.2542C31.1341 11.9472 31.1341 11.6401 31.1341 11.3198H30.4663C30.3873 11.3153 30.3083 11.3082 30.2292 11.3082C20.5314 11.3082 10.8336 11.3082 1.13491 11.3082C1.03771 11.3082 0.941409 11.3206 0.82876 11.3286C0.82876 11.5088 0.82876 11.6623 0.82876 11.8158C0.833303 13.8889 0.837845 15.9619 0.842387 18.035C0.837845 18.09 0.82876 18.145 0.82876 18.2C0.82876 22.3576 0.826035 26.5161 0.829669 30.6737C0.830577 31.6011 1.45015 32.1797 2.43128 32.1806C10.5311 32.1824 18.6309 32.1815 26.7308 32.1806C26.8107 32.1806 26.8897 32.1673 27.0042 32.1566C25.0928 30.6072 24.9093 28.4667 25.6669 26.8977C26.0803 26.0414 26.7189 25.3811 27.5765 24.9356C28.7148 24.3446 29.9013 24.2869 31.1322 24.6951C31.1322 22.9061 31.1368 21.1543 31.1277 19.4025C31.1259 19.0901 31.224 18.8887 31.5519 18.8292V18.8301ZM4.85778 6.39097C5.0858 7.14529 5.73807 7.55705 6.54297 7.45677C7.24339 7.36892 7.80573 6.7557 7.813 6.02979C7.82571 4.77762 7.82844 3.52546 7.81027 2.27418C7.803 1.74527 7.56044 1.31664 7.06988 1.05041C5.95065 0.414124 4.77874 1.32197 4.80781 2.28305C4.84506 3.53167 4.81599 4.78206 4.81871 6.03156C4.81871 6.15136 4.84415 6.27117 4.85778 6.39097ZM26.4619 1.07349C25.498 0.468257 24.1335 1.07349 24.1389 2.39664C24.1444 3.56805 24.1371 4.73857 24.1435 5.90998C24.1435 6.07238 24.1925 6.2339 24.218 6.3963C24.2252 6.43889 24.2252 6.48504 24.2407 6.52497C24.5214 7.21628 25.2009 7.58102 25.9613 7.44968C26.6508 7.33076 27.1605 6.7211 27.1732 5.93306C27.1923 4.75011 27.1859 3.56628 27.175 2.38245C27.1705 1.83313 26.9706 1.36811 26.4619 1.07349ZM31.6928 25.9535C31.67 25.9295 31.6473 25.9065 31.6255 25.8825C30.3464 24.9099 28.346 25.0749 27.1323 26.2543C25.9095 27.4417 25.7342 29.3914 26.7335 30.6817C26.7489 30.7101 26.7607 30.7421 26.7798 30.7678C27.7828 32.1273 29.6905 32.5684 31.2358 31.799C32.7711 31.0349 33.5278 29.2609 32.9891 27.6591C32.752 26.9519 32.3659 26.3431 31.6909 25.9491L31.6928 25.9535ZM1.68453 4.71461C1.07314 4.96398 0.834211 5.45029 0.830577 6.05907C0.820584 7.46742 0.826943 8.87578 0.82876 10.2841C0.82876 10.3462 0.843296 10.4093 0.851472 10.4749H31.1204C31.1204 8.91482 31.1477 7.37513 31.1077 5.83721C31.0905 5.17253 30.5372 4.63563 29.9022 4.59304C29.2853 4.55133 28.6621 4.58416 28.0062 4.58416C28.0062 5.0616 28.0171 5.53637 28.0044 6.00938C27.9654 7.46742 26.6881 8.50394 25.2236 8.24836C24.3351 8.09306 23.7655 7.54108 23.4203 6.74594C23.3685 6.03156 23.3168 5.31718 23.2632 4.58239H8.64424C8.64424 4.95866 8.62698 5.3225 8.64787 5.68458C8.71146 6.78233 8.2536 7.58812 7.26883 8.1117C5.58455 8.7187 4.26637 7.68484 3.99474 6.46019V4.58061C3.30431 4.58061 2.69746 4.57263 2.09061 4.58682C1.95434 4.59037 1.81989 4.67024 1.68362 4.71461H1.68453Z" fill="#050504"/>
<path d="M31.5517 18.8304C31.2237 18.8899 31.1256 19.0913 31.1274 19.4037C31.1365 21.1555 31.132 22.9064 31.132 24.6963C29.901 24.2881 28.7146 24.3458 27.5763 24.9368C26.7187 25.3823 26.08 26.0425 25.6667 26.8989C24.909 28.4679 25.0925 30.6084 27.0039 32.1578C26.8895 32.1685 26.8104 32.1818 26.7305 32.1818C18.6307 32.1827 10.5308 32.1836 2.43101 32.1818C1.44987 32.1818 0.830302 31.6023 0.829394 30.6749C0.824852 26.5173 0.827577 22.3588 0.828485 18.2012C0.828485 18.1462 0.83757 18.0912 0.842112 18.0361C0.903888 18.108 0.980198 18.1728 1.02653 18.2536C1.399 18.9067 1.76329 19.5643 2.13848 20.2157C2.18845 20.3018 2.28838 20.3603 2.36469 20.4322C2.34561 21.1182 2.31472 21.8033 2.30927 22.4893C2.30201 23.414 2.85617 23.9429 3.80914 23.9482C4.46596 23.9518 5.12277 23.9589 5.77959 23.9633C5.80957 24.0192 5.82501 24.0964 5.87134 24.1292C6.86065 24.8206 7.89993 25.4276 9.02279 25.8899C9.28806 25.9991 9.57059 26.0683 9.84585 26.1561C9.75955 26.4925 9.62601 26.8261 9.59693 27.1669C9.55424 27.663 9.5824 28.1644 9.58694 28.6631C9.5933 29.4734 10.1402 30.0209 10.9687 30.0298C11.8753 30.0395 12.782 30.0386 13.6886 30.0298C14.5371 30.0227 15.0868 29.4769 15.0949 28.6498C15.1004 28.1289 15.1031 27.608 15.1067 27.0862C15.6891 27.064 16.2714 27.0418 16.8537 27.0196C16.8573 27.5734 16.8582 28.1271 16.8664 28.6809C16.8773 29.4538 17.4206 30.0138 18.201 30.0262C19.1521 30.0404 20.1033 30.0413 21.0544 30.0262C21.8166 30.0138 22.3626 29.4538 22.3735 28.7031C22.3808 28.1937 22.3562 27.6825 22.3799 27.174C22.4089 26.5484 22.1682 26.0807 21.624 25.7568C21.6903 25.6902 21.7467 25.6068 21.8257 25.5598C22.6333 25.0806 23.4491 24.6147 24.2504 24.1257C24.4203 24.0219 24.5411 23.8399 24.6837 23.6944C24.949 23.7778 25.2124 23.9251 25.4795 23.9331C26.428 23.9624 27.3791 23.9615 28.3275 23.9393C29.1088 23.9207 29.6439 23.3554 29.653 22.586C29.6593 22.0553 29.6557 21.5237 29.6539 20.9931C29.6512 20.1953 29.2905 19.748 28.4929 19.5492C28.6964 19.1126 28.9108 18.6795 29.0988 18.2367C29.2306 17.927 29.325 17.6022 29.4359 17.2836C29.5131 17.0458 29.5894 16.8088 29.6666 16.571C29.7502 16.4006 29.8638 16.2382 29.9137 16.0589C30.348 14.5077 30.5206 12.9263 30.4652 11.3201H31.1329C31.1329 11.6404 31.1329 11.9475 31.1329 12.2545C31.1329 13.3274 31.1401 14.4003 31.1283 15.4732C31.1247 15.7847 31.2228 15.9871 31.5526 16.0439C31.5526 16.973 31.5526 17.9021 31.5526 18.8313L31.5517 18.8304ZM5.06917 30.0315C5.06917 30.0315 5.06917 30.0315 5.06917 30.0307C5.5334 30.0307 5.99762 30.0395 6.46184 30.0289C7.24493 30.0103 7.79909 29.4645 7.81272 28.6977C7.82271 28.1218 7.82362 27.545 7.81272 26.969C7.79819 26.2254 7.24857 25.6583 6.48728 25.6414C5.53703 25.6192 4.58496 25.6201 3.63472 25.6414C2.85344 25.6592 2.31472 26.2262 2.30746 26.9956C2.30201 27.5494 2.30291 28.104 2.30746 28.6578C2.31382 29.4858 2.8598 30.02 3.71284 30.0315C4.16526 30.0378 4.61858 30.0324 5.07099 30.0324L5.06917 30.0315Z" fill="#F1EEEB"/>
<path d="M30.4634 11.3201C30.5188 12.9263 30.3462 14.5077 29.9119 16.0589C29.862 16.2382 29.7484 16.4006 29.6648 16.571C29.6612 15.9844 29.6594 15.3978 29.6521 14.8112C29.6421 14.0099 29.0834 13.4535 28.2667 13.4464C27.3619 13.4384 26.4571 13.4393 25.5513 13.4464C24.7174 13.4526 24.1523 14.0116 24.1441 14.829C24.1387 15.3605 24.1405 15.8921 24.1441 16.4237C24.1487 17.2898 24.7028 17.8365 25.5804 17.84C26.4062 17.8436 27.2329 17.8214 28.0578 17.8471C28.6183 17.8649 29.0753 17.7034 29.435 17.2836C29.3242 17.6022 29.2297 17.927 29.098 18.2367C28.9099 18.6795 28.6955 19.1126 28.492 19.5492C27.4973 19.5492 26.5016 19.5403 25.5068 19.5528C24.7065 19.5625 24.1559 20.1172 24.1441 20.9025C24.1369 21.3897 24.1614 21.8769 24.1378 22.3633C24.1123 22.8957 24.274 23.3394 24.6819 23.6944C24.5384 23.8399 24.4185 24.0219 24.2486 24.1257C23.4473 24.6147 22.6315 25.0806 21.8239 25.5598C21.7449 25.6068 21.6886 25.6902 21.6222 25.7568C21.3225 25.716 21.0227 25.6459 20.722 25.6397C19.9516 25.6228 19.1803 25.6334 18.4099 25.6343C17.4497 25.6352 16.9337 26.0949 16.8519 27.0205C16.2696 27.0427 15.6873 27.0649 15.105 27.0871C15.0377 26.0958 14.5344 25.6352 13.5179 25.6343C12.7375 25.6343 11.9562 25.6476 11.1768 25.6299C10.6472 25.6175 10.1993 25.7612 9.84498 26.1552C9.57063 26.0674 9.2881 25.9982 9.02192 25.889C7.89906 25.4276 6.85979 24.8206 5.87047 24.1284C5.82323 24.0955 5.8087 24.0192 5.77872 23.9624C5.99311 23.9571 6.20751 23.9526 6.42191 23.9464C7.2377 23.9234 7.80277 23.3714 7.81276 22.5754C7.82003 22.0438 7.81639 21.5122 7.81276 20.9798C7.80822 20.0914 7.26405 19.5554 6.35559 19.5501C5.51799 19.5457 4.67948 19.5661 3.84279 19.5439C3.13874 19.5253 2.64726 19.803 2.36109 20.4313C2.28478 20.3603 2.18485 20.3018 2.13489 20.2148C1.75969 19.5634 1.3954 18.9058 1.02293 18.2527C0.976603 18.1719 0.901201 18.1071 0.838517 18.0353C0.833975 15.9622 0.829432 13.8892 0.82489 11.8161C0.82489 11.6626 0.82489 11.5082 0.82489 11.3289C0.936631 11.321 1.03384 11.3085 1.13104 11.3085C10.8288 11.3076 20.5266 11.3085 30.2254 11.3085C30.3044 11.3085 30.3834 11.3165 30.4625 11.3201H30.4634ZM12.3523 17.8391C12.8275 17.8391 13.3035 17.848 13.7786 17.8374C14.4981 17.8214 15.0686 17.2756 15.0886 16.5701C15.1059 15.9613 15.1031 15.3508 15.0895 14.742C15.0741 14.0347 14.519 13.4676 13.7995 13.4517C12.8265 13.4313 11.8518 13.4313 10.8788 13.4517C10.1557 13.4668 9.60061 14.0338 9.58698 14.7376C9.57517 15.3357 9.57699 15.9347 9.58698 16.5328C9.59788 17.2721 10.1684 17.8258 10.926 17.8382C11.4012 17.8462 11.8772 17.84 12.3523 17.8382V17.8391ZM19.6173 17.84C20.0815 17.84 20.5457 17.8453 21.0099 17.8391C21.7903 17.8285 22.3608 17.2783 22.3717 16.5204C22.3799 15.9329 22.3808 15.3455 22.3717 14.7589C22.3599 14.0338 21.8048 13.4641 21.0663 13.4508C20.1042 13.433 19.1412 13.433 18.1792 13.4508C17.4424 13.4641 16.881 14.0321 16.8674 14.7544C16.8556 15.3526 16.8547 15.9516 16.8674 16.5497C16.8837 17.273 17.4533 17.824 18.191 17.8382C18.6661 17.848 19.1422 17.84 19.6173 17.8409V17.84ZM12.3351 19.5501C11.8599 19.5501 11.3839 19.5395 10.9088 19.5528C10.1448 19.5732 9.59697 20.1234 9.58698 20.8733C9.57971 21.4492 9.58062 22.026 9.58698 22.602C9.59516 23.3607 10.1493 23.9269 10.9324 23.942C11.8718 23.9597 12.812 23.9606 13.7514 23.942C14.5308 23.926 15.0832 23.3572 15.0932 22.5967C15.1004 22.0314 15.1004 21.4661 15.0932 20.9017C15.0841 20.1154 14.5317 19.5687 13.7277 19.5528C13.2635 19.543 12.7993 19.551 12.3351 19.5528V19.5501ZM19.6146 19.5483C19.1621 19.5483 18.7088 19.5421 18.2564 19.5492C17.4279 19.5625 16.8737 20.1039 16.8656 20.9079C16.8601 21.4616 16.8601 22.0163 16.8656 22.57C16.8728 23.3545 17.4215 23.926 18.2164 23.9411C19.1558 23.9589 20.096 23.9597 21.0354 23.9402C21.8167 23.9234 22.3645 23.3563 22.3726 22.5922C22.379 22.0269 22.379 21.4616 22.3726 20.8972C22.3645 20.1101 21.8139 19.5661 21.0072 19.5501C20.543 19.5412 20.0788 19.5483 19.6146 19.5483ZM5.07194 17.84C5.53616 17.84 6.00038 17.8462 6.46461 17.8382C7.20863 17.8267 7.7855 17.2925 7.80912 16.5692C7.82911 15.9498 7.83093 15.3277 7.80822 14.7083C7.78278 14.0161 7.22408 13.4668 6.51911 13.4517C5.54615 13.4313 4.57138 13.4313 3.59842 13.4517C2.87528 13.4668 2.32203 14.0329 2.30931 14.7385C2.29841 15.3366 2.29932 15.9356 2.30931 16.5337C2.32112 17.2756 2.88709 17.8267 3.64656 17.8391C4.12169 17.8471 4.59772 17.8409 5.07285 17.8409L5.07194 17.84Z" fill="#EDE7E3"/>
<path d="M23.4201 6.74537C23.7653 7.5405 24.3349 8.09337 25.2234 8.24779C26.6878 8.50337 27.9651 7.46685 28.0042 6.0088C28.0169 5.53491 28.006 5.06102 28.006 4.58359C28.6619 4.58359 29.2842 4.55075 29.9019 4.59246C30.536 4.63506 31.0902 5.17195 31.1075 5.83664C31.1474 7.37455 31.1202 8.91425 31.1202 10.4744H0.850306C0.84213 10.4087 0.827594 10.3466 0.827594 10.2836C0.826686 8.8752 0.820327 7.46685 0.829411 6.05849C0.833954 5.44972 1.07197 4.96341 1.68336 4.71315C2.45374 5.2953 3.2232 5.87657 3.99358 6.45873C4.2643 7.68338 5.58247 8.71724 7.26766 8.11023C8.99646 8.79711 10.8016 9.20533 12.6557 9.29052C13.9712 9.35086 15.3066 9.30915 16.613 9.15385C18.7579 8.89827 20.7892 8.21761 22.6978 7.21659C22.9513 7.08348 23.1793 6.90333 23.4192 6.74448L23.4201 6.74537Z" fill="#F9DC8C"/>
<path d="M23.4201 6.74536C23.1802 6.90421 22.9522 7.08436 22.6987 7.21747C20.7892 8.21938 18.7587 8.90004 16.6139 9.15473C15.3075 9.31003 13.9721 9.35263 12.6566 9.2914C10.8025 9.20532 8.99826 8.7971 7.26855 8.11111C8.25332 7.58842 8.71119 6.78174 8.6476 5.68399C8.6267 5.32192 8.64396 4.95807 8.64396 4.5818H23.262C23.3156 5.3166 23.3674 6.03098 23.4191 6.74536H23.4201Z" fill="#FAC943"/>
<path d="M26.7332 30.682C25.7339 29.3917 25.9092 27.442 27.132 26.2546C28.3457 25.0761 30.3461 24.9102 31.6253 25.8828C31.648 25.9068 31.6707 25.9298 31.6925 25.9538L31.6907 25.9494C31.7088 26.378 31.727 26.8066 31.7443 27.2361C31.4118 27.0028 31.271 27.0107 30.9821 27.2938C30.2798 27.9825 29.5812 28.6738 28.8181 29.4245C28.7136 29.287 28.6391 29.1743 28.5492 29.0749C28.4529 28.9666 28.3448 28.8672 28.2376 28.7687C27.9732 28.5256 27.7361 28.4963 27.5608 28.704C27.3646 28.9365 27.44 29.1521 27.6453 29.3473C27.8969 29.5869 28.1422 29.8328 28.3911 30.075C28.7854 30.4602 28.9253 30.4602 29.3178 30.0804C30.0818 29.3402 30.8467 28.6001 31.6107 27.8609C31.608 27.9381 31.6243 28.0206 31.5989 28.0899C31.29 28.9604 30.7822 29.6837 29.9755 30.1869C28.9671 30.816 27.8824 30.9571 26.7305 30.6812L26.7332 30.682Z" fill="#04AF8A"/>
<path d="M26.7332 30.682C27.8851 30.9571 28.9698 30.8169 29.9782 30.1877C30.784 29.6846 31.2919 28.9604 31.6016 28.0907C31.6262 28.0215 31.6098 27.9381 31.6135 27.8618C31.7752 27.6772 31.8615 27.4775 31.7461 27.237C31.7279 26.8084 31.7098 26.3798 31.6925 25.9503C32.3675 26.3443 32.7536 26.9531 32.9907 27.6603C33.5285 29.2621 32.7717 31.0361 31.2374 31.8002C29.6921 32.5696 27.7843 32.1285 26.7814 30.769C26.7623 30.7433 26.7505 30.7122 26.735 30.6829L26.7332 30.682Z" fill="#66CDB7"/>
<path d="M24.2186 6.39661C24.1923 6.23421 24.1451 6.07269 24.1441 5.91029C24.1378 4.73977 24.1441 3.56836 24.1396 2.39696C24.1342 1.0738 25.4987 0.468569 26.4625 1.0738C26.4816 1.74203 26.6024 2.42535 26.4998 3.07495C26.2736 4.50638 25.5087 5.63697 24.2195 6.39661H24.2186Z" fill="#333C54"/>
<path d="M4.85753 6.39127C4.8439 6.27147 4.81938 6.15167 4.81847 6.03187C4.81574 4.78236 4.84481 3.53197 4.80757 2.28336C4.7794 1.32227 5.95041 0.414429 7.06963 1.05072C7.11324 1.40125 7.195 1.75179 7.19318 2.10232C7.18046 3.92688 6.41826 5.36984 4.85753 6.39216V6.39127Z" fill="#333B53"/>
<path d="M4.85754 6.39128C6.41828 5.36985 7.18138 3.926 7.19319 2.10144C7.19592 1.75091 7.11325 1.40037 7.06964 1.04984C7.56112 1.31606 7.80277 1.74381 7.81004 2.2736C7.82821 3.52488 7.82457 4.77704 7.81276 6.02921C7.80549 6.75601 7.24225 7.36834 6.54274 7.4562C5.73784 7.55736 5.08557 7.14471 4.85754 6.39039V6.39128Z" fill="#838896"/>
<path d="M24.2186 6.3966C25.5077 5.63696 26.2726 4.50637 26.4989 3.07495C26.6015 2.42535 26.4816 1.74203 26.4616 1.07379C26.9703 1.36842 27.1702 1.83343 27.1747 2.38275C27.1857 3.56658 27.192 4.75042 27.1729 5.93336C27.1602 6.7214 26.6506 7.33107 25.961 7.44998C25.2007 7.58043 24.5211 7.21659 24.2404 6.52528C24.2241 6.48534 24.225 6.44009 24.2177 6.3966H24.2186Z" fill="#828794"/>
<path d="M3.99448 6.46049C3.2241 5.87834 2.45464 5.29707 1.68427 4.71492C1.81963 4.67054 1.95408 4.59067 2.09035 4.58712C2.6972 4.57293 3.30405 4.58091 3.99448 4.58091V6.46049Z" fill="#F9C943"/>
<path d="M31.6925 25.9538C31.6698 25.9298 31.6471 25.9068 31.6253 25.8828C31.648 25.9068 31.6707 25.9298 31.6925 25.9538Z" fill="#66CDB7"/>
<path d="M29.4341 17.2836C29.0743 17.7034 28.6183 17.8649 28.0569 17.8471C27.232 17.8205 26.4053 17.8427 25.5795 17.84C24.7019 17.8365 24.1487 17.2898 24.1432 16.4237C24.1405 15.8921 24.1387 15.3605 24.1432 14.829C24.1514 14.0116 24.7174 13.4526 25.5504 13.4463C26.4552 13.4392 27.3601 13.4392 28.2658 13.4463C29.0825 13.4534 29.6412 14.0099 29.6512 14.8112C29.6585 15.3978 29.6594 15.9844 29.6639 16.571C29.5867 16.8088 29.5104 17.0458 29.4332 17.2836H29.4341ZM26.9022 17.0333C27.3328 17.0333 27.7625 17.036 28.1931 17.0333C28.6419 17.0298 28.8254 16.847 28.8281 16.4024C28.8318 15.893 28.8327 15.3827 28.8281 14.8733C28.8245 14.4509 28.6374 14.2592 28.2095 14.2557C27.3373 14.2495 26.4661 14.2495 25.594 14.2557C25.168 14.2592 24.9772 14.4509 24.9717 14.8742C24.9654 15.3836 24.9663 15.8939 24.9717 16.4033C24.9763 16.8488 25.1634 17.0298 25.6122 17.0333C26.0428 17.0369 26.4725 17.0333 26.9031 17.0333H26.9022Z" fill="#020202"/>
<path d="M2.36288 20.4304C2.64814 19.8021 3.13961 19.5244 3.84458 19.543C4.68127 19.5652 5.51978 19.5448 6.35738 19.5492C7.26584 19.5545 7.81 20.0905 7.81455 20.9789C7.81727 21.5104 7.8209 22.0429 7.81455 22.5745C7.80364 23.3705 7.23949 23.9233 6.42369 23.9455C6.2093 23.9517 5.9949 23.9562 5.78051 23.9615C5.12369 23.9562 4.46687 23.95 3.81006 23.9464C2.85708 23.9411 2.30292 23.4122 2.31019 22.4875C2.31564 21.8015 2.34562 21.1164 2.36561 20.4304H2.36288ZM5.07736 20.3594C4.62494 20.3594 4.17162 20.355 3.71921 20.3603C3.32585 20.3656 3.13507 20.5476 3.13053 20.9309C3.12326 21.474 3.12326 22.0163 3.13053 22.5594C3.13507 22.9223 3.32312 23.122 3.69287 23.1264C4.59769 23.138 5.50343 23.1371 6.40916 23.1264C6.78344 23.122 6.97604 22.9303 6.98421 22.5682C6.99602 22.0145 6.99693 21.4607 6.98421 20.907C6.97513 20.544 6.77618 20.3656 6.40189 20.3603C5.96038 20.3541 5.51887 20.3585 5.07736 20.3585V20.3594Z" fill="#030304"/>
<path d="M9.84497 26.1544C10.1993 25.7603 10.6471 25.6175 11.1768 25.629C11.9571 25.6467 12.7375 25.6334 13.5179 25.6334C14.5344 25.6334 15.0377 26.0949 15.1049 27.0862C15.1013 27.6071 15.0986 28.128 15.0931 28.6498C15.084 29.4769 14.5353 30.0218 13.6868 30.0298C12.7802 30.0378 11.8736 30.0386 10.9669 30.0298C10.1384 30.0209 9.59241 29.4733 9.58515 28.6631C9.5806 28.1644 9.55244 27.6621 9.59514 27.1669C9.62421 26.8253 9.75775 26.4925 9.84406 26.1561L9.84497 26.1544ZM12.3169 29.2213C12.7693 29.2213 13.2226 29.2258 13.675 29.2204C14.0666 29.216 14.2601 29.0341 14.2664 28.6489C14.2755 28.1058 14.2764 27.5636 14.2664 27.0205C14.2601 26.6575 14.0693 26.4587 13.6996 26.4543C12.7938 26.4428 11.889 26.4428 10.9833 26.4543C10.5954 26.4587 10.4146 26.6575 10.41 27.0462C10.4037 27.5671 10.4046 28.0872 10.41 28.6081C10.4137 29.035 10.5981 29.2169 11.0269 29.2204C11.4566 29.2249 11.8872 29.2213 12.3169 29.2204V29.2213Z" fill="#030303"/>
<path d="M24.6829 23.6944C24.275 23.3394 24.1132 22.8957 24.1387 22.3633C24.1614 21.8769 24.1387 21.3897 24.145 20.9025C24.1559 20.1163 24.7065 19.5625 25.5077 19.5528C26.5025 19.5403 27.4973 19.5492 28.4929 19.5492C29.2906 19.748 29.6512 20.1953 29.6539 20.9931C29.6558 21.5237 29.6594 22.0553 29.653 22.586C29.6439 23.3554 29.1098 23.9207 28.3276 23.9393C27.3783 23.9615 26.428 23.9624 25.4796 23.9331C25.2116 23.9251 24.949 23.7778 24.6838 23.6944H24.6829ZM26.9267 20.3594C26.4743 20.3594 26.021 20.355 25.5686 20.3603C25.1752 20.3648 24.9808 20.544 24.9736 20.9274C24.9627 21.4696 24.9627 22.0127 24.9736 22.5558C24.9808 22.9241 25.1671 23.1211 25.5359 23.1256C26.4407 23.1371 27.3465 23.1371 28.2522 23.1256C28.6419 23.1211 28.8236 22.9232 28.8281 22.5372C28.8336 22.0056 28.8345 21.4741 28.8281 20.9425C28.8236 20.5414 28.6337 20.3639 28.2177 20.3594C27.788 20.355 27.3574 20.3586 26.9277 20.3586L26.9267 20.3594Z" fill="#030304"/>
<path d="M5.06923 30.0316C4.61682 30.0316 4.1635 30.0369 3.71108 30.0307C2.85895 30.0191 2.31206 29.484 2.3057 28.6569C2.30115 28.1032 2.30025 27.5485 2.3057 26.9948C2.31387 26.2263 2.85259 25.6583 3.63296 25.6405C4.5832 25.6192 5.53527 25.6192 6.48552 25.6405C7.24681 25.6583 7.79642 26.2245 7.81096 26.9681C7.82186 27.5441 7.82095 28.1209 7.81096 28.6969C7.79824 29.4636 7.24317 30.0094 6.46008 30.028C5.99586 30.0387 5.53163 30.0298 5.06741 30.0298C5.06741 30.0298 5.06741 30.0298 5.06741 30.0307L5.06923 30.0316ZM5.03925 29.2213C5.48076 29.2213 5.92227 29.224 6.36378 29.2213C6.78349 29.2178 6.9779 29.0447 6.98517 28.6454C6.99516 28.1032 6.99607 27.5601 6.98517 27.017C6.9779 26.6513 6.78803 26.4588 6.41466 26.4543C5.50983 26.4437 4.6041 26.4437 3.69836 26.4543C3.3259 26.4588 3.13694 26.6558 3.13149 27.017C3.12331 27.5601 3.12422 28.1023 3.13149 28.6454C3.13603 29.0314 3.32499 29.2151 3.71563 29.2204C4.15714 29.2267 4.59865 29.2222 5.04016 29.2222L5.03925 29.2213Z" fill="#030304"/>
<path d="M16.8528 27.0196C16.9346 26.094 17.4506 25.6352 18.4109 25.6334C19.1812 25.6325 19.9525 25.6219 20.7229 25.6388C21.0236 25.645 21.3234 25.7151 21.6232 25.7559C22.1664 26.0789 22.4081 26.5475 22.379 27.1731C22.3554 27.6816 22.379 28.1928 22.3726 28.7022C22.3617 29.4538 21.8167 30.0129 21.0536 30.0253C20.1024 30.0413 19.1512 30.0404 18.2001 30.0253C17.4206 30.0138 16.8765 29.4529 16.8656 28.68C16.8583 28.1262 16.8574 27.5725 16.8528 27.0187V27.0196ZM19.62 29.2213C20.0615 29.2213 20.503 29.2249 20.9445 29.2204C21.3561 29.216 21.5432 29.035 21.5487 28.6285C21.555 28.0969 21.5559 27.5645 21.5487 27.0329C21.5432 26.6522 21.3534 26.457 20.9618 26.4525C20.0679 26.4428 19.1731 26.4428 18.2791 26.4525C17.8885 26.457 17.6977 26.6522 17.6914 27.0329C17.6832 27.5645 17.6841 28.0969 17.6914 28.6285C17.6968 29.0341 17.8858 29.216 18.2964 29.2204C18.7379 29.2249 19.1794 29.2213 19.6209 29.2213H19.62Z" fill="#030303"/>
<path d="M12.3523 17.8391C11.8772 17.8391 11.4012 17.8462 10.926 17.8382C10.1684 17.8258 9.59788 17.2721 9.58698 16.5328C9.57789 15.9347 9.57608 15.3357 9.58698 14.7376C9.6006 14.0329 10.1557 13.4659 10.8788 13.4517C11.8518 13.4313 12.8265 13.4313 13.7995 13.4517C14.519 13.4668 15.0741 14.0347 15.0895 14.742C15.1031 15.3508 15.105 15.9613 15.0886 16.5701C15.0686 17.2756 14.4981 17.8214 13.7786 17.8374C13.3035 17.848 12.8275 17.8391 12.3523 17.84V17.8391ZM12.3378 17.0333C12.7684 17.0333 13.1981 17.036 13.6287 17.0333C14.0611 17.0298 14.2619 16.847 14.2674 16.4352C14.2746 15.9036 14.2755 15.3712 14.2674 14.8396C14.261 14.4607 14.063 14.2601 13.6796 14.2566C12.7848 14.2477 11.8908 14.2477 10.996 14.2566C10.6099 14.2601 10.4164 14.4607 10.411 14.8405C10.4037 15.3721 10.4046 15.9045 10.411 16.4361C10.4155 16.839 10.6081 17.0271 11.0142 17.0325C11.4557 17.0378 11.8972 17.0333 12.3387 17.0342L12.3378 17.0333Z" fill="#020202"/>
<path d="M19.6172 17.84C19.1421 17.84 18.6661 17.8471 18.191 17.8382C17.4542 17.824 16.8837 17.2721 16.8673 16.5497C16.8537 15.9516 16.8555 15.3525 16.8673 14.7544C16.881 14.0321 17.4424 13.4641 18.1792 13.4508C19.1412 13.4339 20.1042 13.433 21.0662 13.4508C21.8048 13.465 22.3599 14.0347 22.3717 14.7589C22.3808 15.3463 22.3808 15.9338 22.3717 16.5204C22.3608 17.2783 21.7903 17.8285 21.0099 17.8391C20.5457 17.8453 20.0815 17.84 19.6172 17.8391V17.84ZM19.6063 17.0333C20.0479 17.0333 20.4894 17.0369 20.9309 17.0325C21.3433 17.028 21.5423 16.8434 21.5477 16.4485C21.555 15.917 21.555 15.3845 21.5477 14.8529C21.5423 14.4545 21.3488 14.2583 20.9409 14.2548C20.0578 14.2477 19.1748 14.2468 18.2909 14.2548C17.8993 14.2583 17.6977 14.4518 17.6904 14.8254C17.6804 15.3685 17.6813 15.9116 17.6904 16.4547C17.6968 16.8354 17.8957 17.0254 18.2809 17.0316C18.7224 17.0387 19.1639 17.0333 19.6054 17.0333H19.6063Z" fill="#020202"/>
<path d="M12.3351 19.5492C12.7993 19.5492 13.2635 19.5412 13.7277 19.5501C14.5317 19.5661 15.0841 20.1136 15.0931 20.899C15.0995 21.4643 15.1004 22.0296 15.0931 22.594C15.0831 23.3554 14.5308 23.9234 13.7513 23.9393C12.812 23.9589 11.8717 23.958 10.9324 23.9393C10.1493 23.9243 9.59605 23.359 9.58696 22.5993C9.5806 22.0234 9.5797 21.4465 9.58696 20.8706C9.59696 20.1207 10.1448 19.5714 10.9088 19.5501C11.3839 19.5368 11.8599 19.5474 12.3351 19.5474V19.5492ZM12.3432 20.3594C11.9017 20.3594 11.4602 20.3559 11.0187 20.3603C10.6053 20.3648 10.4155 20.5449 10.41 20.9469C10.4037 21.4678 10.4046 21.9879 10.41 22.5088C10.4137 22.9348 10.5954 23.1247 11.026 23.1282C11.8972 23.1362 12.7693 23.1353 13.6405 23.1282C14.0748 23.1247 14.2628 22.9374 14.2683 22.5177C14.2746 21.9968 14.2755 21.4758 14.2683 20.9558C14.2628 20.5369 14.072 20.3621 13.6342 20.3586C13.2044 20.355 12.7738 20.3586 12.3441 20.3586L12.3432 20.3594Z" fill="#030303"/>
<path d="M19.6145 19.5492C20.0788 19.5492 20.543 19.5421 21.0072 19.551C21.8139 19.567 22.3644 20.111 22.3726 20.8981C22.3781 21.4634 22.379 22.0287 22.3726 22.5931C22.3644 23.3563 21.8166 23.9242 21.0354 23.9411C20.096 23.9606 19.1558 23.9597 18.2164 23.942C17.4206 23.9269 16.8728 23.3554 16.8655 22.5709C16.8601 22.0172 16.8601 21.4625 16.8655 20.9088C16.8737 20.1047 17.4279 19.5643 18.2564 19.5501C18.7088 19.543 19.1621 19.5492 19.6145 19.5492ZM19.6509 20.3594C19.1985 20.3594 18.7451 20.3559 18.2927 20.3603C17.8966 20.3648 17.6986 20.5431 17.6913 20.9212C17.6813 21.4643 17.6822 22.0074 17.6913 22.5496C17.6968 22.9188 17.8812 23.1202 18.2482 23.1256C19.1648 23.138 20.0824 23.1371 20.999 23.1256C21.3497 23.1211 21.5414 22.9206 21.5477 22.578C21.5577 22.0243 21.5577 21.4705 21.5477 20.9159C21.5414 20.552 21.3461 20.3665 20.9763 20.3612C20.5348 20.3541 20.0933 20.3594 19.6518 20.3594H19.6509Z" fill="#030303"/>
<path d="M5.0719 17.84C4.59678 17.84 4.12074 17.8462 3.64562 17.8382C2.88615 17.8258 2.31927 17.2756 2.30837 16.5328C2.29928 15.9347 2.29837 15.3357 2.30837 14.7376C2.32109 14.0321 2.87434 13.4659 3.59747 13.4508C4.57043 13.4313 5.54521 13.4313 6.51817 13.4508C7.22313 13.465 7.78183 14.0143 7.80727 14.7074C7.82998 15.3268 7.82907 15.9489 7.80818 16.5683C7.78456 17.2925 7.20678 17.8258 6.46366 17.8374C5.99944 17.8445 5.53521 17.8391 5.07099 17.8382L5.0719 17.84ZM5.06463 17.0333C5.50614 17.0333 5.94766 17.0387 6.38917 17.0316C6.77799 17.0262 6.97694 16.8399 6.98421 16.4592C6.99511 15.9161 6.99511 15.373 6.98421 14.8299C6.97694 14.4527 6.77526 14.2583 6.38735 14.2548C5.50433 14.2468 4.6213 14.2477 3.73828 14.2548C3.32675 14.2583 3.13416 14.4509 3.12961 14.8485C3.12416 15.3801 3.12325 15.9125 3.12961 16.4441C3.13416 16.8425 3.32766 17.028 3.73919 17.0325C4.1807 17.0378 4.62221 17.0333 5.06372 17.0333H5.06463Z" fill="#020202"/>
<path d="M31.7443 27.2361C31.8606 27.4766 31.7734 27.6763 31.6117 27.8609C30.8477 28.601 30.0828 29.3402 29.3187 30.0803C28.9263 30.4602 28.7864 30.4593 28.3921 30.075C28.1432 29.8328 27.8979 29.5869 27.6463 29.3473C27.441 29.1521 27.3665 28.9365 27.5618 28.7039C27.7371 28.4954 27.9742 28.5256 28.2386 28.7687C28.3458 28.8672 28.453 28.9666 28.5502 29.0749C28.6392 29.1752 28.7146 29.287 28.8191 29.4245C29.5813 28.6729 30.2808 27.9816 30.983 27.2938C31.2719 27.0107 31.4127 27.0036 31.7452 27.2361H31.7443Z" fill="#000605"/>
<path d="M26.9022 17.0333C26.4716 17.0333 26.0419 17.036 25.6113 17.0333C25.1625 17.0298 24.9753 16.8479 24.9708 16.4033C24.9654 15.8939 24.9644 15.3836 24.9708 14.8742C24.9763 14.4509 25.167 14.2583 25.5931 14.2557C26.4652 14.2495 27.3364 14.2495 28.2086 14.2557C28.6373 14.2592 28.8236 14.4509 28.8272 14.8733C28.8318 15.3827 28.8308 15.893 28.8272 16.4024C28.8245 16.847 28.6401 17.0298 28.1922 17.0333C27.7616 17.0369 27.3319 17.0333 26.9013 17.0333H26.9022Z" fill="#63CAF4"/>
<path d="M5.0774 20.3594C5.51891 20.3594 5.96042 20.355 6.40194 20.3612C6.77622 20.3665 6.97517 20.544 6.98426 20.9079C6.99698 21.4616 6.99607 22.0154 6.98426 22.5691C6.97608 22.9321 6.78349 23.1238 6.4092 23.1273C5.50438 23.138 4.59864 23.138 3.69291 23.1273C3.32317 23.1229 3.13512 22.9232 3.13057 22.5603C3.12331 22.0172 3.12331 21.4749 3.13057 20.9318C3.13512 20.5485 3.32589 20.3665 3.71925 20.3612C4.17167 20.3559 4.62499 20.3603 5.0774 20.3594Z" fill="#63CAF3"/>
<path d="M12.3169 29.2213C11.8872 29.2213 11.4566 29.2249 11.0268 29.2204C10.5971 29.216 10.4136 29.035 10.41 28.6081C10.4055 28.0872 10.4046 27.5671 10.41 27.0462C10.4145 26.6575 10.5962 26.4587 10.9832 26.4543C11.889 26.4437 12.7947 26.4437 13.6995 26.4543C14.0693 26.4587 14.2601 26.6575 14.2664 27.0205C14.2764 27.5627 14.2755 28.1058 14.2664 28.6489C14.2601 29.0332 14.0666 29.2151 13.675 29.2204C13.2226 29.2258 12.7693 29.2213 12.3169 29.2213Z" fill="#63CAF3"/>
<path d="M26.9267 20.3594C27.3564 20.3594 27.787 20.3559 28.2167 20.3603C28.6337 20.3648 28.8227 20.5431 28.8272 20.9434C28.8336 21.4749 28.8336 22.0065 28.8272 22.5381C28.8227 22.925 28.641 23.122 28.2513 23.1264C27.3464 23.1371 26.4407 23.1371 25.535 23.1264C25.1661 23.122 24.979 22.925 24.9726 22.5567C24.9626 22.0145 24.9617 21.4714 24.9726 20.9283C24.9799 20.5449 25.1752 20.3657 25.5677 20.3612C26.0201 20.3559 26.4734 20.3603 26.9258 20.3603L26.9267 20.3594Z" fill="#63CAF3"/>
<path d="M5.03922 29.2204C4.59771 29.2204 4.15619 29.2249 3.71468 29.2187C3.32314 29.2133 3.13509 29.0296 3.13054 28.6436C3.12418 28.1005 3.12328 27.5583 3.13054 27.0152C3.13599 26.654 3.32495 26.457 3.69742 26.4525C4.60225 26.4419 5.50798 26.4419 6.41372 26.4525C6.78709 26.457 6.97696 26.6495 6.98423 27.0152C6.99604 27.5574 6.99513 28.1005 6.98423 28.6436C6.97696 29.0429 6.78164 29.216 6.36284 29.2195C5.92133 29.2231 5.47982 29.2195 5.03831 29.2195L5.03922 29.2204Z" fill="#63CAF3"/>
<path d="M19.62 29.2213C19.1785 29.2213 18.737 29.2249 18.2955 29.2204C17.8857 29.216 17.6959 29.0341 17.6904 28.6285C17.6832 28.097 17.6823 27.5645 17.6904 27.0329C17.6968 26.6522 17.8867 26.457 18.2782 26.4525C19.1721 26.4428 20.067 26.4428 20.9609 26.4525C21.3524 26.457 21.5423 26.6513 21.5477 27.0329C21.555 27.5645 21.5541 28.097 21.5477 28.6285C21.5432 29.035 21.3561 29.216 20.9436 29.2204C20.5021 29.2258 20.0606 29.2213 19.6191 29.2213H19.62Z" fill="#63CAF3"/>
<path d="M12.3378 17.0334C11.8963 17.0334 11.4548 17.0378 11.0132 17.0325C10.6072 17.0271 10.4146 16.8381 10.41 16.4361C10.4037 15.9045 10.4028 15.3721 10.41 14.8405C10.4155 14.4607 10.609 14.2601 10.9951 14.2566C11.8899 14.2477 12.7838 14.2477 13.6787 14.2566C14.0629 14.2601 14.2601 14.4616 14.2664 14.8396C14.2755 15.3712 14.2746 15.9037 14.2664 16.4352C14.261 16.847 14.0602 17.0298 13.6278 17.0334C13.1972 17.0369 12.7675 17.0334 12.3369 17.0334H12.3378Z" fill="#63CAF4"/>
<path d="M19.6064 17.0333C19.1649 17.0333 18.7234 17.0387 18.2819 17.0316C17.8967 17.0254 17.6977 16.8354 17.6914 16.4547C17.6823 15.9116 17.6814 15.3685 17.6914 14.8254C17.6986 14.4518 17.9003 14.2575 18.2919 14.2548C19.1749 14.2468 20.0579 14.2468 20.9418 14.2548C21.3497 14.2583 21.5432 14.4545 21.5487 14.8529C21.555 15.3845 21.5559 15.917 21.5487 16.4485C21.5432 16.8434 21.3443 17.028 20.9318 17.0325C20.4903 17.0369 20.0488 17.0333 19.6073 17.0333H19.6064Z" fill="#63CAF4"/>
<path d="M12.3433 20.3594C12.773 20.3594 13.2036 20.3568 13.6333 20.3594C14.0721 20.363 14.2619 20.5378 14.2674 20.9567C14.2746 21.4776 14.2737 21.9985 14.2674 22.5186C14.2619 22.9374 14.0739 23.1256 13.6396 23.1291C12.7684 23.1362 11.8963 23.1371 11.0251 23.1291C10.5936 23.1256 10.4128 22.9357 10.4091 22.5097C10.4046 21.9888 10.4028 21.4678 10.4091 20.9478C10.4146 20.5458 10.6045 20.3648 11.0178 20.3612C11.4593 20.3568 11.9008 20.3603 12.3423 20.3603L12.3433 20.3594Z" fill="#63CAF3"/>
<path d="M19.6509 20.3594C20.0924 20.3594 20.5339 20.3541 20.9754 20.3612C21.3452 20.3674 21.5405 20.5529 21.5468 20.9159C21.5559 21.4696 21.5568 22.0243 21.5468 22.578C21.5405 22.9206 21.3488 23.1211 20.9981 23.1256C20.0815 23.138 19.1639 23.138 18.2473 23.1256C17.8812 23.1211 17.6968 22.9188 17.6904 22.5496C17.6822 22.0065 17.6804 21.4634 17.6904 20.9212C17.6977 20.5431 17.8957 20.3639 18.2918 20.3603C18.7442 20.355 19.1976 20.3594 19.65 20.3594H19.6509Z" fill="#63CAF3"/>
<path d="M5.06467 17.0334C4.62316 17.0334 4.18165 17.0369 3.74014 17.0325C3.32861 17.028 3.13511 16.8426 3.13056 16.4441C3.1242 15.9125 3.1242 15.3801 3.13056 14.8485C3.13511 14.4509 3.3277 14.2584 3.73923 14.2548C4.62225 14.2477 5.50528 14.2468 6.3883 14.2548C6.77621 14.2584 6.97698 14.4536 6.98516 14.8299C6.99606 15.373 6.99606 15.9161 6.98516 16.4592C6.97789 16.8408 6.77803 17.0263 6.39012 17.0316C5.9486 17.0378 5.50709 17.0334 5.06558 17.0334H5.06467Z" fill="#63CAF4"/>
</g>
<defs>
<clipPath id="clip0_125_81">
<rect width="34" height="33" fill="white"/>
</clipPath>
</defs>
</svg>
