<svg width="37" height="37" viewBox="0 0 37 37" fill="none" xmlns="http://www.w3.org/2000/svg">
<g clip-path="url(#clip0_122_23)">
<path d="M33.53 -0.000141011C33.5681 0.0220598 33.6024 0.0548783 33.6435 0.0645308C34.962 0.384029 35.6962 1.7238 35.2332 2.98345C35.101 3.34252 34.9376 3.69098 34.78 4.06646C35.1226 4.20932 35.4211 4.38113 35.3722 4.82032C35.3663 4.87245 35.4818 4.96028 35.5582 4.99503C35.845 5.12631 36.1396 5.24117 36.4303 5.36279C37.0284 5.61376 37.1224 5.84252 36.8669 6.42746C35.8136 8.84059 34.7604 11.2537 33.7081 13.6668C33.3185 14.5597 32.9289 15.4516 32.5433 16.3454C32.4356 16.5954 32.2829 16.7788 31.9814 16.7817C31.5341 16.7875 31.2864 16.3879 31.4792 15.94C32.002 14.7257 32.5354 13.5153 33.064 12.3029C33.9323 10.3097 34.8005 8.3155 35.6844 6.28557C35.4211 6.17264 35.1696 6.06453 34.8886 5.94387C34.455 6.93229 34.0302 7.89754 33.6073 8.86279C31.6633 13.301 29.7202 17.7392 27.7772 22.1775C27.7292 22.2865 27.694 22.4014 27.6529 22.5134C27.4258 23.0153 27.1918 23.5153 26.9716 24.0201C26.3921 25.3522 25.8185 26.6862 25.2419 28.0201C24.8749 28.8425 24.5146 29.6678 24.1348 30.4834C24.0409 30.6852 23.9077 30.885 23.7462 31.0375C22.6773 32.0433 21.5927 33.0327 20.5209 34.0356C20.0902 34.439 19.6135 34.5935 19.0536 34.3474C18.4966 34.1031 18.2852 33.6543 18.2881 33.0694C18.2959 31.6369 18.2812 30.2035 18.294 28.7711C18.2959 28.5269 18.3468 28.2663 18.4437 28.0423C20.0569 24.3367 21.6828 20.6369 23.3018 16.9342C23.9616 15.4255 24.6115 13.912 25.2654 12.4004C25.8596 11.0607 26.4557 9.72187 27.044 8.38017C27.0851 8.28654 27.0783 8.16878 27.0783 8.0626C27.0802 6.35314 27.0822 4.64465 27.0783 2.93519C27.0763 1.86955 26.3911 1.16781 25.3163 1.13017C25.0736 1.12148 24.8298 1.14175 24.5871 1.14851C24.5029 1.14079 24.4177 1.12631 24.3335 1.12631C17.2358 1.12534 10.1391 1.12438 3.04134 1.12824C2.82403 1.12824 2.59792 1.14272 2.38942 1.19967C1.58675 1.42071 1.13843 2.08287 1.13843 3.01723C1.13843 12.0501 1.13843 21.0829 1.13843 30.1157C1.13843 31.441 1.13941 32.7653 1.13843 34.0906C1.13843 34.6533 1.34008 35.1224 1.77763 35.4883C2.18777 35.8309 2.6772 35.8773 3.18817 35.8773C10.188 35.8744 17.1879 35.8753 24.1867 35.8744C24.3198 35.8744 24.4539 35.8599 24.5871 35.8522C24.7447 35.8599 24.9023 35.8734 25.0599 35.8734C26.4215 35.8734 27.0783 35.2238 27.0783 33.8821C27.0783 31.414 27.0783 28.9458 27.0783 26.4777C27.0783 25.9738 27.182 25.8425 27.6666 25.719C28.0679 25.8001 28.2235 26.051 28.2235 26.4448C28.2186 28.9854 28.2324 31.5259 28.2167 34.0665C28.2059 35.8165 26.9765 36.9989 25.2038 36.9999C17.8271 37.0018 10.4513 37.0008 3.07462 36.9999C1.20793 36.9999 0.00491121 35.8232 0.00295349 33.9806C-0.00194082 29.7663 0.000995765 25.552 0.000995765 21.3377C0.000995765 15.245 0.000995765 9.15237 0.000995765 3.0597C0.00197463 1.68326 0.635298 0.674569 1.78057 0.21511C1.97732 0.135959 2.17994 0.0712876 2.37963 -0.000141011C10.1733 -0.000141011 17.967 -0.000141011 25.7607 -0.000141011C25.7735 0.0181988 25.7842 0.050052 25.8009 0.0529478C27.3191 0.357967 28.1991 1.40237 28.2196 2.93905C28.2294 3.70835 28.2196 4.47669 28.2226 5.246C28.2226 5.32901 28.2421 5.41202 28.2549 5.50951C28.2989 5.48152 28.3116 5.47862 28.3156 5.4709C28.664 4.68036 29.0135 3.88982 29.359 3.09735C29.5225 2.7238 29.7741 2.38789 30.194 2.3821C30.6462 2.37534 30.7519 2.10604 30.8723 1.79136C30.9193 1.66878 30.9781 1.55005 31.0299 1.42747C31.3011 0.779782 31.77 0.341558 32.4454 0.11762C32.5188 0.0934883 32.5824 0.0394343 32.6509 -0.00110626C32.9446 -0.00110626 33.2373 -0.00110626 33.5309 -0.00110626L33.53 -0.000141011ZM33.759 1.34252C33.2402 0.996963 32.5805 1.07322 32.2565 1.57322C32.0215 1.93615 31.8718 2.35314 31.674 2.76723C32.23 2.99117 32.7312 3.19387 33.2334 3.39561C33.391 3.47187 33.5495 3.54716 33.7199 3.6292C33.8794 3.2653 34.039 2.94291 34.1652 2.607C34.3493 2.11955 34.1966 1.67553 33.759 1.34156V1.34252ZM21.163 30.108C20.6031 29.8638 20.0432 29.6196 19.4569 29.3647V33.3194C19.4941 33.3358 19.5312 33.3522 19.5675 33.3695C20.5326 32.4757 21.4988 31.5819 22.4982 30.6562C22.0146 30.4584 21.5888 30.2836 21.162 30.1089L21.163 30.108ZM28.1775 14.8937C28.6024 15.0858 29.0282 15.2779 29.4677 15.4757C31.0074 11.9603 32.5286 8.48538 34.0585 4.99117C33.5916 4.80005 33.1658 4.62534 32.74 4.44967C31.9863 4.12148 31.2326 3.79426 30.4505 3.45449C28.9156 6.95739 27.3944 10.4323 25.8567 13.9419C26.6544 14.2692 27.416 14.5809 28.1775 14.8937ZM21.8521 29.1379C22.3014 29.3377 22.7507 29.5375 23.2167 29.7441C25.1607 25.3049 27.0822 20.9188 29.0174 16.4999C28.5495 16.3087 28.112 16.1311 27.6754 15.9526C26.9324 15.6282 26.1904 15.3029 25.4113 14.9622C23.4731 19.3879 21.5506 23.7788 19.6086 28.2122C20.3789 28.5298 21.116 28.8338 21.8531 29.1379H21.8521Z" fill="#030404"/>
<path d="M25.2409 28.0203C25.8175 26.6873 26.3911 25.3523 26.9706 24.0203C27.1908 23.5154 27.4238 23.0154 27.6519 22.5135C27.6567 23.582 27.6616 24.6506 27.6665 25.7181C27.182 25.8417 27.0782 25.972 27.0782 26.4768C27.0782 28.945 27.0782 31.4131 27.0782 33.8813C27.0782 35.223 26.4214 35.8716 25.0598 35.8726C24.9022 35.8726 24.7446 35.8581 24.587 35.8513C25.1744 35.2326 25.3163 34.4662 25.3182 33.6612C25.3241 31.9324 25.3222 30.2037 25.3163 28.4749C25.3163 28.3234 25.2673 28.1718 25.2409 28.0203Z" fill="#C7EDFC"/>
<path d="M25.2409 28.0203C25.2674 28.1718 25.3153 28.3234 25.3163 28.4749C25.3212 30.2037 25.3242 31.9324 25.3183 33.6612C25.3153 34.4662 25.1734 35.2326 24.5871 35.8514C24.4539 35.8591 24.3198 35.8736 24.1867 35.8736C17.1869 35.8745 10.187 35.8736 3.18817 35.8764C2.6772 35.8764 2.18777 35.8301 1.77763 35.4874C1.34008 35.1216 1.13745 34.6525 1.13843 34.0898C1.14039 32.7645 1.13843 31.4402 1.13843 30.1149C1.13843 21.082 1.13843 12.0492 1.13843 3.01641C1.13843 2.08205 1.58675 1.41988 2.38942 1.19884C2.59694 1.14189 2.82305 1.12741 3.04134 1.12741C10.1391 1.12355 17.2358 1.12452 24.3335 1.12548C24.4177 1.12548 24.5029 1.13996 24.5871 1.14768C25.0853 1.71911 25.2791 2.36583 25.2635 3.1332C25.2223 5.05598 25.2478 6.97973 25.2507 8.90347C25.2527 10.0695 25.2605 11.2355 25.2654 12.4006C24.6115 13.9122 23.9616 15.4257 23.3018 16.9344C21.6828 20.6371 20.0569 24.3369 18.4437 28.0425C18.3468 28.2664 18.2959 28.527 18.294 28.7712C18.2812 30.2037 18.2949 31.6371 18.2881 33.0695C18.2852 33.6554 18.4966 34.1033 19.0536 34.3475C19.6135 34.5927 20.0902 34.4392 20.5209 34.0357C21.5927 33.0328 22.6773 32.0434 23.7462 31.0376C23.9077 30.8851 24.0409 30.6853 24.1348 30.4836C24.5146 29.667 24.8749 28.8417 25.2419 28.0203H25.2409ZM16.7983 6.44305C16.8864 6.88127 17.0312 7.03185 17.4384 7.03668C18.2685 7.0473 19.0996 7.05405 19.9287 7.03378C20.5659 7.01834 20.93 6.62934 20.9398 5.99228C20.9496 5.37838 20.9506 4.76448 20.9398 4.15058C20.9281 3.51448 20.5268 3.11969 19.8758 3.11873C15.9927 3.1139 12.1105 3.1139 8.22735 3.11873C7.56368 3.11873 7.15843 3.52896 7.14962 4.18147C7.14179 4.7471 7.14669 5.31274 7.14864 5.87838C7.15158 6.65541 7.52355 7.03764 8.30859 7.03957C10.3848 7.04537 12.4599 7.04344 14.5361 7.03957C15.0412 7.03957 15.1626 6.93533 15.2928 6.43822C15.7949 6.43919 16.2981 6.44112 16.8002 6.44208L16.7983 6.44305ZM14.0937 10.4875C16.9764 10.4875 19.8592 10.4875 22.7419 10.4875C23.3478 10.4875 23.6288 10.305 23.62 9.91892C23.6111 9.5444 23.339 9.37162 22.7546 9.37162C16.9891 9.37162 11.2236 9.37162 5.45815 9.37162C5.33579 9.37162 5.21245 9.36873 5.09205 9.38513C4.77588 9.42568 4.62318 9.63127 4.60164 9.92471C4.58011 10.2085 4.8121 10.4488 5.11555 10.4817C5.23595 10.4942 5.35928 10.4884 5.48164 10.4884C8.35264 10.4884 11.2227 10.4884 14.0937 10.4884V10.4875ZM14.0976 14.0251C16.9803 14.0251 19.8631 14.0251 22.7458 14.0251C23.3498 14.0251 23.6317 13.8398 23.62 13.4537C23.6082 13.0801 23.339 12.9122 22.7507 12.9122C16.9852 12.9122 11.2197 12.9122 5.45423 12.9122C5.3446 12.9122 5.23399 12.9083 5.12436 12.9189C4.81797 12.9508 4.59871 13.1824 4.59773 13.4653C4.59675 13.7635 4.82972 13.999 5.15568 14.0212C5.26531 14.029 5.37592 14.0241 5.48556 14.0241C8.35656 14.0241 11.2266 14.0241 14.0976 14.0241V14.0251ZM12.0635 17.5656C14.2611 17.5656 16.4586 17.5656 18.6552 17.5656C19.2405 17.5656 19.5097 17.3967 19.5224 17.0222C19.5352 16.638 19.2454 16.445 18.6503 16.445C14.2552 16.445 9.86107 16.445 5.46598 16.445C5.33188 16.445 5.19581 16.445 5.06465 16.4653C4.76805 16.5135 4.61241 16.7143 4.60556 16.9913C4.59773 17.2876 4.76707 17.4913 5.06954 17.5531C5.187 17.5772 5.3123 17.5647 5.43466 17.5647C7.64395 17.5647 9.85324 17.5647 12.0635 17.5647V17.5656ZM7.03901 29.2761C5.70286 29.278 4.52236 30.0753 4.12983 31.2394C4.00845 31.6004 4.12102 31.8948 4.42937 32.0183C4.74847 32.1458 5.01864 32.0154 5.18407 31.6544C5.79292 30.3253 7.17703 30.0019 8.34775 30.9054C8.7021 31.1786 9.04959 31.4788 9.44701 31.6747C11.1864 32.5338 12.6763 31.9633 13.5984 30.3185C13.7618 30.027 13.6639 29.723 13.3977 29.5656C13.1324 29.4083 12.828 29.4788 12.6293 29.7481C12.551 29.8542 12.4893 29.9739 12.412 30.0811C11.7248 31.0396 10.7264 31.2181 9.74067 30.5502C9.4705 30.3668 9.21991 30.1544 8.96247 29.9517C8.39963 29.5096 7.75847 29.2847 7.03901 29.2761ZM8.71091 21.1042C9.85715 21.1042 11.0034 21.1052 12.1496 21.1042C12.5999 21.1042 12.8525 20.9073 12.8613 20.5589C12.8701 20.2056 12.6195 19.9894 12.1751 19.9884C9.8826 19.9855 7.59011 19.9855 5.29762 19.9884C4.85909 19.9884 4.59284 20.2114 4.59773 20.5521C4.60262 20.8958 4.86594 21.1033 5.30838 21.1042C6.44288 21.1062 7.57641 21.1042 8.71091 21.1042Z" fill="#E8F4FD"/>
<path d="M21.8521 29.138C21.1151 28.834 20.378 28.5299 19.6076 28.2124C21.5497 23.779 23.4722 19.3871 25.4103 14.9624C26.1895 15.3031 26.9324 15.6274 27.6744 15.9527C27.5286 16.2954 27.3847 16.638 27.2359 16.9797C26.4459 18.7992 25.656 20.6187 24.8631 22.4363C24.1084 24.166 23.3557 25.8967 22.5902 27.6226C22.3631 28.1361 22.0988 28.6332 21.8512 29.138H21.8521Z" fill="#5885C9"/>
<path d="M28.1775 14.8938C27.416 14.5811 26.6544 14.2693 25.8566 13.9421C27.3934 10.4324 28.9156 6.9585 30.4504 3.45464C31.2325 3.7944 31.9863 4.12259 32.74 4.44981C32.4453 5.10908 32.1458 5.76545 31.8571 6.42664C31.0583 8.25579 30.2625 10.0859 29.4667 11.916C29.036 12.9073 28.6072 13.9006 28.1775 14.8929V14.8938Z" fill="#7FB2F9"/>
<path d="M21.8521 29.138C22.0998 28.6332 22.3641 28.1361 22.5912 27.6226C23.3556 25.8967 24.1094 24.166 24.8641 22.4363C25.6569 20.6178 26.4469 18.7983 27.2368 16.9797C27.3846 16.638 27.5295 16.2954 27.6754 15.9527C28.1129 16.1313 28.5495 16.3089 29.0174 16.5C27.0822 20.9189 25.1607 25.306 23.2166 29.7442C22.7507 29.5367 22.3014 29.3378 21.8521 29.138Z" fill="#4177C1"/>
<path d="M25.2644 12.4015C25.2595 11.2355 25.2507 10.0695 25.2497 8.90444C25.2468 6.9807 25.2213 5.05695 25.2625 3.13417C25.2791 2.3668 25.0853 1.72008 24.5861 1.14865C24.8288 1.14189 25.0726 1.12162 25.3153 1.13031C26.3901 1.16892 27.0743 1.86969 27.0773 2.93533C27.0812 4.64382 27.0792 6.35328 27.0773 8.06274C27.0773 8.16892 27.0841 8.28668 27.043 8.38031C26.4547 9.72201 25.8586 11.0608 25.2644 12.4006V12.4015Z" fill="#C7EDFC"/>
<path d="M28.1775 14.8938C28.6072 13.9015 29.035 12.9083 29.4667 11.917C30.2625 10.0869 31.0573 8.25676 31.857 6.42761C32.1458 5.76641 32.4453 5.10908 32.74 4.45078C33.1658 4.62549 33.5916 4.8002 34.0585 4.99228C32.5285 8.48649 31.0064 11.9614 29.4676 15.4768C29.0281 15.278 28.6033 15.0859 28.1775 14.8948V14.8938Z" fill="#60A0F6"/>
<path d="M21.163 30.1081C21.5888 30.2828 22.0156 30.4575 22.4991 30.6554C21.4988 31.5811 20.5336 32.4749 19.5684 33.3687C19.5312 33.3523 19.494 33.3359 19.4578 33.3185V31.7259C20.0265 31.1863 20.5953 30.6467 21.164 30.1071L21.163 30.1081Z" fill="#61D8F7"/>
<path d="M33.2333 3.39575C32.7312 3.19305 32.23 2.99131 31.674 2.76737C31.8717 2.35328 32.0215 1.93629 32.2564 1.57336C32.5795 1.07432 33.2402 0.99807 33.759 1.34363C33.8216 1.96332 33.6268 2.52124 33.34 3.05888C33.2852 3.1612 33.2676 3.28378 33.2324 3.39672L33.2333 3.39575Z" fill="#96E2F7"/>
<path d="M21.163 30.1081C20.5943 30.6477 20.0256 31.1873 19.4568 31.7268V29.3649C20.0432 29.6207 20.6031 29.8649 21.163 30.1081Z" fill="#97E3F9"/>
<path d="M33.2333 3.39576C33.2686 3.28282 33.2862 3.1612 33.341 3.05792C33.6278 2.52027 33.8226 1.96236 33.76 1.34267C34.1965 1.67568 34.3492 2.11969 34.1662 2.60715C34.0399 2.94209 33.8804 3.26545 33.7208 3.62935C33.5505 3.5473 33.3929 3.47104 33.2343 3.39576H33.2333Z" fill="#5FD3F2"/>
<path d="M15.2908 6.43919C15.1606 6.9363 15.0402 7.03958 14.5342 7.04054C12.458 7.04344 10.3828 7.04537 8.30665 7.04054C7.5216 7.03861 7.14964 6.65637 7.1467 5.87935C7.14474 5.31371 7.14083 4.74807 7.14768 4.18243C7.15649 3.52993 7.56174 3.12066 8.2254 3.11969C12.1085 3.11487 15.9907 3.11487 19.8739 3.11969C20.5258 3.11969 20.9261 3.51641 20.9379 4.15155C20.9496 4.76545 20.9487 5.37935 20.9379 5.99325C20.9281 6.63031 20.564 7.01931 19.9267 7.03475C19.0966 7.05502 18.2666 7.04826 17.4365 7.03765C17.0293 7.03282 16.8854 6.88224 16.7963 6.44402C16.8815 6.05888 17.1291 5.89672 17.5217 5.91796C17.6753 5.92664 17.831 5.91023 17.9856 5.90444H19.7907V4.26931H17.9886C17.9279 4.26352 17.8672 4.2529 17.8065 4.2529C14.7299 4.2529 11.6544 4.25193 8.57779 4.2529C8.49557 4.2529 8.41335 4.26352 8.32231 4.26931V5.91989C8.47893 5.91989 8.61108 5.91989 8.74322 5.91989C10.6598 5.91989 12.5764 5.92664 14.4931 5.91409C14.9032 5.9112 15.1783 6.03572 15.2889 6.43919H15.2908Z" fill="#030303"/>
<path d="M14.0936 10.4875C11.2226 10.4875 8.35261 10.4875 5.48161 10.4875C5.35925 10.4875 5.23591 10.4932 5.11551 10.4807C4.81304 10.4488 4.58105 10.2075 4.60161 9.92375C4.62314 9.63031 4.77585 9.42568 5.09202 9.38417C5.21242 9.36873 5.33576 9.37162 5.45811 9.37066C11.2236 9.37066 16.9891 9.37066 22.7546 9.37066C23.339 9.37066 23.6111 9.54344 23.6199 9.91796C23.6287 10.3041 23.3468 10.4865 22.7419 10.4865C19.8591 10.4865 16.9764 10.4865 14.0936 10.4865V10.4875Z" fill="black"/>
<path d="M14.0976 14.0251C11.2266 14.0251 8.35655 14.0251 5.48555 14.0251C5.37592 14.0251 5.2653 14.0299 5.15567 14.0222C4.82971 13.999 4.59674 13.7645 4.59772 13.4662C4.5987 13.1824 4.81796 12.9517 5.12435 12.9199C5.233 12.9083 5.34361 12.9131 5.45422 12.9131C11.2197 12.9131 16.9852 12.9131 22.7507 12.9131C23.338 12.9131 23.6072 13.082 23.6199 13.4546C23.6317 13.8417 23.3498 14.0261 22.7458 14.0261C19.8631 14.0261 16.9803 14.0261 14.0976 14.0261V14.0251Z" fill="black"/>
<path d="M17.9875 5.90444C17.8329 5.90927 17.6772 5.92664 17.5236 5.91795C17.131 5.89672 16.8834 6.05791 16.7982 6.44402C16.2961 6.44305 15.7929 6.44112 15.2908 6.44015C15.1802 6.03668 14.9051 5.91216 14.495 5.91506C12.5784 5.92761 10.6617 5.92085 8.74513 5.92085C8.61298 5.92085 8.48084 5.92085 8.32422 5.92085V4.27027C8.41525 4.26448 8.49748 4.25386 8.5797 4.25386C11.6563 4.25386 14.7318 4.25386 17.8084 4.25386C17.8691 4.25386 17.9298 4.26448 17.9905 4.27027C17.9905 4.81564 17.9885 5.36004 17.9875 5.9054V5.90444Z" fill="#7BA0AF"/>
<path d="M12.0635 17.5656C9.8542 17.5656 7.64491 17.5656 5.43464 17.5656C5.31229 17.5656 5.18699 17.5772 5.06953 17.5541C4.76608 17.4923 4.59772 17.2896 4.60555 16.9923C4.6124 16.7162 4.76804 16.5145 5.06463 16.4662C5.1958 16.445 5.33186 16.4459 5.46597 16.4459C9.86106 16.4459 14.2552 16.4459 18.6503 16.4459C19.2454 16.4459 19.5361 16.639 19.5224 17.0232C19.5097 17.3977 19.2405 17.5666 18.6552 17.5666C16.4576 17.5666 14.2601 17.5666 12.0635 17.5666V17.5656Z" fill="#010101"/>
<path d="M7.03901 29.2761C7.75847 29.2847 8.39962 29.5097 8.96247 29.9517C9.21991 30.1535 9.4705 30.3658 9.74066 30.5502C10.7254 31.2191 11.7248 31.0396 12.412 30.0811C12.4893 29.973 12.55 29.8542 12.6293 29.7481C12.828 29.4788 13.1324 29.4093 13.3977 29.5656C13.6639 29.723 13.7608 30.027 13.5984 30.3185C12.6763 31.9633 11.1864 32.5338 9.44701 31.6747C9.04959 31.4788 8.70209 31.1776 8.34774 30.9054C7.17703 30.0019 5.79292 30.3263 5.18406 31.6544C5.01864 32.0154 4.74847 32.1458 4.42936 32.0183C4.12102 31.8958 4.00845 31.6014 4.12983 31.2394C4.52235 30.0753 5.70286 29.278 7.03901 29.2761Z" fill="#040404"/>
<path d="M8.7109 21.1042C7.5764 21.1042 6.44288 21.1052 5.30838 21.1042C4.86593 21.1042 4.60262 20.8958 4.59772 20.5521C4.59283 20.2114 4.85908 19.9884 5.29761 19.9884C7.5901 19.9855 9.8826 19.9855 12.1751 19.9884C12.6205 19.9884 12.8701 20.2056 12.8613 20.5589C12.8525 20.9073 12.5999 21.1033 12.1496 21.1042C11.0034 21.1062 9.85715 21.1042 8.7109 21.1042Z" fill="#010101"/>
<path d="M17.9875 5.90444C17.9875 5.35907 17.9895 4.81467 17.9905 4.2693C18.5837 4.2693 19.1778 4.2693 19.7926 4.2693V5.90444H17.9875Z" fill="#658A95"/>
</g>
<defs>
<clipPath id="clip0_122_23">
<rect width="37" height="37" fill="white"/>
</clipPath>
</defs>
</svg>
