<svg width="49" height="49" viewBox="0 0 49 49" fill="none" xmlns="http://www.w3.org/2000/svg">
<g clip-path="url(#clip0_340_679)">
<path d="M-1.26641e-05 38.3729C0.0588017 37.8613 0.135516 37.3524 0.168759 36.8408C0.250587 35.5671 0.311959 34.2934 0.378445 33.0197C0.424473 32.1424 0.915445 31.5413 1.76186 31.283C2.89979 30.9377 4.04028 30.6027 5.16286 30.2088C5.70753 30.0169 5.74078 29.4875 5.28049 29.1397C4.59773 28.623 4.11188 27.9657 3.88173 27.1396C3.81013 26.8812 3.70529 26.7585 3.43423 26.6766C2.2247 26.3134 1.74396 24.9297 2.41137 23.8504C2.529 23.6611 2.58526 23.4181 2.60827 23.1931C2.67476 22.546 2.62617 21.8759 2.77193 21.2492C3.18108 19.4998 4.72815 18.3104 6.52326 18.2721C6.66646 18.2695 6.80966 18.2772 6.95286 18.2695C7.85554 18.2133 8.70195 18.3437 9.38215 19.1033C9.99586 17.6301 10.988 16.5917 12.4814 16.2183C13.8802 15.8679 15.3147 15.7579 16.6854 16.5584C16.7518 16.249 16.803 15.942 16.8848 15.6453C17.6213 12.9623 20.0122 11.1157 22.7995 11.0825C23.3569 11.0748 23.917 11.0825 24.4744 11.0825C25.5177 11.0825 26.3897 11.4763 27.1236 12.2129C27.231 12.3229 27.4637 12.4303 27.5839 12.3869C29.9135 11.5607 32.4374 13.2693 32.4425 15.8423C32.4425 15.9037 32.4604 15.9651 32.4732 16.0469C33.0408 16.0469 33.5958 16.0392 34.1507 16.0469C34.8334 16.0597 35.4343 16.3052 35.91 16.7861C36.0992 16.9779 36.2552 16.9856 36.493 16.9267C37.6923 16.6377 38.774 17.0649 39.5155 18.0675C39.6102 18.1954 39.8301 18.2849 39.9963 18.2925C40.4898 18.3181 40.9987 18.2133 41.4743 18.3079C41.973 18.4076 42.4332 18.6839 42.9165 18.868C43.1032 18.9396 43.3206 19.0419 43.4996 19.0113C45.0134 18.7376 46.3636 19.8016 46.4096 21.3387C46.4224 21.7684 46.4096 22.2007 46.4147 22.6304C46.4198 23.1956 46.4198 23.7378 46.673 24.2929C47.0872 25.2034 46.5886 26.5052 45.1029 26.8071C44.8881 27.7662 44.3869 28.5514 43.5993 29.1627C43.2541 29.4312 43.3564 29.93 43.7399 30.1551C44.7372 30.7382 45.8675 30.8942 46.9517 31.1884C48.1485 31.5132 48.5627 32.017 48.6266 33.2345C48.734 35.2244 48.8542 37.2142 48.9693 39.2041C48.9821 39.4266 48.9949 39.6492 48.9949 39.8742C48.9949 40.9382 48.2354 41.7234 47.1716 41.7337C45.9928 41.7439 44.8114 41.7337 43.6325 41.7337C43.4766 41.7337 43.3206 41.7337 43.1876 41.7337C43.1083 42.0866 43.0725 42.4063 42.9626 42.7005C42.6608 43.5113 41.8886 43.9998 41.0294 43.9947C39.6434 43.9844 38.2549 43.9895 36.8689 43.9895C36.7768 43.9895 36.6848 44.0049 36.5697 44.0151C36.6106 44.7875 36.6336 45.5344 36.6899 46.2761C36.8126 47.9053 36.5441 48.3811 35.1198 48.9975H13.7804C12.6042 48.532 12.1873 47.6598 12.328 46.427C12.42 45.629 12.4175 44.8182 12.4584 43.987C10.9932 43.987 9.59184 43.9947 8.19308 43.987C7.11652 43.9793 6.31869 43.4089 6.06553 42.478C6.00416 42.2529 5.99393 42.0125 5.95302 41.7362C5.78425 41.7362 5.63082 41.7362 5.47483 41.7362C4.2474 41.7362 3.01997 41.7362 1.7951 41.7362C1.097 41.7362 0.583016 41.4114 0.222459 40.8231C0.150859 40.7055 0.0715874 40.5955 -0.00512695 40.4804C-0.00512695 39.7796 -0.00512695 39.0762 -0.00512695 38.3754L-1.26641e-05 38.3729ZM32.1459 48.0077C33.0946 48.0077 33.9691 48.0332 34.8436 48C35.5341 47.9744 35.8818 47.5191 35.8384 46.8107C35.731 45.1098 35.6185 43.4089 35.5187 41.7081C35.3883 39.465 35.2732 37.2219 35.1403 34.9788C35.0866 34.0581 34.6519 33.5363 33.7773 33.3138C32.6368 33.0222 31.4938 32.746 30.3558 32.4519C30.0669 32.3777 29.9007 32.4186 29.783 32.7332C29.5018 33.4954 29.1923 34.2448 28.8701 34.9916C28.507 35.8331 27.7271 35.9431 27.1441 35.2525C26.9395 35.0095 26.7094 34.7768 26.5457 34.5082C26.1877 33.92 25.7479 33.6386 25.0114 33.7486C24.4105 33.8381 23.6919 33.5593 23.1933 33.7946C22.687 34.0351 22.3878 34.7103 21.994 35.1911C21.3445 35.9814 20.5952 35.8766 20.204 34.9379C19.892 34.1885 19.5852 33.4366 19.286 32.682C19.2067 32.4825 19.1325 32.3623 18.8743 32.4288C17.6162 32.7588 16.3478 33.0478 15.0948 33.4008C14.4172 33.59 14.0362 34.1169 13.985 34.8075C13.8904 36.03 13.8495 37.2577 13.7804 38.4829C13.6961 39.9612 13.6014 41.4395 13.5171 42.9204C13.4403 44.2581 13.3636 45.5932 13.3023 46.9309C13.2767 47.5166 13.5477 47.9309 14.0694 47.9616C15.0181 48.0153 15.9719 47.977 16.9692 47.977V47.4398C16.9692 44.8412 16.9692 42.2401 16.9692 39.6415C16.9692 39.4522 16.9539 39.2348 17.0382 39.0839C17.1175 38.9432 17.3374 38.7821 17.4704 38.8C17.6315 38.823 17.8054 39.0046 17.8974 39.1606C17.969 39.2809 17.9256 39.4727 17.9256 39.6313C17.9256 42.2478 17.9332 44.8617 17.9179 47.4782C17.9179 47.8747 17.9844 48.0307 18.4319 48.0281C22.5131 48.0102 26.5968 48.0179 30.678 48.0153C30.834 48.0153 30.9875 48 31.1869 47.9897C31.1869 47.78 31.1869 47.6087 31.1869 47.4373C31.1869 44.8387 31.1869 42.2375 31.1869 39.6389C31.1869 39.4957 31.1409 39.3218 31.2048 39.2144C31.3097 39.0455 31.4835 38.8128 31.6344 38.8051C31.793 38.7975 31.9924 39.0046 32.1126 39.1632C32.1842 39.2578 32.1433 39.4394 32.1433 39.5827C32.1433 41.8795 32.1433 44.1763 32.1433 46.473V48.0102L32.1459 48.0077ZM25.5484 17.2848C23.8863 19.1238 21.815 19.6481 19.4292 19.3182C19.4292 20.7326 19.4164 22.1163 19.4292 23.5C19.4624 26.825 22.4517 29.1678 25.6839 28.4158C27.676 27.9529 29.4123 26.0372 29.466 24.1701C29.5145 22.4513 29.4864 20.73 29.5018 19.0087C29.5018 18.7606 29.4123 18.6736 29.1719 18.6609C27.8345 18.5892 26.6326 18.1493 25.5459 17.2874L25.5484 17.2848ZM31.4861 18.9857C31.4861 17.9345 31.4912 16.9012 31.4861 15.8679C31.4733 13.791 29.4634 12.5301 27.5916 13.4355C27.1952 13.6273 26.9446 13.5736 26.7094 13.213C26.2951 12.5787 25.6916 12.1439 24.9577 12.0799C24.009 11.9981 23.022 11.9239 22.0963 12.0953C18.6007 12.7475 17.2454 15.584 17.7747 18.9422C18.0458 18.845 18.3884 18.8271 18.547 18.6455C18.8717 18.2721 19.2272 18.2414 19.6619 18.3053C21.6897 18.5969 23.495 18.2133 24.8682 16.5457C25.216 16.1236 25.6865 16.029 26.0445 16.3487C27.0853 17.2771 28.328 17.6224 29.6808 17.6966C30.1845 17.7247 30.4581 17.9959 30.5272 18.4997C30.5425 18.6046 30.5604 18.7094 30.5758 18.7964C30.8877 18.8603 31.1665 18.9192 31.4861 18.9831V18.9857ZM39.2701 43.033C39.7968 43.033 40.2546 43.033 40.7148 43.033C41.7454 43.0279 42.1622 42.6237 42.1085 41.6109C41.9653 38.9228 41.8042 36.2347 41.6431 33.5465C41.6124 33.035 41.3286 32.6948 40.8248 32.5567C39.2701 32.1373 37.6437 31.9429 36.268 31.0605C35.8486 31.6845 36.0097 32.5823 35.1198 32.9046C35.8691 33.5414 36.1145 34.3548 36.1555 35.2627C36.2168 36.6643 36.2961 38.0634 36.3728 39.465C36.4367 40.639 36.5032 41.813 36.5723 43.0074H38.3188C38.3188 42.4498 38.3188 41.9127 38.3188 41.3756C38.3188 39.8921 38.3188 38.4087 38.3188 36.9278C38.3188 36.5953 38.3904 36.2909 38.7842 36.2781C39.2189 36.2628 39.2828 36.5851 39.2777 36.9355C39.2726 37.4291 39.2777 37.9253 39.2777 38.4189C39.2777 39.9305 39.2777 41.4446 39.2777 43.033H39.2701ZM12.8292 31.0579C12.4789 31.2267 12.1132 31.4134 11.7398 31.5848C11.525 31.6845 11.3102 31.7894 11.0827 31.8482C10.18 32.0835 9.27219 32.3035 8.36441 32.5286C7.75836 32.6795 7.50776 32.9608 7.43872 33.5747C7.40548 33.8586 7.38758 34.145 7.36968 34.4315C7.28018 35.9738 7.19068 37.5161 7.10373 39.0583C7.05259 39.9817 6.99633 40.9024 6.96309 41.8257C6.94263 42.4063 7.27506 42.9051 7.78138 42.9511C8.40532 43.0074 9.03949 42.9639 9.69668 42.9639C9.69668 40.9817 9.69668 39.0404 9.69668 37.0966C9.69668 36.938 9.66088 36.7385 9.74015 36.6311C9.85522 36.4751 10.0572 36.3012 10.2286 36.2935C10.3615 36.2884 10.5354 36.5109 10.6275 36.6695C10.6914 36.7769 10.6531 36.9483 10.6531 37.0915C10.6531 38.8767 10.6531 40.662 10.6531 42.4473V42.9562H12.5147C12.6502 40.4446 12.7985 37.9636 12.9136 35.4853C12.9596 34.4852 13.113 33.5491 13.9697 32.8688C13.09 32.5746 13.2434 31.6948 12.8241 31.0502L12.8292 31.0579ZM6.55651 32.4851C6.41842 32.3214 6.19339 32.1219 6.06042 31.8764C5.91466 31.6078 5.85585 31.2932 5.80215 31.1295C4.53636 31.4825 3.33195 31.8201 2.12753 32.1526C1.55217 32.3112 1.36295 32.526 1.32459 33.1168C1.27856 33.8483 1.23253 34.5798 1.19162 35.3139C1.10979 36.8101 1.0254 38.3064 0.956359 39.8052C0.930788 40.3423 1.18139 40.7183 1.61866 40.7566C2.10196 40.7976 2.59293 40.7669 3.09669 40.7669C3.09669 39.0865 3.09669 37.4598 3.09669 35.8331C3.09669 35.4827 3.16318 35.1528 3.57999 35.1502C4.00448 35.1451 4.06073 35.475 4.05818 35.828C4.05306 37.1682 4.05818 38.5084 4.05818 39.8487C4.05818 40.1479 4.05818 40.4472 4.05818 40.7541H6.01695C6.12179 38.8179 6.21385 36.9099 6.33148 35.0019C6.38262 34.1681 6.48235 33.3394 6.56418 32.4877L6.55651 32.4851ZM34.8053 20.9551C34.4805 21.2083 34.1967 21.5127 33.8464 21.6789C33.3554 21.9117 33.0613 22.2288 32.9053 22.7531C32.8209 23.0422 32.5959 23.3082 32.3888 23.5409C31.8825 24.1113 31.2099 24.367 30.4147 24.4386C30.453 24.963 30.4505 25.4592 30.5348 25.94C30.8289 27.6511 32.5039 28.9299 34.2376 28.7944C36.0813 28.6486 37.4801 27.2265 37.5184 25.4413C37.5363 24.5179 37.5286 23.5921 37.5312 22.6662C37.5312 22.3874 37.5312 22.1086 37.5312 21.8938C36.9968 21.7684 36.539 21.6994 36.1094 21.5485C35.6645 21.3925 35.2477 21.1571 34.8053 20.9525V20.9551ZM45.8112 40.7797C46.2408 40.7797 46.6193 40.7797 46.9977 40.7797C47.7649 40.7745 48.0743 40.4651 48.0334 39.6952C47.9158 37.4828 47.7853 35.2704 47.6626 33.058C47.6396 32.6488 47.4504 32.3521 47.0514 32.237C45.7652 31.8636 44.4764 31.5081 43.1723 31.1398C42.937 31.5515 43.0188 32.2549 42.446 32.4519C42.9856 35.2244 42.7836 38.025 43.116 40.7617H44.8549C44.8549 40.5878 44.8549 40.4318 44.8549 40.2758C44.8549 38.8409 44.8549 37.4061 44.8549 35.9712C44.8549 35.8433 44.8114 35.6822 44.8728 35.5952C44.9955 35.4213 45.1617 35.1911 45.333 35.1681C45.4686 35.1502 45.6706 35.3881 45.7831 35.5518C45.8521 35.6515 45.8112 35.8305 45.8112 35.9738C45.8112 37.5519 45.8112 39.13 45.8112 40.7797ZM11.4176 22.3541C11.4176 23.3465 11.3997 24.3005 11.4202 25.252C11.4713 27.6127 13.4557 29.1959 15.7597 28.7049C17.6878 28.2931 18.8538 26.4336 18.4472 24.4259C17.5829 24.3542 16.8771 23.9885 16.3376 23.2928C15.8006 22.5997 15.7315 21.7991 15.8236 20.8298C14.5604 22.1521 13.0951 22.5102 11.4151 22.3541H11.4176ZM38.4901 26.0577C38.4467 27.5104 39.605 28.8046 41.0012 28.8992C42.6787 29.0118 44.0979 27.9555 44.1977 26.4388C44.2667 25.3952 44.2105 24.3466 44.2105 23.3235C43.7962 23.2263 43.4203 23.17 43.0674 23.0473C42.6992 22.9168 42.3565 22.7199 42.065 22.5843C41.5792 22.8836 41.1291 23.147 40.6944 23.4335C40.5972 23.4974 40.5026 23.633 40.4924 23.743C40.3747 25.1011 39.8787 25.6894 38.4901 26.0577ZM10.4331 26.0704C8.66359 25.4234 8.18029 24.5179 8.69428 22.812C8.55364 22.7276 8.41044 22.6432 8.24678 22.546C7.26995 23.5665 6.03996 23.8197 4.68979 23.7225C4.68979 24.5461 4.68979 25.3083 4.68979 26.0704C4.69235 27.6383 5.93512 28.8916 7.49498 28.9018C9.14178 28.912 10.3999 27.7125 10.4306 26.0704H10.4331ZM10.2132 21.7377C10.3743 21.6354 10.5047 21.528 10.6531 21.4666C10.8474 21.3848 11.0699 21.262 11.2617 21.2876C12.7653 21.5024 14.1078 21.285 15.1587 20.0471C15.3045 19.8757 15.6676 19.7811 15.908 19.8169C16.4552 19.8962 16.647 19.7786 16.6547 19.2031C16.6547 18.9959 16.6547 18.7887 16.6547 18.5816C16.6547 17.8245 16.1381 17.1211 15.3787 17.0521C14.5911 16.9805 13.7677 16.937 13.0031 17.0956C10.8423 17.5406 9.85266 19.3744 10.2158 21.7377H10.2132ZM33.2403 20.9193C33.5242 20.6686 33.8643 20.4052 34.1634 20.0983C34.5061 19.7453 34.9408 19.6507 35.3039 19.9678C35.9995 20.5766 36.8229 20.7991 37.7128 20.8579C38.1296 20.886 38.4441 21.0369 38.5694 21.4794C38.595 21.5689 38.7203 21.6329 38.7995 21.707C38.8532 21.6099 38.953 21.5152 38.9555 21.4155C38.9709 20.8426 38.9351 20.2671 38.9683 19.6942C39.0553 18.1416 37.4622 17.3641 36.3524 17.978C36.0225 18.1621 35.7565 18.0982 35.529 17.781C35.2221 17.3539 34.8181 17.0316 34.276 16.9881C33.7543 16.9446 33.2275 16.9446 32.7033 16.9574C32.6164 16.9574 32.4553 17.1314 32.4578 17.2209C32.4808 18.4639 32.1612 19.776 33.2378 20.9193H33.2403ZM9.09575 21.881C9.09575 21.4538 9.09575 21.1418 9.09575 20.8272C9.09575 19.9883 8.40788 19.267 7.55891 19.2312C7.27251 19.2184 6.98611 19.2287 6.69715 19.2312C5.62315 19.2363 4.74349 19.6507 4.11699 20.528C3.59789 21.2595 3.52118 22.083 3.64648 22.8068C4.11955 22.7685 4.50823 22.7276 4.89948 22.7097C5.16542 22.6969 5.43392 22.725 5.69731 22.7097C6.49002 22.6585 7.10373 22.2697 7.63051 21.6943C7.99362 21.2953 8.27491 21.2876 8.71729 21.5996C8.80679 21.6636 8.89374 21.7326 9.09319 21.881H9.09575ZM45.2512 22.9961C45.2947 22.9757 45.3407 22.9526 45.3842 22.9322C45.3842 22.4513 45.333 21.9628 45.3944 21.4896C45.5248 20.4794 44.438 19.4998 43.295 20.0829C43.0035 20.2313 42.7708 20.1955 42.5867 19.9346C41.9141 18.978 40.9501 19.2542 40.0474 19.2568V22.5818C40.6356 22.459 41.0191 22.1137 41.3823 21.7352C41.7633 21.3387 42.065 21.3592 42.5227 21.6047C43.0444 21.8835 43.6019 22.1598 44.1747 22.2569C44.681 22.3413 45.0952 22.4027 45.2538 22.9987L45.2512 22.9961ZM29.737 26.7047C29.0722 27.3263 28.4252 27.9273 27.7859 28.536C27.7015 28.6179 27.5941 28.7279 27.5865 28.8276C27.5634 29.2241 27.5686 29.6231 27.5865 30.0221C27.589 30.109 27.6708 30.219 27.7476 30.2702C28.7704 30.9377 29.8137 31.3035 30.944 30.4876C31.0974 30.3776 31.2841 30.3188 31.4529 30.2292C31.7904 30.0528 31.908 29.2675 31.5961 29.0553C30.6985 28.4465 30.0694 27.6383 29.7396 26.7022L29.737 26.7047ZM19.2425 26.692C18.9408 27.5897 18.3501 28.3672 17.5164 28.976C17.2428 29.1755 17.2812 30.0093 17.5548 30.1499C18.0202 30.3904 18.4881 30.6308 18.9766 30.8252C19.2502 30.9326 19.6005 31.063 19.8485 30.9786C20.4162 30.7894 21.0376 30.572 21.4442 30.1704C21.6743 29.9428 21.5184 29.3289 21.5337 28.8864C21.5337 28.8404 21.5235 28.7918 21.5158 28.7458C21.4877 28.7739 21.457 28.802 21.4289 28.8327C20.6975 28.1166 19.9636 27.4004 19.2425 26.6945V26.692ZM22.5412 29.2292C22.3571 30.0655 22.6077 30.7357 22.9529 31.3955C23.1805 31.8278 23.2649 32.4493 23.6152 32.6718C23.9681 32.8994 24.569 32.7281 25.06 32.7562C25.3362 32.7716 25.4896 32.682 25.6021 32.4212C25.845 31.8713 26.1008 31.3239 26.3923 30.797C26.6787 30.2778 26.6326 29.7484 26.5841 29.1652C25.2211 29.6589 23.8812 29.6717 22.5412 29.2292ZM11.1082 27.7406C10.7016 28.1882 10.2797 28.6793 9.82965 29.1422C9.56115 29.4184 9.54069 29.9402 9.82965 30.1193C10.9804 30.8226 11.2054 30.8303 12.397 30.1985C12.7525 30.0093 12.8266 29.3008 12.5249 29.0322C12.0314 28.5923 11.5455 28.1422 11.1031 27.7406H11.1082ZM37.8099 27.8097C37.434 28.1575 36.9942 28.5667 36.5544 28.9734C36.3293 29.1806 36.3166 29.9939 36.5544 30.132C37.2576 30.5387 37.9685 30.9633 38.7663 30.3187C38.8379 30.2599 38.9351 30.2292 39.0195 30.1883C39.4363 29.9786 39.467 29.4926 39.132 29.178C38.664 28.7381 38.2344 28.2547 37.8099 27.8122V27.8097ZM34.9127 31.8431C35.0891 31.0886 35.5827 30.4159 35.4267 29.6717H32.6701C32.6803 29.8251 32.6701 30.0323 32.7135 30.2292C33.0536 31.838 33.2122 31.9557 34.9152 31.8431H34.9127ZM14.1691 31.8661C14.6831 31.8661 15.1127 31.8738 15.5423 31.861C15.6523 31.8585 15.8415 31.8073 15.8594 31.7408C16.0589 31.0375 16.514 30.3878 16.3811 29.6717H13.5145C13.7344 30.4083 13.9492 31.127 14.1691 31.8661ZM27.9675 34.7512C28.3536 33.787 28.7065 32.9148 29.0645 32.0196C28.4687 31.728 27.9342 31.4646 27.3614 31.1832C27.0929 31.7383 26.8321 32.26 26.5917 32.7895C26.5559 32.8662 26.5738 33.0094 26.625 33.0759C27.0443 33.6156 27.4765 34.1425 27.9675 34.7512ZM21.7459 31.1832C21.1629 31.4748 20.6055 31.751 20.0301 32.0375C20.4009 32.9532 20.7512 33.8125 21.1322 34.7512C21.6027 34.1629 22.0298 33.6412 22.4389 33.1015C22.4977 33.0248 22.5029 32.856 22.4619 32.7588C22.242 32.2396 21.9965 31.728 21.7485 31.1832H21.7459ZM18.4523 19.8246C17.5088 19.8937 16.7467 20.7147 16.757 21.6278C16.7697 22.5843 17.4883 23.3388 18.4523 23.3977V19.8246ZM30.54 23.4156C31.6651 23.1803 32.1919 22.5357 32.1637 21.4845C32.1407 20.6379 31.504 19.9781 30.54 19.8272V23.4156ZM6.50025 29.843C6.56673 30.1167 6.61532 30.3929 6.70226 30.6538C7.01168 31.5822 7.01679 31.5822 8.00129 31.4825C8.08568 31.4748 8.22121 31.4441 8.24166 31.3904C8.43089 30.8687 8.59966 30.3418 8.76844 29.8405H6.50025V29.843ZM40.3057 29.843C40.3057 29.9095 40.2852 30.0067 40.3083 30.0937C40.4105 30.4441 40.5205 30.7894 40.6381 31.1346C40.7481 31.4544 41.8579 31.6922 41.9985 31.4006C42.2338 30.9019 42.3668 30.352 42.5381 29.8456H40.3083L40.3057 29.843ZM10.405 24.9553V22.7045C9.74527 22.9424 9.45375 23.3209 9.47421 23.8887C9.49211 24.4284 9.79385 24.7839 10.405 24.9553ZM38.5771 24.9681C39.1831 24.789 39.5232 24.3517 39.5053 23.8197C39.4849 23.2596 39.132 22.8452 38.5771 22.7378V24.9681ZM3.69506 24.0755C3.20665 24.2212 3.0302 24.523 3.05833 24.9425C3.0839 25.3287 3.2629 25.6152 3.69506 25.7277V24.0755ZM45.2077 25.7584C45.6425 25.5845 45.8445 25.3006 45.8496 24.8811C45.8547 24.4463 45.6118 24.1957 45.2077 24.0294V25.7584ZM18.2529 31.5567C17.8514 31.3623 17.5318 31.2063 17.1814 31.0349C17.0843 31.3316 17.0024 31.5822 16.8976 31.9096C17.386 31.7817 17.7747 31.682 18.2529 31.5567ZM32.2251 31.9147C32.0947 31.5592 32.0027 31.3086 31.9029 31.0323C31.5373 31.2139 31.2329 31.3648 30.8366 31.5618C31.3301 31.6871 31.7188 31.7869 32.2251 31.9147Z" fill="#272324"/>
<path d="M32.1459 48.0076V46.4704C32.1459 44.1736 32.1459 41.8768 32.1459 39.58C32.1459 39.4368 32.1868 39.2527 32.1152 39.1606C31.995 39.002 31.7956 38.7948 31.637 38.8025C31.4836 38.8102 31.3097 39.0404 31.2074 39.2117C31.1435 39.3166 31.1895 39.4905 31.1895 39.6363C31.1895 42.2349 31.1895 44.8361 31.1895 47.4347C31.1895 47.606 31.1895 47.7774 31.1895 47.9871C30.9901 47.9974 30.8341 48.0127 30.6807 48.0127C26.5995 48.0127 22.5157 48.005 18.4345 48.0255C17.987 48.0255 17.918 47.872 17.9205 47.4756C17.9359 44.8591 17.9282 42.2451 17.9282 39.6286C17.9282 39.4701 17.9717 39.2782 17.9001 39.158C17.808 39.002 17.6341 38.8204 17.473 38.7974C17.3401 38.7795 17.1201 38.9406 17.0409 39.0813C16.9565 39.2322 16.9718 39.4496 16.9718 39.6389C16.9693 42.2375 16.9718 44.8386 16.9718 47.4372V47.9744C15.9745 47.9744 15.0207 48.0127 14.072 47.959C13.5504 47.9309 13.2793 47.514 13.3049 46.9283C13.3637 45.5906 13.443 44.2529 13.5197 42.9178C13.6041 41.4395 13.6987 39.9611 13.7831 38.4802C13.8521 37.2551 13.893 36.0274 13.9876 34.8049C14.0413 34.1143 14.4198 33.5874 15.0974 33.3981C16.3479 33.0477 17.6188 32.7587 18.8769 32.4262C19.1352 32.3572 19.2093 32.4774 19.2886 32.6794C19.5878 33.4339 19.8946 34.1859 20.2066 34.9353C20.5979 35.874 21.3471 35.9788 21.9966 35.1885C22.3904 34.7077 22.6896 34.0324 23.1959 33.792C23.6946 33.5542 24.4131 33.8355 25.014 33.746C25.7505 33.636 26.1929 33.9174 26.5483 34.5056C26.712 34.7767 26.9396 35.0069 27.1467 35.2499C27.7323 35.943 28.5097 35.8305 28.8728 34.989C29.195 34.2447 29.5044 33.4928 29.7857 32.7306C29.9033 32.416 30.067 32.3725 30.3585 32.4492C31.4964 32.7434 32.6395 33.0196 33.7799 33.3112C34.6545 33.5337 35.0866 34.0555 35.1429 34.9762C35.2759 37.2193 35.3909 39.4624 35.5214 41.7055C35.6211 43.4063 35.731 45.1072 35.841 46.808C35.887 47.5165 35.5393 47.9718 34.8463 47.9974C33.9717 48.0306 33.0972 48.005 32.1485 48.005L32.1459 48.0076ZM27.9164 41.1223C28.2821 41.1223 28.6503 41.13 29.016 41.1223C29.3407 41.1147 29.5837 40.9765 29.5785 40.6133C29.5734 40.2681 29.3305 40.1555 29.0288 40.1504C28.3128 40.1427 27.5942 40.1427 26.8782 40.1504C26.5534 40.153 26.3054 40.2783 26.3182 40.6517C26.331 40.9919 26.5637 41.1121 26.868 41.1223C27.2183 41.1326 27.5686 41.1223 27.919 41.1223H27.9164ZM25.0703 43.2426C25.0729 43.1659 25.0754 43.0917 25.078 43.015C24.899 42.8871 24.7123 42.6544 24.5384 42.6621C24.3748 42.6697 24.2264 42.9357 24.0705 43.0866C24.2316 43.2503 24.3696 43.4959 24.5614 43.5496C24.6918 43.5854 24.8964 43.3552 25.0677 43.2426H25.0703ZM24.454 38.7156C24.5205 38.7156 24.587 38.7156 24.656 38.7181C24.7865 38.534 25.0217 38.3498 25.0192 38.1657C25.0192 38.0122 24.7634 37.7769 24.5819 37.7283C24.3006 37.6541 24.0628 37.869 24.096 38.1529C24.119 38.3498 24.3287 38.5263 24.454 38.713V38.7156ZM25.0856 35.7947C25.0856 35.7256 25.0856 35.6566 25.0856 35.5875C24.9194 35.4622 24.7353 35.2218 24.5896 35.2422C24.3978 35.2729 24.2341 35.5057 24.0602 35.654C24.2137 35.8254 24.3492 36.1042 24.5256 36.1349C24.6867 36.163 24.8939 35.92 25.0831 35.7947H25.0856ZM24.0244 40.4957C24.0219 40.575 24.0193 40.6568 24.0142 40.7361C24.1958 40.8614 24.3824 41.0916 24.5563 41.0814C24.7149 41.0737 24.9706 40.8128 24.9782 40.6517C24.9885 40.5008 24.7455 40.2246 24.587 40.2016C24.4131 40.1785 24.2111 40.3857 24.0219 40.4931L24.0244 40.4957ZM25.0754 45.6494C25.0754 45.5778 25.0754 45.5036 25.0754 45.432C24.9092 45.3118 24.7532 45.12 24.5717 45.0918C24.2801 45.0433 24.0551 45.2555 24.1165 45.5446C24.1548 45.7262 24.3773 45.9896 24.5256 45.9947C24.7046 46.0024 24.8939 45.7747 25.078 45.6494H25.0754Z" fill="#5FB8E0"/>
<path d="M25.5483 17.2848C26.6351 18.1493 27.8395 18.5866 29.1743 18.6583C29.4147 18.671 29.5068 18.758 29.5042 19.0061C29.4889 20.7274 29.5144 22.4487 29.4684 24.1675C29.4147 26.0372 27.6759 27.9503 25.6864 28.4132C22.4542 29.1678 19.4674 26.8224 19.4316 23.4974C19.4163 22.1137 19.4316 20.73 19.4316 19.3156C21.8174 19.6455 23.8887 19.1186 25.5509 17.2822L25.5483 17.2848ZM24.5459 26.4694C25.4051 26.431 26.1058 26.1037 26.6402 25.4438C26.8422 25.1931 26.9241 24.9118 26.6402 24.6867C26.3692 24.4693 26.1186 24.5793 25.8935 24.8299C25.0599 25.7533 24.0728 25.7456 23.2315 24.812C23.0065 24.5614 22.761 24.4642 22.4874 24.6918C22.2036 24.9271 22.288 25.1906 22.4925 25.4463C23.0244 26.1139 23.7251 26.431 24.5459 26.4694ZM27.2002 21.7658C27.2002 21.6968 27.2028 21.6252 27.2053 21.5561C27.0238 21.4257 26.8576 21.2159 26.6607 21.1827C26.3819 21.1366 26.1365 21.3515 26.2055 21.6354C26.2515 21.8195 26.497 22.0344 26.6888 22.0753C26.8294 22.106 27.0263 21.8809 27.2002 21.7684V21.7658ZM22.5411 21.0906C22.4695 21.0906 22.3979 21.0906 22.3263 21.0932C22.2087 21.2799 21.9709 21.4896 22.0016 21.6482C22.0348 21.8247 22.2982 22.0318 22.49 22.0702C22.5974 22.0907 22.8787 21.794 22.8787 21.6405C22.8787 21.4564 22.6613 21.2748 22.5386 21.0906H22.5411Z" fill="#F7CEB3"/>
<path d="M31.486 18.9856C31.1664 18.9191 30.8877 18.8629 30.5757 18.7989C30.5603 18.712 30.5399 18.6071 30.5271 18.5022C30.4581 17.9984 30.1844 17.7273 29.6807 17.6991C28.328 17.625 27.0852 17.2797 26.0444 16.3512C25.6864 16.0315 25.2134 16.1262 24.8681 16.5482C23.495 18.2158 21.6896 18.5969 19.6618 18.3079C19.2245 18.2465 18.8716 18.2772 18.5469 18.648C18.3883 18.8296 18.0431 18.8475 17.7746 18.9447C17.2453 15.5865 18.6006 12.75 22.0962 12.0978C23.0219 11.9264 24.0089 11.9981 24.9576 12.0825C25.6915 12.1464 26.295 12.5812 26.7093 13.2155C26.9445 13.5762 27.1951 13.6299 27.5915 13.438C29.4633 12.5301 31.4732 13.791 31.486 15.8704C31.4937 16.9037 31.486 17.937 31.486 18.9882V18.9856Z" fill="#6C6B6A"/>
<path d="M39.27 43.0329C39.27 41.4446 39.27 39.933 39.27 38.4189C39.27 37.9252 39.2649 37.429 39.27 36.9354C39.2725 36.585 39.2086 36.2627 38.7764 36.2781C38.3826 36.2909 38.3111 36.5952 38.3111 36.9277C38.3111 38.4112 38.3111 39.8946 38.3111 41.3755C38.3111 41.9127 38.3111 42.4498 38.3111 43.0073H36.5645C36.498 41.8129 36.429 40.6389 36.3651 39.465C36.2909 38.0633 36.2116 36.6643 36.1477 35.2627C36.1068 34.3547 35.8613 33.5414 35.1121 32.9045C36.0019 32.5797 35.8408 31.6845 36.2602 31.0604C37.636 31.9428 39.2623 32.1372 40.817 32.5567C41.3208 32.6922 41.6047 33.035 41.6353 33.5465C41.7964 36.2346 41.9575 38.9227 42.1007 41.6108C42.1544 42.6237 41.7376 43.0278 40.7071 43.0329C40.2468 43.0329 39.7891 43.0329 39.2623 43.0329H39.27Z" fill="#E6E6E7"/>
<path d="M12.8292 31.0579C13.2485 31.7024 13.0951 32.5848 13.9748 32.8764C13.1181 33.5567 12.9672 34.4928 12.9187 35.4929C12.8036 37.9738 12.6553 40.4522 12.5197 42.9639H10.6581V42.4549C10.6581 40.6696 10.6581 38.8844 10.6581 37.0991C10.6581 36.9559 10.6965 36.7845 10.6326 36.6771C10.538 36.5185 10.3666 36.296 10.2337 36.3011C10.0623 36.3062 9.86031 36.4827 9.74524 36.6387C9.66597 36.7461 9.70177 36.9456 9.70177 37.1042C9.70177 39.048 9.70177 40.9893 9.70177 42.9715C9.04458 42.9715 8.41297 43.015 7.78647 42.9587C7.28015 42.9127 6.94772 42.4114 6.96818 41.8334C7.00142 40.91 7.05768 39.9867 7.10882 39.066C7.19576 37.5237 7.28526 35.9814 7.37477 34.4391C7.39267 34.1527 7.41057 33.8662 7.44381 33.5823C7.51285 32.9684 7.76345 32.6897 8.36949 32.5362C9.27472 32.3086 10.1825 32.0912 11.0877 31.8559C11.3153 31.797 11.5301 31.6922 11.7449 31.5924C12.1183 31.4185 12.4839 31.2343 12.8343 31.0655L12.8292 31.0579Z" fill="#E6E6E7"/>
<path d="M6.55662 32.4851C6.47735 33.3368 6.37507 34.1655 6.32392 34.9993C6.2063 36.9047 6.11424 38.8153 6.0094 40.7515H4.05062C4.05062 40.4446 4.05062 40.1453 4.05062 39.8461C4.05062 38.5059 4.04807 37.1656 4.05062 35.8254C4.05062 35.475 3.99692 35.1451 3.57244 35.1476C3.15562 35.1527 3.08914 35.4827 3.08914 35.8305C3.09169 37.4572 3.08914 39.0839 3.08914 40.7643C2.58794 40.7643 2.09696 40.7975 1.61111 40.7541C1.17383 40.7157 0.923235 40.3397 0.948806 39.8026C1.01785 38.3064 1.10223 36.8076 1.18406 35.3113C1.22498 34.5798 1.27101 33.8458 1.31704 33.1143C1.35539 32.5234 1.54462 32.306 2.11998 32.15C3.32439 31.8201 4.52881 31.4799 5.7946 31.127C5.8483 31.2906 5.90967 31.6052 6.05287 31.8738C6.18584 32.1193 6.41087 32.3188 6.54895 32.4825L6.55662 32.4851Z" fill="#E6E6E7"/>
<path d="M34.8054 20.9551C35.2452 21.1597 35.6646 21.395 36.1096 21.551C36.5392 21.7019 36.9969 21.771 37.5313 21.8963C37.5313 22.1111 37.5313 22.3899 37.5313 22.6687C37.5288 23.5946 37.539 24.5179 37.5185 25.4438C37.4827 27.2291 36.0814 28.6511 34.2377 28.7969C32.504 28.9325 30.8265 27.6536 30.535 25.9426C30.4532 25.4617 30.4557 24.9655 30.4148 24.4412C31.2101 24.3721 31.8826 24.1164 32.3889 23.5434C32.596 23.3081 32.8211 23.0447 32.9055 22.7557C33.0589 22.2314 33.3555 21.9142 33.8465 21.6815C34.1968 21.5152 34.4807 21.2108 34.8054 20.9576V20.9551Z" fill="#F7CEB3"/>
<path d="M45.8112 40.7796C45.8112 39.1299 45.8112 37.5518 45.8112 35.9737C45.8112 35.8305 45.8522 35.6515 45.7831 35.5517C45.6706 35.388 45.466 35.1501 45.3331 35.1681C45.1592 35.1911 44.993 35.4213 44.8728 35.5952C44.8114 35.6821 44.8549 35.8433 44.8549 35.9712C44.8549 37.406 44.8549 38.8409 44.8549 40.2757C44.8549 40.4318 44.8549 40.5852 44.8549 40.7617H43.116C42.7836 38.025 42.983 35.2269 42.446 32.4518C43.0188 32.2549 42.937 31.5515 43.1723 31.1397C44.4764 31.508 45.7678 31.8635 47.0515 32.237C47.4478 32.352 47.6396 32.6513 47.6626 33.058C47.7879 35.2704 47.9183 37.4827 48.0334 39.6951C48.0743 40.465 47.7649 40.7745 46.9978 40.7796C46.6193 40.7822 46.2383 40.7796 45.8112 40.7796Z" fill="#E6E6E7"/>
<path d="M11.4175 22.3541C13.095 22.5101 14.5603 22.152 15.8261 20.8297C15.734 21.7965 15.803 22.5996 16.34 23.2928C16.8796 23.9884 17.5854 24.3542 18.4497 24.4258C18.8563 26.4336 17.6877 28.293 15.7621 28.7048C13.4556 29.1959 11.4712 27.6127 11.4226 25.2519C11.4022 24.3005 11.4201 23.349 11.4201 22.3541H11.4175Z" fill="#F6CEB2"/>
<path d="M38.4902 26.0576C39.8787 25.6893 40.3748 25.101 40.4924 23.7429C40.5027 23.6329 40.5973 23.4974 40.6945 23.4334C41.1292 23.147 41.5792 22.8835 42.0651 22.5843C42.3566 22.7224 42.6993 22.9168 43.0675 23.0472C43.4204 23.1726 43.7988 23.2263 44.2105 23.3235C44.2105 24.3465 44.2642 25.3977 44.1977 26.4387C44.098 27.9554 42.6788 29.0117 41.0013 28.8992C39.6051 28.8046 38.4467 27.5104 38.4902 26.0576Z" fill="#F7CEB2"/>
<path d="M10.4332 26.0704C10.3999 27.715 9.14181 28.912 7.49757 28.9018C5.93771 28.8916 4.69494 27.6383 4.69238 26.0704C4.69238 25.3083 4.69238 24.5461 4.69238 23.7225C6.04256 23.8171 7.27254 23.5665 8.24937 22.546C8.41303 22.6432 8.55623 22.7276 8.69687 22.812C8.18288 24.5179 8.66619 25.4233 10.4357 26.0704H10.4332Z" fill="#F7CEB2"/>
<path d="M10.2133 21.7377C9.8502 19.3744 10.8424 17.5405 13.0006 17.0955C13.7652 16.9369 14.5912 16.9804 15.3762 17.052C16.1357 17.1211 16.6522 17.827 16.6522 18.5815C16.6522 18.7887 16.6522 18.9958 16.6522 19.203C16.6471 19.7785 16.4528 19.8936 15.9055 19.8169C15.6652 19.7836 15.302 19.8757 15.1563 20.047C14.1053 21.2824 12.7653 21.5024 11.2592 21.2875C11.0674 21.2594 10.8475 21.3847 10.6506 21.4666C10.5023 21.5279 10.3719 21.6354 10.2108 21.7377H10.2133Z" fill="#6C6B6A"/>
<path d="M33.2403 20.9193C32.1637 19.776 32.4834 18.4639 32.4604 17.2209C32.4604 17.1313 32.6189 16.96 32.7058 16.9574C33.2301 16.9446 33.7568 16.9446 34.2785 16.9881C34.8206 17.0342 35.2246 17.3539 35.5315 17.781C35.7591 18.0981 36.025 18.1621 36.3549 17.9779C37.4647 17.3641 39.0578 18.1442 38.9708 19.6941C38.9376 20.2671 38.9708 20.8425 38.9581 21.4155C38.9555 21.5127 38.8558 21.6098 38.8021 21.707C38.7228 21.6329 38.5975 21.5689 38.5719 21.4794C38.4466 21.0369 38.1321 20.886 37.7153 20.8579C36.8254 20.7991 36.002 20.5765 35.3065 19.9678C34.9433 19.6507 34.5086 19.7453 34.166 20.0983C33.8668 20.4052 33.5267 20.6686 33.2428 20.9193H33.2403Z" fill="#6C6B6A"/>
<path d="M9.09565 21.8809C8.8962 21.73 8.80925 21.661 8.71975 21.5996C8.27993 21.2875 7.99864 21.2952 7.63297 21.6942C7.1062 22.2697 6.49248 22.661 5.69977 22.7096C5.43382 22.7275 5.16532 22.6968 4.90194 22.7096C4.51069 22.7301 4.12201 22.7684 3.64894 22.8068C3.52364 22.083 3.59779 21.2594 4.11945 20.5279C4.7434 19.6481 5.62305 19.2337 6.69961 19.2312C6.98601 19.2312 7.27497 19.2209 7.56137 19.2312C8.41034 19.267 9.09821 19.9882 9.09821 20.8272C9.09821 21.1392 9.09821 21.4512 9.09821 21.8809H9.09565Z" fill="#6C6B6A"/>
<path d="M45.2513 22.9961C45.0953 22.4027 44.6785 22.3388 44.1722 22.2544C43.5994 22.1597 43.0419 21.8835 42.5202 21.6022C42.0625 21.3566 41.7608 21.3362 41.3798 21.7326C41.0166 22.1111 40.6331 22.4564 40.0449 22.5792V19.2542C40.9476 19.2516 41.9142 18.9754 42.5842 19.932C42.7683 20.1954 43.0035 20.2287 43.2925 20.0803C44.4355 19.4997 45.5223 20.4793 45.3919 21.4871C45.3305 21.9602 45.3817 22.4487 45.3817 22.9296C45.3382 22.95 45.2922 22.9731 45.2487 22.9935L45.2513 22.9961Z" fill="#6C6B6A"/>
<path d="M29.7371 26.7047C30.067 27.6408 30.696 28.449 31.5936 29.0578C31.9056 29.2701 31.7879 30.0527 31.4504 30.2317C31.2816 30.3213 31.0924 30.3801 30.9415 30.4901C29.8138 31.3034 28.7679 30.9402 27.7451 30.2727C27.6684 30.2215 27.5891 30.1115 27.584 30.0246C27.5661 29.6281 27.5635 29.2266 27.584 28.8301C27.5891 28.7278 27.6965 28.6179 27.7834 28.5386C28.4253 27.9298 29.0722 27.3288 29.7345 26.7073L29.7371 26.7047Z" fill="#FAFAFA"/>
<path d="M19.2425 26.692C19.9636 27.3979 20.6949 28.114 21.4288 28.8302C21.4569 28.802 21.4876 28.7739 21.5158 28.7432C21.5209 28.7892 21.5337 28.8378 21.5337 28.8839C21.5183 29.3238 21.6717 29.9402 21.4442 30.1678C21.0376 30.5694 20.4162 30.7868 19.8485 30.9761C19.6005 31.0605 19.2501 30.93 18.9765 30.8226C18.4907 30.6308 18.0227 30.3904 17.5547 30.1474C17.2811 30.0041 17.2428 29.1729 17.5164 28.9734C18.35 28.3672 18.9407 27.5871 19.2425 26.6894V26.692Z" fill="#FAFAFA"/>
<path d="M22.5412 29.2292C23.8786 29.6716 25.2185 29.6614 26.584 29.1652C26.6326 29.7484 26.6812 30.2804 26.3923 30.797C26.1007 31.3239 25.8425 31.8687 25.6021 32.4211C25.487 32.6795 25.3362 32.7716 25.06 32.7562C24.569 32.7281 23.9681 32.8994 23.6152 32.6718C23.2649 32.4467 23.1805 31.8278 22.9529 31.3955C22.6077 30.7382 22.3571 30.0655 22.5412 29.2292Z" fill="#F7CEB2"/>
<path d="M11.1083 27.7406C11.5507 28.1422 12.0365 28.5923 12.53 29.0322C12.8292 29.2982 12.7576 30.0093 12.4022 30.1985C11.208 30.8303 10.9855 30.8226 9.83481 30.1192C9.54586 29.9428 9.56376 29.4184 9.83481 29.1422C10.2849 28.6793 10.7068 28.1908 11.1134 27.7406H11.1083Z" fill="#F8F8F8"/>
<path d="M37.81 27.8096C38.2345 28.2521 38.6641 28.7355 39.1321 29.1754C39.467 29.49 39.4364 29.976 39.0195 30.1857C38.9352 30.2292 38.838 30.2573 38.7664 30.3161C37.9686 30.9607 37.2577 30.5361 36.5545 30.1294C36.3166 29.9913 36.3294 29.1805 36.5545 28.9708C36.9943 28.5641 37.4341 28.1549 37.81 27.8071V27.8096Z" fill="#F8F7F7"/>
<path d="M34.9127 31.8431C33.2122 31.9582 33.0511 31.8405 32.711 30.2292C32.67 30.0323 32.6777 29.8251 32.6675 29.6716H35.4241C35.5826 30.4159 35.0891 31.0886 34.9101 31.8431H34.9127Z" fill="#F5CDB1"/>
<path d="M14.169 31.8661C13.9491 31.1269 13.7343 30.4082 13.5144 29.6716H16.381C16.5139 30.3878 16.0613 31.0374 15.8593 31.7408C15.8414 31.8073 15.6522 31.8584 15.5422 31.861C15.1126 31.8738 14.683 31.8661 14.169 31.8661Z" fill="#F5CDB1"/>
<path d="M27.9675 34.7512C27.4765 34.1425 27.0444 33.6156 26.625 33.0759C26.5738 33.0094 26.5559 32.8662 26.5917 32.7894C26.8347 32.26 27.0929 31.7382 27.3614 31.1832C27.9342 31.4646 28.4712 31.728 29.0645 32.0196C28.7039 32.9148 28.3536 33.7869 27.9675 34.7512Z" fill="#E4E4E5"/>
<path d="M21.746 31.1832C21.9966 31.728 22.2395 32.2395 22.4594 32.7588C22.5003 32.8559 22.4978 33.0248 22.4364 33.1015C22.0273 33.6412 21.5977 34.1629 21.1297 34.7512C20.7487 33.8125 20.4009 32.9531 20.0276 32.0375C20.6055 31.751 21.1604 31.4748 21.7434 31.1832H21.746Z" fill="#E4E4E5"/>
<path d="M18.4524 19.8246V23.3977C17.4883 23.3363 16.7698 22.5818 16.757 21.6277C16.7442 20.7147 17.5088 19.8936 18.4524 19.8246Z" fill="#F5CDB1"/>
<path d="M30.54 23.4156V19.8271C31.5041 19.9806 32.1434 20.6405 32.1638 21.4845C32.192 22.5357 31.6652 23.1777 30.54 23.4156Z" fill="#F6CEB2"/>
<path d="M6.50024 29.843H8.76843C8.60222 30.3443 8.43089 30.8712 8.24166 31.393C8.2212 31.4467 8.08567 31.4748 8.00129 31.485C7.01679 31.5822 7.01167 31.5822 6.70226 30.6564C6.61532 30.3955 6.56673 30.1192 6.50024 29.8456V29.843Z" fill="#F3CBB0"/>
<path d="M40.3058 29.843H42.5356C42.3668 30.352 42.2339 30.8993 41.996 31.3981C41.858 31.6897 40.7456 31.4518 40.6356 31.1321C40.518 30.7868 40.4081 30.4415 40.3058 30.0911C40.2802 30.0067 40.3032 29.907 40.3032 29.8405L40.3058 29.843Z" fill="#F3CBB0"/>
<path d="M10.405 24.9553C9.79381 24.7814 9.48951 24.4284 9.47417 23.8887C9.45627 23.3209 9.74523 22.9424 10.405 22.7045V24.9553Z" fill="#F5CDB1"/>
<path d="M38.5771 24.968V22.7377C39.132 22.8477 39.4849 23.2595 39.5054 23.8196C39.5259 24.3516 39.1832 24.7915 38.5771 24.968Z" fill="#F3CBB0"/>
<path d="M3.69502 24.0754V25.7277C3.26286 25.6152 3.08386 25.3287 3.05829 24.9425C3.03016 24.523 3.2066 24.2187 3.69502 24.0754Z" fill="#E4BFA5"/>
<path d="M45.2078 25.7583V24.0294C45.6118 24.193 45.8547 24.4463 45.8496 24.8811C45.8445 25.3005 45.6425 25.5844 45.2078 25.7583Z" fill="#EBC5AB"/>
<path d="M18.253 31.5566C17.7748 31.6794 17.3861 31.7817 16.8977 31.9096C17.0025 31.5848 17.0844 31.3341 17.1815 31.0349C17.5319 31.2062 17.8515 31.3622 18.253 31.5566Z" fill="#E4E4E5"/>
<path d="M32.2252 31.9147C31.7189 31.7868 31.3302 31.6871 30.8367 31.5617C31.233 31.3648 31.5373 31.2139 31.903 31.0323C32.0027 31.3085 32.0948 31.5566 32.2252 31.9147Z" fill="#E4E4E5"/>
<path d="M27.9164 41.1223C27.5661 41.1223 27.2158 41.13 26.8654 41.1223C26.5637 41.1147 26.3284 40.9919 26.3157 40.6517C26.3029 40.2783 26.5509 40.1555 26.8757 40.1504C27.5917 40.1427 28.3102 40.1453 29.0262 40.1504C29.328 40.153 29.5709 40.2681 29.576 40.6134C29.5811 40.9765 29.3382 41.1121 29.0134 41.1223C28.6478 41.1326 28.2821 41.1223 27.9139 41.1223H27.9164Z" fill="#252527"/>
<path d="M25.0703 43.2426C24.899 43.3552 24.6944 43.5854 24.564 43.5496C24.3722 43.4959 24.2341 43.2503 24.073 43.0866C24.229 42.9357 24.3773 42.6697 24.541 42.6621C24.7148 42.6544 24.899 42.8871 25.0805 43.015C25.078 43.0917 25.0754 43.1659 25.0728 43.2426H25.0703Z" fill="#252527"/>
<path d="M24.4539 38.7155C24.3286 38.5288 24.1189 38.3549 24.0959 38.1554C24.0626 37.8715 24.3005 37.6567 24.5817 37.7308C24.7633 37.7794 25.0165 38.0147 25.019 38.1682C25.019 38.3498 24.7889 38.5365 24.6559 38.7207C24.5894 38.7207 24.5229 38.7207 24.4539 38.7181V38.7155Z" fill="#252527"/>
<path d="M25.0856 35.7947C24.8989 35.9175 24.6918 36.1605 24.5281 36.1349C24.3517 36.1042 24.2162 35.8254 24.0627 35.654C24.2366 35.5082 24.4003 35.2729 24.5921 35.2422C24.7353 35.2192 24.9219 35.4622 25.0882 35.5875C25.0882 35.6566 25.0882 35.7257 25.0882 35.7947H25.0856Z" fill="#252527"/>
<path d="M24.0243 40.4957C24.2135 40.3883 24.4181 40.1811 24.5894 40.2042C24.7479 40.2246 24.9883 40.5009 24.9806 40.6543C24.9704 40.8154 24.7147 41.0763 24.5587 41.084C24.3823 41.0917 24.1982 40.864 24.0166 40.7387C24.0192 40.6594 24.0217 40.5776 24.0268 40.4983L24.0243 40.4957Z" fill="#252527"/>
<path d="M25.0755 45.6494C24.8913 45.7747 24.7021 46.0024 24.5231 45.9947C24.3748 45.9896 24.1498 45.7262 24.114 45.5446C24.0552 45.2555 24.2776 45.0432 24.5691 45.0918C24.7507 45.1225 24.9067 45.3144 25.0729 45.432C25.0729 45.5036 25.0729 45.5778 25.0729 45.6494H25.0755Z" fill="#252527"/>
<path d="M24.546 26.4694C23.7252 26.431 23.0245 26.1139 22.4926 25.4463C22.2881 25.1906 22.2037 24.9271 22.4875 24.6918C22.7611 24.4642 23.0066 24.5614 23.2317 24.812C24.073 25.7456 25.06 25.7507 25.8936 24.8299C26.1187 24.5818 26.3693 24.4693 26.6403 24.6867C26.9216 24.9118 26.8423 25.1957 26.6403 25.4438C26.1059 26.1011 25.4078 26.431 24.546 26.4694Z" fill="#292424"/>
<path d="M27.2003 21.7658C27.029 21.8784 26.8321 22.1034 26.6889 22.0728C26.4971 22.0318 26.2516 21.817 26.2056 21.6328C26.134 21.3489 26.382 21.1341 26.6608 21.1801C26.8577 21.2134 27.0239 21.4231 27.2054 21.5535C27.2054 21.6226 27.2029 21.6942 27.2003 21.7633V21.7658Z" fill="#2C2726"/>
<path d="M22.5412 21.0906C22.6639 21.2748 22.8813 21.4589 22.8813 21.6405C22.8813 21.794 22.6 22.0907 22.4926 22.0702C22.2983 22.0319 22.0374 21.8247 22.0042 21.6482C21.9735 21.4896 22.2088 21.2799 22.329 21.0932C22.4006 21.0932 22.4722 21.0932 22.5438 21.0906H22.5412Z" fill="#2C2726"/>
</g>
<defs>
<clipPath id="clip0_340_679">
<rect width="49" height="49" fill="white"/>
</clipPath>
</defs>
</svg>
