<svg width="29" height="38" viewBox="0 0 29 38" fill="none" xmlns="http://www.w3.org/2000/svg">
<g clip-path="url(#clip0_230_28)">
<path d="M25.3861 19.0686V23.39C25.9353 23.5306 26.4805 23.6091 26.9769 23.8088C28.3615 24.3672 29.1442 25.7794 28.9788 27.2702C28.8783 28.1791 28.792 29.091 28.7331 30.003C28.6407 31.4581 27.9088 32.5056 26.717 33.2616C26.1089 33.6478 25.4805 34.0024 24.8532 34.357C24.4715 34.573 24.2969 34.8797 24.307 35.321C24.3212 35.9558 24.3131 36.5916 24.3101 37.2274C24.308 37.7807 24.1019 37.9978 23.5619 37.9978C19.8637 37.9998 16.1654 37.9998 12.4672 37.9978C11.9221 37.9978 11.7038 37.7797 11.6977 37.2417C11.6947 36.9492 11.6886 36.6568 11.6988 36.3644C11.7272 35.5625 11.6521 34.8054 11.3008 34.0422C11.047 33.4909 10.9902 32.8123 10.981 32.1877C10.9465 29.8237 10.9648 27.4587 10.9678 25.0947C10.9699 23.3156 12.2094 22.3415 13.9362 22.7542C13.9585 22.7592 13.9839 22.7542 14.0072 22.7542C14.8062 21.2716 16.1807 21.0749 17.3217 21.6822C18.1491 20.542 19.2272 20.2282 20.5631 20.7651V19.0696H20.151C14.2874 19.0696 8.42386 19.0696 2.55929 19.0696C1.3411 19.0696 0.437615 18.4531 0.123931 17.3944C0.0457642 17.1305 0.00921856 16.8452 0.00718825 16.5701C-0.00296333 14.7146 -0.00194817 12.858 0.00312762 11.0025C0.00718825 9.49547 1.00306 8.49078 2.50143 8.48874C5.30022 8.48364 8.09901 8.48772 10.8978 8.48772C11.0359 8.48772 11.1729 8.48772 11.316 8.48772C10.4521 5.29736 11.2389 2.69698 14.0468 0.903616C16.1644 -0.448541 18.9409 -0.239655 20.9336 1.25414C22.6401 2.53293 24.1659 5.11803 23.0827 8.48772C23.5071 8.48772 23.9162 8.48772 24.3263 8.48772C24.8207 8.48772 25.314 8.48262 25.8084 8.48874C27.186 8.50606 28.2062 9.46898 28.2275 10.8466C28.257 12.804 28.258 14.7625 28.2265 16.7189C28.2042 18.0669 27.2175 19.0146 25.8734 19.0676C25.7221 19.0737 25.5699 19.0676 25.3851 19.0676L25.3861 19.0686ZM23.0787 36.7016V35.7978H12.9372V36.7628H13.8966C16.9349 36.7628 19.9733 36.7628 23.0127 36.7638C23.035 36.7424 23.0563 36.722 23.0787 36.7006V36.7016ZM12.8905 34.5629H13.4601C16.5867 34.5629 19.7144 34.5649 22.8411 34.5557C22.9741 34.5557 23.1832 34.4824 23.2269 34.3845C23.4573 33.872 23.836 33.5266 24.3131 33.2565C24.9181 32.9142 25.5201 32.5647 26.1089 32.1948C26.8358 31.7383 27.3697 31.1116 27.4784 30.2343C27.6113 29.1634 27.6956 28.0864 27.7717 27.0093C27.8337 26.1381 27.3413 25.2852 26.5241 24.9694C26.0531 24.787 25.5211 24.734 25.0115 24.6861C24.2989 24.6199 24.1517 24.4966 24.1517 23.7853C24.1517 21.0912 24.1497 18.3971 24.1537 15.704C24.1537 15.2862 24.0421 14.9245 23.7121 14.6585C23.3446 14.362 22.9305 14.3039 22.5031 14.5016C22.032 14.7197 21.8057 15.1109 21.8057 15.6286C21.8036 17.5605 21.8057 19.4914 21.8046 21.4234C21.8046 21.8045 21.8087 22.1856 21.8006 22.5667C21.7945 22.852 21.6453 23.0466 21.3752 23.1312C21.1042 23.2168 20.8687 23.1373 20.7083 22.905C20.6321 22.7939 20.6017 22.6502 20.5509 22.5208C20.3388 21.9797 19.8373 21.6802 19.2536 21.7454C18.7267 21.8045 18.282 22.2508 18.2313 22.8102C18.2008 23.1495 18.0841 23.4114 17.74 23.4929C17.3907 23.5744 17.1745 23.3778 17.005 23.0884C16.8273 22.7868 16.5532 22.6135 16.1989 22.5911C15.5726 22.5514 15.1117 22.9997 15.1005 23.6753C15.0955 24.0136 15.0508 24.3213 14.6975 24.4609C14.3605 24.5944 14.1443 24.3947 13.8996 24.1817C13.7138 24.0207 13.4397 23.8964 13.1971 23.8801C12.5748 23.8383 12.1952 24.2979 12.1942 25.0346C12.1911 27.2967 12.2114 29.5588 12.184 31.8198C12.1718 32.799 12.3251 33.713 12.8905 34.5629ZM25.3699 17.8041C26.4409 17.9182 26.9992 17.4973 27.0033 16.5793C27.0124 14.7105 27.0114 12.8427 27.0033 10.974C26.9992 10.1517 26.5444 9.71556 25.7171 9.71251C24.7293 9.70945 23.7416 9.71964 22.7538 9.70639C22.5274 9.70334 22.3924 9.77059 22.2564 9.95502C19.7002 13.4266 14.7128 13.4154 12.1393 9.94789C12.048 9.82459 11.8388 9.72168 11.6835 9.72168C8.64415 9.70843 5.60477 9.71149 2.5664 9.71251C1.66189 9.71251 1.22335 10.1588 1.22233 11.0759C1.22132 12.8427 1.22233 14.6096 1.22233 16.3765C1.22233 17.4474 1.6152 17.8367 2.69634 17.8367C8.50913 17.8367 14.3209 17.8367 20.1337 17.8367H20.5834C20.5834 17.0826 20.5793 16.3622 20.5834 15.6408C20.5925 14.2448 21.6453 13.1586 22.9802 13.1607C24.3202 13.1627 25.3587 14.2438 25.3658 15.6479C25.3699 16.3592 25.3658 17.0704 25.3658 17.803L25.3699 17.8041ZM12.1962 6.27658C12.1931 9.06445 14.4305 11.3153 17.205 11.3174C19.9814 11.3194 22.232 9.07056 22.2371 6.29085C22.2422 3.52336 19.9763 1.24293 17.2192 1.23987C14.4539 1.23682 12.1992 3.49788 12.1962 6.27658Z" fill="#030303"/>
<path d="M12.8905 34.5631C12.325 33.7132 12.1727 32.7982 12.1839 31.82C12.2113 29.559 12.19 27.2969 12.1941 25.0348C12.1951 24.2981 12.5758 23.8385 13.197 23.8803C13.4397 23.8966 13.7138 24.0209 13.8995 24.1819C14.1442 24.3939 14.3604 24.5936 14.6974 24.4611C15.0507 24.3215 15.0954 24.0138 15.1005 23.6755C15.1116 22.9999 15.5725 22.5526 16.1989 22.5913C16.5531 22.6137 16.8283 22.787 17.0049 23.0886C17.1744 23.378 17.3917 23.5746 17.7399 23.4931C18.084 23.4126 18.1997 23.1497 18.2312 22.8104C18.282 22.25 18.7266 21.8047 19.2535 21.7456C19.8372 21.6793 20.3387 21.9799 20.5508 22.521C20.6016 22.6504 20.631 22.7941 20.7082 22.9052C20.8686 23.1375 21.1041 23.217 21.3751 23.1314C21.6452 23.0468 21.7944 22.8532 21.8005 22.5669C21.8086 22.1858 21.8035 21.8047 21.8046 21.4236C21.8046 19.4916 21.8035 17.5607 21.8056 15.6288C21.8056 15.1122 22.032 14.7199 22.503 14.5018C22.9304 14.3041 23.3446 14.3622 23.712 14.6587C24.042 14.9247 24.1546 15.2864 24.1536 15.7042C24.1486 18.3983 24.1516 21.0924 24.1516 23.7855C24.1516 24.4968 24.2978 24.6201 25.0114 24.6863C25.5221 24.7342 26.053 24.7872 26.524 24.9696C27.3412 25.2854 27.8336 26.1383 27.7717 27.0095C27.6945 28.0866 27.6113 29.1636 27.4783 30.2345C27.3696 31.1118 26.8357 31.7375 26.1088 32.195C25.52 32.5649 24.918 32.9154 24.313 33.2568C23.8359 33.5268 23.4582 33.8712 23.2268 34.3847C23.1831 34.4826 22.974 34.5559 22.841 34.5559C19.7143 34.5651 16.5866 34.5631 13.46 34.5631H12.8905Z" fill="#F4DBCC"/>
<path d="M25.3698 17.8043C25.3698 17.0716 25.3728 16.3604 25.3698 15.6492C25.3627 14.245 24.3232 13.1639 22.9842 13.1619C21.6493 13.1598 20.5965 14.245 20.5874 15.642C20.5823 16.3624 20.5874 17.0838 20.5874 17.8379H20.1377C14.3249 17.8379 8.51312 17.8379 2.70033 17.8379C1.61918 17.8379 1.22632 17.4476 1.22632 16.3777C1.22632 14.6108 1.22632 12.844 1.22632 11.0771C1.22632 10.16 1.66588 9.71373 2.57039 9.71373C5.60977 9.71271 8.64915 9.70965 11.6875 9.7229C11.8428 9.7229 12.0509 9.82581 12.1433 9.9491C14.7167 13.4166 19.7032 13.4278 22.2604 9.95624C22.3964 9.77181 22.5314 9.70455 22.7578 9.70761C23.7456 9.72086 24.7333 9.71067 25.721 9.71373C26.5474 9.71678 27.0032 10.1529 27.0073 10.9752C27.0154 12.844 27.0164 14.7117 27.0073 16.5805C27.0022 17.4996 26.4449 17.9194 25.3739 17.8053L25.3698 17.8043ZM10.0937 14.5813C7.99234 14.5813 5.89198 14.5813 3.79061 14.5813C3.67691 14.5813 3.56016 14.5701 3.44951 14.5894C3.11959 14.6455 2.92671 14.8503 2.92265 15.1855C2.91859 15.5228 3.11248 15.7266 3.43733 15.7938C3.53479 15.8142 3.63935 15.803 3.73985 15.803C7.96696 15.803 12.1941 15.803 16.4222 15.803C16.5359 15.803 16.6547 15.8173 16.7623 15.7898C17.081 15.7072 17.2658 15.5024 17.2496 15.159C17.2343 14.834 17.0445 14.6506 16.7369 14.5905C16.6273 14.5691 16.5095 14.5813 16.3958 14.5813C14.2944 14.5813 12.1941 14.5813 10.0927 14.5813H10.0937ZM7.06753 12.9785C8.23192 12.9785 9.39529 12.9815 10.5597 12.9774C10.9992 12.9754 11.2754 12.7309 11.2754 12.363C11.2754 11.9942 11.0023 11.7567 10.5587 11.7567C8.24309 11.7547 5.92751 11.7547 3.61194 11.7588C3.49012 11.7588 3.3551 11.7771 3.2475 11.8301C2.97746 11.9646 2.87189 12.201 2.93787 12.4955C3.01198 12.8307 3.24851 12.9764 3.57539 12.9774C4.73978 12.9815 5.90315 12.9785 7.06753 12.9795V12.9785Z" fill="#E8EBED"/>
<path d="M12.1961 6.27678C12.1992 3.49808 14.4538 1.23701 17.2191 1.24007C19.9763 1.24313 22.2421 3.52356 22.237 6.29105C22.232 9.07076 19.9813 11.3196 17.2049 11.3176C14.4305 11.3155 12.1941 9.06465 12.1961 6.27678ZM16.4181 5.87837C16.1938 5.64808 15.9522 5.39029 15.7014 5.1437C15.071 4.52213 14.1828 4.50176 13.6021 5.08868C13.0336 5.66337 13.0407 6.55801 13.6356 7.17142C14.2264 7.78076 14.8254 8.38399 15.4334 8.97702C16.0496 9.57718 16.8973 9.58941 17.5064 8.98415C18.6302 7.86737 19.7367 6.73327 20.8432 5.59815C21.161 5.27311 21.3011 4.86756 21.2341 4.41209C21.1498 3.83638 20.831 3.42574 20.2839 3.23213C19.7042 3.0263 19.1895 3.17609 18.752 3.60202C17.9896 4.34484 17.2282 5.08868 16.4181 5.87837Z" fill="#88C6FB"/>
<path d="M13.8965 35.799H23.0786V36.7029C23.0562 36.7243 23.0349 36.7446 23.0126 36.766C19.9742 36.766 16.9359 36.766 13.8965 36.765C13.8965 36.443 13.8965 36.1221 13.8965 35.8001V35.799Z" fill="#EBEEF0"/>
<path d="M13.8965 35.799C13.8965 36.121 13.8965 36.442 13.8965 36.764H12.9372V35.799H13.8965Z" fill="#D2D4D7"/>
<path d="M10.0937 14.5813C12.1951 14.5813 14.2954 14.5813 16.3968 14.5813C16.5105 14.5813 16.6273 14.5691 16.7379 14.5905C17.0455 14.6506 17.2353 14.834 17.2506 15.159C17.2668 15.5024 17.082 15.7072 16.7633 15.7898C16.6557 15.8173 16.5369 15.803 16.4232 15.803C12.1961 15.803 7.96898 15.803 3.74085 15.803C3.63933 15.803 3.53579 15.8142 3.43833 15.7938C3.11348 15.7266 2.91959 15.5228 2.92365 15.1855C2.92771 14.8503 3.11957 14.6455 3.45051 14.5894C3.56117 14.5711 3.67791 14.5813 3.79161 14.5813C5.89298 14.5813 7.99334 14.5813 10.0947 14.5813H10.0937Z" fill="black"/>
<path d="M7.06755 12.9785C5.90317 12.9785 4.7398 12.9805 3.57541 12.9774C3.24955 12.9774 3.01301 12.8307 2.93789 12.4955C2.87292 12.201 2.97748 11.9646 3.24752 11.8301C3.35512 11.7771 3.48912 11.7588 3.61196 11.7588C5.92753 11.7547 8.2431 11.7547 10.5587 11.7567C11.0023 11.7567 11.2744 11.9942 11.2754 12.363C11.2754 12.7309 10.9993 12.9754 10.5597 12.9774C9.39531 12.9815 8.23194 12.9785 7.06755 12.9785Z" fill="#020202"/>
<path d="M16.4181 5.87837C17.2272 5.08868 17.9896 4.34484 18.752 3.60202C19.1895 3.17507 19.7052 3.02631 20.2838 3.23213C20.83 3.42574 21.1488 3.83638 21.234 4.41209C21.301 4.86654 21.1609 5.27209 20.8432 5.59816C19.7367 6.73226 18.6302 7.86737 17.5064 8.98415C16.8973 9.58941 16.0496 9.57719 15.4334 8.97702C14.8253 8.385 14.2264 7.78178 13.6356 7.17143C13.0407 6.55699 13.0336 5.66337 13.6021 5.08868C14.1828 4.50176 15.071 4.52315 15.7014 5.1437C15.9532 5.39131 16.1938 5.64808 16.4181 5.87837ZM16.476 8.22401C16.5714 8.15268 16.6679 8.09766 16.743 8.02124C17.7855 6.96865 18.8261 5.91301 19.8646 4.85635C19.9174 4.80337 19.9823 4.74121 19.9945 4.67498C20.0077 4.6006 19.9905 4.48953 19.9417 4.44368C19.893 4.39782 19.7712 4.37846 19.7103 4.40801C19.6118 4.45488 19.5336 4.54761 19.4534 4.62811C18.6342 5.45652 17.819 6.29003 16.9978 7.1164C16.6262 7.49036 16.3278 7.49036 15.9542 7.12455C15.5928 6.76996 15.2487 6.396 14.8741 6.05669C14.7837 5.97415 14.603 5.99147 14.4639 5.96294C14.4924 6.09541 14.4771 6.26863 14.5573 6.35218C15.1065 6.92993 15.675 7.49036 16.2405 8.05384C16.3004 8.11294 16.3785 8.1537 16.476 8.22299V8.22401Z" fill="#020303"/>
<path d="M16.476 8.22401C16.3786 8.15472 16.2994 8.11396 16.2405 8.05486C15.6751 7.49138 15.1076 6.93197 14.5574 6.3532C14.4782 6.26965 14.4934 6.09541 14.464 5.96396C14.6031 5.99249 14.7838 5.97517 14.8741 6.05771C15.2487 6.39804 15.5928 6.77098 15.9542 7.12557C16.3268 7.49138 16.6263 7.49036 16.9978 7.11742C17.8191 6.29105 18.6343 5.45856 19.4535 4.62913C19.5327 4.54863 19.6119 4.4559 19.7103 4.40903C19.7712 4.37948 19.892 4.39884 19.9418 4.44469C19.9905 4.49055 20.0078 4.60161 19.9946 4.676C19.9834 4.74223 19.9174 4.80337 19.8646 4.85737C18.8251 5.91403 17.7856 6.96967 16.743 8.02226C16.6679 8.09868 16.5715 8.1537 16.476 8.22503V8.22401Z" fill="#DFE2E4"/>
</g>
<defs>
<clipPath id="clip0_230_28">
<rect width="29" height="38" fill="white"/>
</clipPath>
</defs>
</svg>
