<svg width="36" height="38" viewBox="0 0 36 38" fill="none" xmlns="http://www.w3.org/2000/svg">
<g clip-path="url(#clip0_88_69)">
<path d="M28.0342 38H26.0877C26.0268 37.9723 25.9679 37.9297 25.904 37.9198C24.189 37.6566 22.6617 36.9807 21.3531 35.8477C21.1404 35.6636 20.9348 35.5874 20.6563 35.5884C14.7069 35.5953 8.75646 35.5933 2.80704 35.5933C2.67028 35.5933 2.53253 35.5943 2.39577 35.5864C0.965314 35.4983 0.00701741 34.5345 0.00402274 33.1134C-0.00496129 28.8721 0.00801564 24.6317 0.00801564 20.3904C0.00801564 20.0094 0.170726 19.7828 0.556041 19.7244C1.02521 19.8313 1.13401 19.9757 1.13401 20.5151C1.13202 24.2299 1.12802 27.9448 1.12603 31.6597C1.12603 31.7943 1.139 31.9299 1.14699 32.0645C1.14499 32.4959 1.11505 32.9294 1.14799 33.3579C1.19191 33.918 1.64311 34.3633 2.20411 34.4474C2.38778 34.4751 2.57645 34.4791 2.76312 34.4801C8.38412 34.482 14.0061 34.481 19.6271 34.481H19.9426C19.5383 33.6656 19.141 32.8651 18.7437 32.0635C18.7257 31.9922 18.7108 31.921 18.6908 31.8517C17.8902 29.0918 18.2715 26.5159 19.9236 24.1419C20.2051 23.7371 20.3758 23.6985 20.838 23.8915C21.0816 24.1785 21.0736 24.4585 20.854 24.7663C19.6451 26.4605 19.1909 28.3446 19.5083 30.3901C19.7908 32.2109 20.6274 33.7507 22.0528 34.957C23.8626 36.5463 25.9858 37.1589 28.3506 36.7878C32.7847 36.0901 35.6447 31.917 34.6914 27.5658C34.2531 25.5649 33.1581 23.9746 31.4082 22.8505C31.2974 22.7743 31.1926 22.6862 31.0738 22.6219C28.2887 21.1039 25.5436 21.1761 22.8524 22.8505C22.509 23.0642 22.2115 23.1691 21.8841 22.8604C21.7054 22.3992 21.7534 22.2379 22.1646 21.9598C22.3493 21.8352 22.538 21.7174 22.7306 21.6046C24.1601 20.7743 25.7193 20.4379 27.3604 20.4141C28.155 20.5249 28.9496 20.6368 29.7382 20.7466V5.64755H27.3604C27.2735 5.6426 27.1867 5.63271 27.0999 5.63271C18.5461 5.63271 9.99326 5.63271 1.43947 5.63271C1.34364 5.63271 1.24781 5.64557 1.13601 5.65349C1.13601 5.80984 1.13601 5.94344 1.13601 6.07802C1.13601 9.87208 1.13601 13.6671 1.13401 17.4612C1.13401 17.9906 1.03619 18.1232 0.555043 18.2628C0.0738985 18.1015 0.0100121 18.0124 0.0100121 17.4751C0.0100121 14.2856 0.0100121 11.0952 0.0100121 7.90578C0.0100121 6.10078 0.00502096 4.29578 0.0130068 2.49078C0.0199943 1.33198 0.608947 0.513594 1.69202 0.11875C1.76689 0.0920313 1.83277 0.0405729 1.90365 0C8.96709 0 16.0295 0 23.093 0C23.2207 0.192969 23.3485 0.385938 23.4763 0.577917C23.3066 1.04599 23.2078 1.11328 22.6747 1.11328C16.0166 1.11328 9.35939 1.11328 2.70123 1.11526C2.51556 1.11526 2.3229 1.1113 2.14422 1.15385C1.41452 1.32406 1.0851 1.8901 1.15498 2.8213V4.49469H29.7591C29.7591 3.7426 29.7801 3.01328 29.7531 2.28594C29.7302 1.6526 29.1742 1.14297 28.5183 1.11922C28.133 1.10536 27.7457 1.12318 27.3594 1.12714C26.7924 1.12318 26.2244 1.10932 25.6574 1.11823C25.2651 1.12417 25.0205 0.969792 24.9487 0.577917C25.0794 0.385938 25.2092 0.192969 25.34 0.000989583C26.5129 0.000989583 27.6858 0.000989583 28.8587 0.000989583C29.0035 0.0504688 29.1482 0.0969792 29.292 0.148438C30.3032 0.510625 30.8891 1.3963 30.8891 2.57688C30.8901 8.68359 30.8921 14.7903 30.8831 20.898C30.8831 21.1711 30.965 21.3067 31.2095 21.4304C34.3649 23.0306 36.4842 26.5535 35.9062 30.5761C35.4111 34.0199 32.614 37.0104 29.0674 37.7863C28.724 37.8615 28.3796 37.9297 28.0352 38.001L28.0342 38Z" fill="#030404"/>
<path d="M25.3389 0C25.2082 0.191979 25.0784 0.384948 24.9476 0.576927C24.4575 0.576927 23.9664 0.576927 23.4762 0.577917C23.3475 0.385938 23.2197 0.192969 23.0919 0C23.8406 0 24.5893 0 25.3379 0H25.3389Z" fill="#FBFAF5"/>
<path d="M0.554993 19.7234V18.2628C1.03614 18.1222 1.13396 17.9906 1.13396 17.4612C1.13496 13.6671 1.13496 9.87208 1.13596 6.07802C1.13596 5.94343 1.13596 5.80984 1.13596 5.65349C1.24776 5.64557 1.34359 5.63271 1.43942 5.63271C9.99321 5.63271 18.546 5.63271 27.0998 5.63271C27.1866 5.63271 27.2735 5.6426 27.3603 5.64755C27.3603 10.5697 27.3603 15.4919 27.3603 20.4141C25.7193 20.4369 24.16 20.7733 22.7306 21.6046C22.5379 21.7164 22.3482 21.8352 22.1646 21.9598C21.7533 22.2379 21.7064 22.3992 21.8841 22.8604C21.5347 23.2037 21.1863 23.5481 20.8369 23.8915C20.3748 23.6985 20.2041 23.7371 19.9226 24.1419C18.2705 26.5159 17.8892 29.0908 18.6898 31.8517C18.7097 31.922 18.7257 31.9932 18.7427 32.0635C12.8771 32.0635 7.01151 32.0635 1.14594 32.0645C1.13895 31.9299 1.12498 31.7943 1.12498 31.6597C1.12698 27.9448 1.12997 24.2299 1.13297 20.515C1.13297 19.9767 1.02416 19.8312 0.554993 19.7244V19.7234ZM18.0339 13.0764C20.5275 13.0764 23.0211 13.0783 25.5136 13.0744C25.8959 13.0744 26.1405 12.8626 26.1545 12.5469C26.1695 12.2184 25.9139 11.9809 25.5236 11.9621C25.4617 11.9591 25.3988 11.9621 25.3369 11.9621C20.4746 11.9621 15.6132 11.9621 10.7509 11.9641C10.5912 11.9641 10.3825 11.9423 10.2837 12.0284C10.125 12.1669 9.96227 12.3807 9.9433 12.5756C9.91835 12.8359 10.119 13.0279 10.4055 13.0655C10.5283 13.0823 10.654 13.0754 10.7788 13.0754C13.1975 13.0754 15.6162 13.0754 18.0349 13.0754L18.0339 13.0764ZM18.0409 9.43172C20.4716 9.43172 22.9033 9.43172 25.3339 9.43172C25.4338 9.43172 25.5336 9.43765 25.6334 9.42875C25.9379 9.40104 26.1175 9.22192 26.1485 8.93396C26.1804 8.64104 26.0247 8.43125 25.7382 8.35208C25.5975 8.31349 25.4427 8.32041 25.294 8.32041C20.4566 8.31942 15.6202 8.31942 10.7828 8.32041C10.658 8.32041 10.5313 8.31151 10.4095 8.33229C10.089 8.38672 9.86544 8.68458 9.93332 8.97453C10.0192 9.3387 10.2817 9.43765 10.6361 9.43666C13.1047 9.42974 15.5733 9.43271 18.0409 9.43271V9.43172ZM18.0409 18.1836C20.4716 18.1836 22.9033 18.1836 25.3339 18.1836C25.4457 18.1836 25.5615 18.1955 25.6693 18.1747C25.9778 18.1143 26.1595 17.9184 26.1495 17.6067C26.1405 17.3137 25.9598 17.1327 25.6663 17.0782C25.5815 17.0624 25.4927 17.0713 25.4048 17.0713C20.4925 17.0713 15.5813 17.0713 10.669 17.0713C10.5822 17.0713 10.4923 17.0634 10.4075 17.0792C10.114 17.1346 9.93532 17.3187 9.92833 17.6106C9.92134 17.9214 10.102 18.1173 10.4125 18.1757C10.5213 18.1965 10.6361 18.1846 10.7479 18.1846C13.1786 18.1846 15.6102 18.1846 18.0409 18.1846V18.1836ZM7.36089 28.2308C7.42777 28.1269 7.49565 28.0379 7.54756 27.9409C7.86999 27.3452 7.861 26.7494 7.48567 26.1883C7.09936 25.6104 6.52538 25.366 5.8386 25.4669C5.18476 25.5629 4.72957 25.9419 4.50297 26.5664C4.34925 26.9889 4.46804 27.3056 4.81741 27.4253C5.12287 27.5302 5.36544 27.3541 5.56209 26.9869C5.65393 26.8147 5.84359 26.6396 6.02627 26.5832C6.31875 26.4931 6.59426 26.7336 6.63418 27.0315C6.6801 27.3788 6.48944 27.6143 6.07518 27.6707C5.73678 27.7172 5.54113 27.8964 5.53714 28.2219C5.53214 28.5534 5.74177 28.7355 6.06819 28.786C6.13008 28.7959 6.19596 28.789 6.25286 28.8097C6.5134 28.9077 6.65615 29.0928 6.63918 29.3758C6.62221 29.6647 6.44652 29.834 6.17899 29.8834C5.90249 29.9349 5.69685 29.7983 5.57806 29.548C5.54213 29.4718 5.53714 29.3807 5.52017 29.2956C5.4433 28.9255 5.20073 28.7395 4.86733 28.7949C4.56486 28.8454 4.38918 29.1027 4.41513 29.4569C4.47403 30.2664 5.08793 30.8978 5.91946 31.0036C6.67112 31.0996 7.43776 30.6078 7.68332 29.8607C7.87997 29.263 7.7482 28.7187 7.36189 28.2298L7.36089 28.2308ZM6.11411 21.1494C6.43953 20.6971 6.736 20.3152 6.99754 19.9124C7.20517 19.5928 7.4108 19.2622 7.54656 18.9099C7.87598 18.05 7.42278 17.1228 6.55632 16.8061C5.70184 16.4944 4.73656 16.9239 4.40315 17.765C4.23146 18.1984 4.33228 18.5507 4.66469 18.6784C5.00009 18.807 5.24466 18.6576 5.43831 18.2034C5.44829 18.1806 5.45927 18.1589 5.47125 18.1371C5.61999 17.8541 5.91147 17.7462 6.19397 17.8689C6.48245 17.9946 6.60823 18.2657 6.47647 18.5666C6.36866 18.813 6.2339 19.0534 6.07718 19.2731C5.63197 19.8975 5.17079 20.5111 4.7146 21.1276C4.53392 21.371 4.35524 21.6145 4.53092 21.9361C4.69164 22.231 4.96715 22.2686 5.26662 22.2666C5.91446 22.2617 6.56231 22.2686 7.21016 22.2607C7.61045 22.2557 7.85002 22.0291 7.84204 21.6887C7.83405 21.3611 7.60047 21.1563 7.21715 21.1504C6.87276 21.1454 6.52737 21.1494 6.11411 21.1494ZM14.9614 21.8233C16.3948 21.8233 17.8283 21.8233 19.2617 21.8233C19.7569 21.8233 20.0264 21.6224 20.0194 21.2612C20.0124 20.903 19.7449 20.711 19.2438 20.71C18.533 20.709 17.8233 20.71 17.1126 20.71C15.0183 20.71 12.925 20.71 10.8307 20.71C10.7309 20.71 10.6311 20.706 10.5313 20.712C10.1629 20.7318 9.91735 20.9623 9.92234 21.28C9.92733 21.5977 10.1749 21.8213 10.5492 21.8223C12.0196 21.8262 13.491 21.8243 14.9614 21.8243V21.8233ZM13.8274 27.0107C14.8875 27.0107 15.9466 27.0117 17.0067 27.0107C17.4719 27.0107 17.7215 26.8039 17.7145 26.4377C17.7065 26.0854 17.4709 25.8984 17.0157 25.8984C14.8965 25.8964 12.7763 25.8974 10.657 25.8984C10.1899 25.8984 9.92434 26.1003 9.92234 26.4486C9.91934 26.7999 10.1879 27.0107 10.649 27.0117C11.7092 27.0136 12.7683 27.0117 13.8284 27.0117L13.8274 27.0107ZM13.4311 30.6523C14.3664 30.6523 15.3018 30.6533 16.2371 30.6523C16.7053 30.6523 16.9598 30.4475 16.9538 30.0873C16.9488 29.7419 16.6973 29.541 16.2561 29.541C14.3724 29.5391 12.4888 29.5391 10.6061 29.541C10.1789 29.541 9.91535 29.7647 9.92134 30.1051C9.92733 30.4445 10.1879 30.6514 10.6241 30.6523C11.5594 30.6543 12.4948 30.6523 13.4301 30.6523H13.4311ZM5.615 9.06062C5.615 10.3372 5.612 11.5712 5.61699 12.8052C5.61899 13.2327 5.84159 13.492 6.18099 13.488C6.51939 13.4841 6.73401 13.2238 6.74099 12.7953C6.74698 12.4371 6.74199 12.0798 6.74199 11.7216C6.74199 10.734 6.74199 9.74739 6.74199 8.75979C6.74199 8.07104 6.59925 7.92755 5.92045 7.92656C5.68387 7.92656 5.4473 7.92062 5.21072 7.92953C4.89128 7.9414 4.70062 8.10864 4.66568 8.42432C4.63174 8.73109 4.82241 8.97057 5.14383 9.02698C5.28758 9.05172 5.43631 9.04875 5.615 9.06062Z" fill="#F3F6F7"/>
<path d="M20.8369 23.8895C21.1863 23.5461 21.5347 23.2018 21.8841 22.8584C22.2105 23.1661 22.508 23.0622 22.8524 22.8485C25.5436 21.1741 28.2887 21.1029 31.0737 22.6199C31.1915 22.6842 31.2964 22.7713 31.4082 22.8485C31.4391 22.9663 31.4481 23.0949 31.505 23.1988C31.9322 23.9885 32.2187 24.8247 32.3455 25.7104C32.3934 26.0409 32.3754 26.3813 32.3884 26.7168C32.059 26.3971 31.7286 26.0795 31.4022 25.7569C30.7343 25.0988 30.2822 25.0948 29.6253 25.746C28.656 26.7069 27.6838 27.6658 26.7205 28.6326C26.6276 28.7256 26.5877 28.8701 26.5079 29.0195C25.7602 28.2724 25.1443 27.644 24.5124 27.0315C24.0622 26.5941 23.5361 26.5901 23.083 27.0136C22.7026 27.3699 22.3323 27.738 21.9719 28.1141C21.5557 28.5495 21.5467 29.0789 21.9679 29.5015C23.045 30.5831 24.1221 31.6647 25.2231 32.7226C25.885 33.3589 26.9121 33.3499 27.6029 32.7443C27.8175 32.5563 28.0132 32.3475 28.2168 32.1476C29.5784 30.8077 30.939 29.4678 32.2996 28.1279C32.3225 28.1695 32.3734 28.2199 32.3635 28.2496C32.069 29.1333 31.8603 30.0606 31.4481 30.8879C30.7633 32.2594 29.6882 33.3163 28.3446 34.0902C27.2885 34.6978 26.1575 35.1035 24.9367 35.1708C23.9724 35.2242 22.9991 35.2341 22.0538 34.956C20.6293 33.7497 19.7918 32.2099 19.5093 30.3891C19.1919 28.3446 19.6471 26.4595 20.8549 24.7653C21.0745 24.4576 21.0815 24.1785 20.8389 23.8905L20.8369 23.8895Z" fill="#0592FA"/>
<path d="M27.3584 1.12615C27.7447 1.12219 28.132 1.10438 28.5173 1.11823C29.1732 1.14198 29.7292 1.6526 29.7521 2.28495C29.7791 3.01229 29.7581 3.74162 29.7581 4.4937H1.15497V2.82031C9.58897 2.82031 18.022 2.82031 26.456 2.82031C27.034 2.82031 27.3484 2.51651 27.3594 1.94156C27.3644 1.66943 27.3594 1.39729 27.3594 1.12516L27.3584 1.12615Z" fill="#FCCF5A"/>
<path d="M32.3864 26.7168C32.3744 26.3813 32.3914 26.0409 32.3435 25.7104C32.2167 24.8257 31.9302 23.9885 31.503 23.1988C31.4471 23.0949 31.4371 22.9662 31.4061 22.8485C33.156 23.9717 34.2501 25.5619 34.6893 27.5639C35.6426 31.9151 32.7827 36.0881 28.3486 36.7858C25.9838 37.1579 23.8606 36.5443 22.0508 34.9551C22.9961 35.2331 23.9694 35.2232 24.9337 35.1698C26.1545 35.1025 27.2855 34.6968 28.3416 34.0892C29.6852 33.3153 30.7603 32.2584 31.4451 30.8869C31.8583 30.0606 32.066 29.1333 32.3605 28.2486C32.3704 28.218 32.3195 28.1675 32.2966 28.1269C32.7068 27.5797 32.7258 27.2709 32.3854 26.7168H32.3864Z" fill="#0181FA"/>
<path d="M27.3584 1.12615C27.3584 1.39828 27.3643 1.67042 27.3584 1.94255C27.3474 2.5175 27.0329 2.8213 26.455 2.8213C18.021 2.8213 9.58795 2.8213 1.15395 2.8213C1.08407 1.8901 1.41348 1.32505 2.14319 1.15385C2.32187 1.11229 2.51353 1.11625 2.7002 1.11526C9.35836 1.11328 16.0155 1.11427 22.6737 1.11328C23.2077 1.11328 23.3066 1.04599 23.4753 0.577917C23.9654 0.577917 24.4565 0.577917 24.9466 0.576927C25.0195 0.968802 25.2641 1.12219 25.6554 1.11724C26.2224 1.10833 26.7904 1.12219 27.3574 1.12615H27.3584Z" fill="#FEE076"/>
<path d="M1.14598 32.0635C7.01155 32.0635 12.8771 32.0635 18.7427 32.0625C19.14 32.8631 19.5373 33.6646 19.9416 34.4801H19.6261C14.0051 34.4801 8.38312 34.4801 2.76211 34.4791C2.57544 34.4791 2.38678 34.4741 2.2031 34.4464C1.6421 34.3623 1.1909 33.917 1.14698 33.3569C1.11304 32.9284 1.14398 32.4949 1.14598 32.0635Z" fill="#E4E9EE"/>
<path d="M27.3604 20.4141C27.3604 15.4919 27.3604 10.5697 27.3604 5.64755H29.7381V20.7466C28.9505 20.6368 28.1559 20.5249 27.3604 20.4141Z" fill="#E7ECF1"/>
<path d="M18.034 13.0764C15.6153 13.0764 13.1966 13.0764 10.7779 13.0764C10.6531 13.0764 10.5273 13.0823 10.4045 13.0665C10.118 13.0289 9.91739 12.8369 9.94234 12.5766C9.96131 12.3807 10.125 12.1679 10.2827 12.0294C10.3816 11.9433 10.5902 11.9651 10.7499 11.9651C15.6123 11.9621 20.4736 11.9631 25.336 11.9631C25.3979 11.9631 25.4608 11.9611 25.5226 11.9631C25.9129 11.9829 26.1685 12.2194 26.1535 12.5479C26.1395 12.8636 25.895 13.0744 25.5127 13.0754C23.0191 13.0783 20.5255 13.0773 18.033 13.0773L18.034 13.0764Z" fill="#2E4356"/>
<path d="M18.0409 9.43172C15.5723 9.43172 13.1037 9.42875 10.6361 9.43567C10.2817 9.43666 10.0192 9.33771 9.93336 8.97354C9.86548 8.68359 10.0881 8.38573 10.4095 8.3313C10.5313 8.31052 10.6581 8.31942 10.7829 8.31942C15.6203 8.31942 20.4567 8.31942 25.2941 8.31942C25.4428 8.31942 25.5985 8.3125 25.7383 8.35109C26.0248 8.43026 26.1805 8.64005 26.1485 8.93297C26.1176 9.22093 25.9379 9.40104 25.6335 9.42776C25.5346 9.43666 25.4338 9.43073 25.334 9.43073C22.9033 9.43073 20.4716 9.43073 18.0409 9.43073V9.43172Z" fill="#2E4356"/>
<path d="M18.0409 18.1836C15.6103 18.1836 13.1786 18.1836 10.7479 18.1836C10.6361 18.1836 10.5203 18.1955 10.4125 18.1747C10.103 18.1163 9.92137 17.9214 9.92836 17.6096C9.93534 17.3177 10.115 17.1336 10.4075 17.0782C10.4924 17.0624 10.5812 17.0703 10.669 17.0703C15.5813 17.0703 20.4926 17.0703 25.4048 17.0703C25.4917 17.0703 25.5815 17.0624 25.6664 17.0772C25.9599 17.1317 26.1405 17.3128 26.1495 17.6057C26.1595 17.9174 25.9778 18.1133 25.6694 18.1737C25.5616 18.1955 25.4458 18.1826 25.334 18.1826C22.9033 18.1826 20.4716 18.1826 18.0409 18.1826V18.1836Z" fill="#010101"/>
<path d="M7.36091 28.2308C7.74822 28.7197 7.87899 29.264 7.68234 29.8617C7.43677 30.6088 6.67014 31.0996 5.91847 31.0046C5.08695 30.8987 4.47304 30.2674 4.41415 29.4579C4.38819 29.1036 4.56388 28.8464 4.86634 28.7959C5.19875 28.7405 5.44132 28.9275 5.51918 29.2966C5.53715 29.3807 5.54114 29.4728 5.57708 29.549C5.69487 29.7993 5.9005 29.9349 6.17801 29.8844C6.44554 29.8349 6.62222 29.6657 6.63819 29.3768C6.65416 29.0928 6.51242 28.9087 6.25188 28.8107C6.19498 28.7899 6.1291 28.7969 6.06721 28.787C5.74179 28.7365 5.53116 28.5544 5.53615 28.2229C5.54114 27.8973 5.7358 27.7182 6.0742 27.6717C6.48846 27.6153 6.67912 27.3788 6.6332 27.0324C6.59327 26.7336 6.31776 26.4941 6.02528 26.5842C5.84261 26.6406 5.65294 26.8157 5.56111 26.9879C5.36546 27.3551 5.12189 27.5312 4.81643 27.4263C4.46705 27.3066 4.34826 26.9909 4.50199 26.5673C4.72959 25.9429 5.18378 25.5639 5.83762 25.4679C6.5244 25.368 7.09738 25.6114 7.48469 26.1893C7.86002 26.7504 7.869 27.3471 7.54658 27.9419C7.49367 28.0389 7.42679 28.1279 7.35991 28.2318L7.36091 28.2308Z" fill="#040404"/>
<path d="M6.11416 21.1494C6.52742 21.1494 6.87281 21.1454 7.21719 21.1504C7.60051 21.1563 7.8341 21.3611 7.84208 21.6887C7.85107 22.0291 7.6105 22.2557 7.21021 22.2607C6.56236 22.2686 5.91451 22.2617 5.26666 22.2666C4.96719 22.2686 4.69069 22.231 4.53097 21.9361C4.35628 21.6145 4.53396 21.372 4.71464 21.1276C5.17083 20.5111 5.63201 19.8975 6.07722 19.2731C6.23394 19.0534 6.3687 18.814 6.47651 18.5666C6.60728 18.2657 6.4825 17.9956 6.19401 17.8689C5.91152 17.7452 5.62003 17.8531 5.4713 18.1371C5.46032 18.1589 5.44834 18.1806 5.43836 18.2034C5.2437 18.6576 5.00014 18.807 4.66473 18.6784C4.33232 18.5507 4.2315 18.1984 4.4032 17.765C4.7366 16.9239 5.70089 16.4944 6.55637 16.8061C7.42283 17.1218 7.87602 18.05 7.54661 18.9099C7.41185 19.2622 7.20522 19.5928 6.99758 19.9124C6.73605 20.3152 6.44058 20.6961 6.11416 21.1494Z" fill="#040404"/>
<path d="M14.9614 21.8233C13.491 21.8233 12.0196 21.8253 10.5493 21.8213C10.1749 21.8203 9.92737 21.5967 9.92238 21.279C9.91739 20.9614 10.1629 20.7308 10.5313 20.711C10.6311 20.706 10.7309 20.709 10.8308 20.709C12.925 20.709 15.0183 20.709 17.1126 20.709C17.8233 20.709 18.5331 20.709 19.2438 20.709C19.7449 20.709 20.0124 20.902 20.0194 21.2602C20.0264 21.6204 19.7569 21.8223 19.2618 21.8223C17.8283 21.8223 16.3949 21.8223 14.9614 21.8223V21.8233Z" fill="#2E4356"/>
<path d="M13.8274 27.0107C12.7673 27.0107 11.7082 27.0117 10.648 27.0107C10.1879 27.0107 9.91934 26.7989 9.92134 26.4476C9.92433 26.0993 10.1889 25.8974 10.656 25.8974C12.7753 25.8964 14.8955 25.8964 17.0147 25.8974C17.4699 25.8974 17.7055 26.0844 17.7135 26.4367C17.7215 26.8029 17.4719 27.0087 17.0057 27.0097C15.9456 27.0117 14.8865 27.0097 13.8264 27.0097L13.8274 27.0107Z" fill="#030303"/>
<path d="M13.4311 30.6523C12.4958 30.6523 11.5604 30.6543 10.6251 30.6523C10.1889 30.6513 9.92933 30.4445 9.92234 30.1051C9.91635 29.7647 10.1799 29.541 10.6071 29.541C12.4908 29.5391 14.3744 29.5391 16.2571 29.541C16.6983 29.541 16.9488 29.7419 16.9548 30.0873C16.9608 30.4485 16.7053 30.6513 16.2381 30.6523C15.3028 30.6543 14.3674 30.6523 13.4321 30.6523H13.4311Z" fill="#2E4356"/>
<path d="M5.61499 9.06062C5.43631 9.04875 5.28757 9.05271 5.14383 9.02698C4.8234 8.97057 4.63174 8.73109 4.66568 8.42432C4.70061 8.10765 4.89127 7.94041 5.21071 7.92953C5.44729 7.92062 5.68387 7.92656 5.92045 7.92656C6.59824 7.92656 6.74099 8.07104 6.74198 8.75979C6.74198 9.74739 6.74198 10.734 6.74198 11.7216C6.74198 12.0798 6.74698 12.4371 6.74099 12.7953C6.734 13.2248 6.51938 13.4841 6.18098 13.488C5.84158 13.492 5.61898 13.2327 5.61698 12.8052C5.61299 11.5712 5.61499 10.3372 5.61499 9.06062Z" fill="#070707"/>
<path d="M32.3864 26.7168C32.7268 27.2709 32.7078 27.5797 32.2976 28.1269C30.937 29.4668 29.5754 30.8067 28.2148 32.1466C28.0112 32.3465 27.8155 32.5563 27.6009 32.7433C26.9092 33.349 25.882 33.3579 25.2212 32.7216C24.1211 31.6637 23.043 30.5821 21.9659 29.5005C21.5457 29.0779 21.5537 28.5475 21.9699 28.1131C22.3303 27.737 22.6996 27.3689 23.081 27.0127C23.5332 26.5891 24.0602 26.5941 24.5104 27.0305C25.1423 27.643 25.7582 28.2724 26.5059 29.0185C26.5857 28.8691 26.6257 28.7246 26.7185 28.6316C27.6818 27.6648 28.6541 26.7059 29.6233 25.745C30.2802 25.0939 30.7324 25.0978 31.4002 25.7559C31.7266 26.0775 32.058 26.3961 32.3864 26.7158V26.7168ZM30.962 26.9256C30.8122 26.7692 30.6625 26.6129 30.5028 26.4466C29.3069 27.6321 28.145 28.786 26.982 29.9389C26.5408 30.3762 26.3002 30.3743 25.856 29.9339C25.1712 29.255 24.4875 28.5752 23.8386 27.93C23.5132 28.2566 23.2117 28.5594 22.9662 28.8058C23.9404 29.8023 24.9367 30.8216 25.9339 31.8418C26.3122 32.1783 26.6077 32.1684 26.994 31.7854C28.3885 30.4069 29.7801 29.0255 31.1716 27.644C31.2574 27.5589 31.3393 27.4679 31.4391 27.363C31.2684 27.2066 31.1157 27.0661 30.962 26.9256Z" fill="#010203"/>
<path d="M25.9329 31.8418C24.9366 30.8226 23.9394 29.8023 22.9651 28.8058C23.2107 28.5594 23.5132 28.2566 23.8376 27.93C24.4864 28.5752 25.1702 29.2551 25.855 29.9339C26.2992 30.3743 26.5398 30.3763 26.981 29.9389C28.1449 28.786 29.3069 27.6321 30.5018 26.4466C30.6615 26.6129 30.8112 26.7692 30.9609 26.9256C30.926 26.976 30.897 27.0325 30.8541 27.075C29.3079 28.6108 27.7606 30.1457 26.2094 31.6766C26.1355 31.7498 26.0247 31.7874 25.9319 31.8418H25.9329Z" fill="#FBFBFB"/>
<path d="M25.9329 31.8418C26.0268 31.7874 26.1366 31.7498 26.2104 31.6766C27.7617 30.1457 29.3079 28.6108 30.8552 27.075C30.8981 27.0325 30.927 26.976 30.962 26.9256C31.1147 27.0661 31.2684 27.2066 31.4391 27.363C31.3393 27.4689 31.2575 27.5589 31.1716 27.644C29.7801 29.0255 28.3886 30.4069 26.994 31.7854C26.6067 32.1674 26.3122 32.1783 25.9339 31.8418H25.9329Z" fill="#F0F3F4"/>
</g>
<defs>
<clipPath id="clip0_88_69">
<rect width="36" height="38" fill="white"/>
</clipPath>
</defs>
</svg>
