<svg width="36" height="30" viewBox="0 0 36 30" fill="none" xmlns="http://www.w3.org/2000/svg">
<g clip-path="url(#clip0_229_2)">
<path d="M1.68502e-05 13.1709C0.0634095 13.0403 0.126802 12.9088 0.190195 12.7781C0.584638 11.974 1.25202 11.5856 2.1316 11.576C3.54825 11.5602 4.96578 11.547 6.38067 11.5865C6.81825 11.5988 7.25056 11.7873 7.76386 11.9144C8.11604 11.5093 8.52457 11.0025 8.97096 10.5308C9.90777 9.54171 11.5692 9.90822 11.9812 11.184C12.2066 11.882 12.0147 12.4852 11.5463 13.0271C10.6676 14.0425 9.81091 15.078 8.91021 16.0732C8.58796 16.4292 8.44621 16.7844 8.47439 17.257C8.49904 17.6603 8.49111 18.0803 8.40395 18.4731C8.20233 19.3903 7.39407 20.0111 6.40532 20.0225C4.96578 20.04 3.52535 20.0383 2.08493 20.0225C1.12612 20.0129 0.422635 19.4859 0.0959863 18.588C0.073975 18.5275 0.0308327 18.4758 -0.00262451 18.4197C-0.00262451 16.6695 -0.00262451 14.9193 -0.00262451 13.1692L1.68502e-05 13.1709ZM3.58258 14.2863C3.24889 14.6335 3.23128 14.9448 3.54913 15.3674C4.0413 16.0189 4.54316 16.6625 5.04326 17.307C5.50109 17.8962 5.96333 17.9041 6.45551 17.3324C7.15635 16.5196 7.85455 15.705 8.55451 14.8904C9.2844 14.0407 10.0178 13.1946 10.7424 12.3406C11.1113 11.9057 11.1078 11.5698 10.7548 11.2112C10.3233 10.892 10.0055 10.935 9.61457 11.3874C8.51753 12.6571 7.42665 13.932 6.33136 15.2034C5.94924 15.648 5.64637 15.641 5.2801 15.1824C5.06175 14.9097 4.85836 14.6238 4.6268 14.3625C4.31512 14.0118 3.97174 13.996 3.5817 14.2854L3.58258 14.2863ZM4.35474 18.1505C3.7622 17.3718 3.14412 16.6099 2.58327 15.8084C2.0277 15.0158 2.21788 13.9829 2.96803 13.4068C3.71553 12.8325 4.75359 12.9324 5.406 13.647C5.55216 13.8066 5.68423 13.9794 5.83743 14.1635C6.23451 13.7005 6.61047 13.2639 7.0595 12.7395C6.65361 12.6922 6.34897 12.629 6.04345 12.6264C4.76767 12.615 3.49278 12.6185 2.217 12.6229C1.44308 12.6255 1.05656 13.0157 1.05568 13.7891C1.05392 15.1298 1.05392 16.4696 1.05744 17.8103C1.05744 17.9462 1.0909 18.0821 1.10939 18.218C1.23089 18.6704 1.53729 18.9642 1.99513 18.9686C3.49102 18.9843 4.98691 18.9887 6.4828 18.9677C7.0639 18.9598 7.43721 18.4889 7.39759 17.8523C6.99963 18.332 6.58933 18.7362 5.951 18.7844C5.31091 18.8326 4.78616 18.6161 4.35562 18.1505H4.35474Z" fill="#050505"/>
<path d="M0 3.22936C0.075719 3.06451 0.140873 2.89441 0.228038 2.7357C0.612796 2.03686 1.2027 1.63352 2.00655 1.623C3.50509 1.60458 5.00362 1.59581 6.50127 1.63264C6.90276 1.64229 7.29896 1.83344 7.75768 1.95707C8.09665 1.56425 8.48582 1.08462 8.90491 0.633051C9.8919 -0.430549 11.5445 -0.105244 11.983 1.23368C12.2022 1.90271 12.0279 2.49457 11.5788 3.01716C10.6288 4.1246 9.68147 5.23555 8.7209 6.33423C8.54657 6.53327 8.46997 6.72968 8.48053 6.99097C8.4955 7.36275 8.50254 7.73891 8.46468 8.10894C8.34494 9.27074 7.66083 9.9915 6.49687 10.0336C4.97721 10.088 3.45402 10.0678 1.93348 10.031C1.02133 10.0082 0.424379 9.48732 0.107415 8.64205C0.085404 8.5833 0.0369791 8.53333 0.000880454 8.47984C0.000880454 6.72968 0.000880454 4.97952 0.000880454 3.22936H0ZM10.7697 1.26349C10.3524 0.933805 9.98787 0.985538 9.59871 1.43711C8.50078 2.71115 7.40726 3.98957 6.30669 5.26098C5.94747 5.6766 5.63755 5.66608 5.29417 5.24257C5.0811 4.97952 4.88388 4.70419 4.66817 4.44289C4.3512 4.05884 3.9594 4.02201 3.57376 4.32978C3.24535 4.67613 3.22774 4.97952 3.53326 5.38111C4.04128 6.05013 4.55547 6.71302 5.07053 7.37678C5.48611 7.91253 5.97124 7.92393 6.41323 7.41273C7.06124 6.66216 7.70749 5.90984 8.35463 5.15839C9.1532 4.22982 9.95353 3.30213 10.7477 2.37006C11.1025 1.95356 11.1034 1.62475 10.7697 1.26525V1.26349ZM4.36353 8.19399C3.76218 7.40484 3.13354 6.63498 2.56828 5.82128C2.02416 5.03739 2.2205 4.02377 2.96185 3.44593C3.69086 2.87775 4.72716 2.96455 5.37781 3.65374C5.53365 3.81947 5.67453 3.99922 5.83917 4.193C6.23802 3.72827 6.61221 3.29249 7.06652 2.76376C6.65711 2.72342 6.3604 2.67169 6.06369 2.66994C4.77558 2.66029 3.4866 2.66468 2.19849 2.66643C1.43866 2.66818 1.05566 3.04961 1.05478 3.80631C1.05302 5.15927 1.05214 6.5131 1.05654 7.86605C1.05654 8.00109 1.09528 8.13612 1.11642 8.27203C1.25465 8.77796 1.58041 9.00945 2.19321 9.01208C3.55175 9.01734 4.91029 9.01471 6.26883 9.01208C6.40794 9.01208 6.55146 9.00068 6.68617 8.96824C7.15633 8.85512 7.45304 8.4132 7.38525 7.93795C7.1713 8.13524 6.98024 8.36147 6.74428 8.52193C5.98885 9.03663 5.17355 8.91387 4.36177 8.19399H4.36353Z" fill="#050505"/>
<path d="M0 22.5522C0.0510663 22.4662 0.103013 22.3803 0.152319 22.2935C0.399726 21.8586 0.758951 21.5684 1.27049 21.5657C3.24887 21.5543 5.22813 21.5482 7.20651 21.5675C7.86862 21.5736 8.35991 22.0673 8.45412 22.724C8.47525 22.8731 8.48317 23.0257 8.48317 23.1765C8.48493 24.9021 8.46204 26.6286 8.49286 28.3542C8.51047 29.381 7.8827 30.021 6.86138 29.9956C5.21141 29.9544 3.55879 29.9518 1.90882 29.9982C1.04598 30.0228 0.375073 29.822 0 28.9934C0 26.846 0 24.6995 0 22.5522ZM1.06623 28.1516C1.06271 28.2674 1.06007 28.384 1.0539 28.4997C1.03806 28.8093 1.18245 28.939 1.49413 28.9382C3.32635 28.9329 5.15946 28.932 6.99168 28.9382C7.31041 28.939 7.43983 28.7926 7.43103 28.4945C7.42751 28.3787 7.41694 28.2639 7.40902 28.1481C7.41518 26.4339 7.42135 24.7188 7.42663 23.0046C7.42663 22.7337 7.29456 22.6013 7.01458 22.6022C5.16298 22.6048 3.31227 22.6048 1.46067 22.6022C1.18421 22.6022 1.05214 22.7293 1.05302 23.0064C1.05831 24.7215 1.06095 26.4365 1.06447 28.1516H1.06623Z" fill="#050506"/>
<path d="M23.7837 2.10791C24.2459 2.10791 24.7073 2.10879 25.1695 2.10966C25.3201 2.58842 25.4275 2.66645 25.9531 2.66645C28.5865 2.66645 31.22 2.6647 33.8534 2.66821C34.4935 2.66821 34.9293 3.05401 34.9337 3.65377C34.9425 5.05232 34.9302 6.45087 34.9267 7.84854C33.982 8.27819 32.9774 8.12387 31.9939 8.12562C26.6319 8.13614 21.27 8.12738 15.908 8.13527C15.2723 8.13527 14.6498 8.1151 14.0599 7.8503C14.0538 6.52277 14.045 5.19437 14.0414 3.86684C14.0397 3.01368 14.3945 2.66645 15.2582 2.66645C17.8556 2.66645 20.4529 2.66645 23.0511 2.66645C23.5486 2.66645 23.6965 2.55071 23.7846 2.10879L23.7837 2.10791ZM24.5021 5.31537C21.9611 5.31537 19.4201 5.31537 16.8783 5.31537C16.7612 5.31537 16.6441 5.31362 16.527 5.32414C16.2364 5.35044 16.0744 5.53282 16.0568 5.80114C16.0383 6.0712 16.1792 6.27112 16.4618 6.33162C16.5745 6.35617 16.6934 6.36494 16.8087 6.36494C21.9259 6.36669 27.044 6.36669 32.1612 6.36494C32.288 6.36494 32.42 6.35529 32.5415 6.32197C32.8022 6.25095 32.9254 6.06506 32.9087 5.79938C32.892 5.53282 32.7379 5.37149 32.4755 5.3294C32.3496 5.30923 32.2184 5.31537 32.0899 5.31537C29.5603 5.31537 27.0308 5.31537 24.5012 5.31537H24.5021Z" fill="#EDEDED"/>
<path d="M24.4792 20.0286C21.3871 20.0286 18.2941 20.0304 15.2019 20.0286C14.0969 20.0286 13.3168 19.4701 13.0562 18.4828C12.9981 18.2609 12.9876 18.0224 12.9867 17.791C12.9805 16.4608 12.9796 15.1315 12.9849 13.8014C12.9902 12.4195 13.8328 11.5742 15.2142 11.5742C21.3994 11.5716 27.5837 11.5716 33.7689 11.5742C35.1407 11.5742 35.9912 12.4396 35.9929 13.8136C35.9947 15.1438 35.9956 16.4731 35.9929 17.8032C35.9903 19.1746 35.1354 20.0278 33.7566 20.0286C30.6644 20.0313 27.5714 20.0286 24.4792 20.0286ZM34.9258 17.791C34.9302 16.4976 34.9355 15.2034 34.9382 13.9101C34.9399 12.9701 34.5921 12.6238 33.6518 12.6238C27.5415 12.6238 21.4311 12.6238 15.3208 12.6255C15.1464 12.6255 14.9677 12.6334 14.7986 12.6711C14.3707 12.7658 14.0582 13.0973 14.0547 13.5287C14.0423 14.95 14.0555 16.3714 14.0591 17.7927C14.0045 18.5494 14.4016 18.9782 15.172 18.9782C21.3818 18.9799 27.5908 18.9799 33.8006 18.9782C34.5648 18.9782 34.961 18.5547 34.9249 17.7918L34.9258 17.791Z" fill="#050505"/>
<path d="M23.7837 29.4862C23.7203 29.8448 23.4976 29.9877 23.141 29.9877C20.4477 29.9833 17.7544 29.9947 15.061 29.9807C13.8627 29.9746 13.0193 29.1609 12.9946 27.9675C12.9638 26.4988 12.9638 25.0283 12.9955 23.5597C13.021 22.3978 13.8355 21.6166 15.0012 21.5552C15.0945 21.5499 15.1887 21.5508 15.282 21.5508C21.4188 21.5508 27.5547 21.5552 33.6915 21.5456C34.615 21.5438 35.3493 21.8481 35.7649 22.6925C35.9084 22.9844 35.978 23.3396 35.9833 23.6666C36.0062 25.0661 36 26.4655 35.9912 27.8649C35.9833 29.1021 35.1407 29.9737 33.908 29.9807C31.2147 29.9956 28.5214 29.9868 25.8281 29.9842C25.4275 29.9842 25.2206 29.8176 25.1687 29.4835C25.3254 29.0179 25.4434 28.9346 25.9637 28.9346C28.5725 28.9346 31.1813 28.9355 33.7909 28.9338C34.5869 28.9338 34.9646 28.5295 34.9267 27.7334C34.9311 26.4506 34.9364 25.1678 34.9391 23.885C34.9408 22.9353 34.608 22.603 33.6571 22.603C27.5432 22.603 21.4303 22.603 15.3164 22.603C15.1878 22.603 15.0584 22.6013 14.9307 22.6135C14.4456 22.6591 14.0609 23.016 14.0564 23.5018C14.0424 24.9354 14.0582 26.369 14.0617 27.8035C14.1242 28.0543 14.1366 28.3358 14.2625 28.5497C14.4562 28.8794 14.8119 28.9373 15.1834 28.9364C17.8037 28.9311 20.4239 28.9329 23.0432 28.9338C23.5389 28.9338 23.6913 29.0504 23.7855 29.4862H23.7837Z" fill="#060606"/>
<path d="M34.9259 7.84854C34.9294 6.44999 34.9417 5.05144 34.9329 3.65377C34.9294 3.05314 34.4936 2.66821 33.8526 2.66821C31.2192 2.66558 28.5857 2.66733 25.9523 2.66645C25.4267 2.66645 25.3192 2.58841 25.1687 2.10966C25.218 1.80102 25.4399 1.61951 25.7991 1.61688C26.5721 1.61162 27.3452 1.61513 28.1182 1.61513C29.9927 1.61513 31.8672 1.61337 33.7408 1.61513C35.1477 1.61688 35.9903 2.45601 35.9921 3.85544C35.9939 5.17332 35.9939 6.49208 35.9921 7.80996C35.9903 9.22342 35.1495 10.0582 33.7117 10.059C29.1431 10.0617 24.5744 10.0599 20.0057 10.0599C18.413 10.0599 16.8193 10.0634 15.2266 10.059C14.0829 10.0555 13.3116 9.50663 13.0519 8.50529C12.9946 8.28345 12.9867 8.04408 12.9858 7.81347C12.9797 6.49559 12.9806 5.17683 12.9841 3.85895C12.9876 2.44461 13.8152 1.61688 15.2248 1.61513C17.8371 1.61337 20.4495 1.61425 23.0618 1.61513C23.5346 1.61513 23.6561 1.70106 23.7837 2.10791C23.6957 2.55071 23.5478 2.66558 23.0503 2.66558C20.453 2.66645 17.8556 2.66558 15.2574 2.66558C14.3937 2.66558 14.0389 3.0128 14.0406 3.86596C14.0433 5.19349 14.0521 6.52189 14.0591 7.84942C13.9966 8.21243 14.0776 8.56316 14.3875 8.74554C14.6525 8.90074 14.9942 8.99895 15.3023 8.99982C21.425 9.01385 27.5477 9.01035 33.6712 9.01035C33.7417 9.01035 33.8121 9.01298 33.8817 9.00947C34.5843 8.97527 34.9576 8.55965 34.9259 7.84854Z" fill="#060606"/>
<path d="M34.9259 27.7325C34.9637 28.5287 34.586 28.932 33.7901 28.9329C31.1813 28.9346 28.5725 28.9329 25.9629 28.9338C25.4425 28.9338 25.3245 29.0179 25.1678 29.4827C24.7064 29.4835 24.2451 29.4853 23.7837 29.4862C23.6895 29.0504 23.5372 28.9346 23.0415 28.9338C20.4213 28.9329 17.801 28.9303 15.1817 28.9364C14.8101 28.9364 14.4544 28.8785 14.2607 28.5497C14.1348 28.3349 14.1234 28.0543 14.06 27.8035C15.1755 28.2253 16.3404 28.0753 17.4867 28.078C22.751 28.0894 28.0152 28.0824 33.2794 28.0832C33.8535 28.0832 34.4179 28.042 34.925 27.7325H34.9259Z" fill="#E1E1E1"/>
<path d="M1.10851 18.218C1.09002 18.0821 1.05745 17.9462 1.05657 17.8103C1.05305 16.4696 1.05305 15.1298 1.05481 13.7891C1.05569 13.0157 1.44221 12.6255 2.21613 12.6229C3.4919 12.6194 4.76768 12.615 6.04258 12.6264C6.3481 12.629 6.65273 12.693 7.05862 12.7395C6.60871 13.263 6.23364 13.7005 5.83655 14.1635C5.68335 13.9785 5.55128 13.8066 5.40513 13.647C4.75271 12.9324 3.71554 12.8325 2.96715 13.4068C2.21701 13.9829 2.02683 15.0158 2.58239 15.8084C3.14324 16.609 3.76132 17.371 4.35387 18.1505C4.23148 18.1715 4.1091 18.2092 3.98584 18.2101C3.02614 18.2162 2.06733 18.2162 1.10763 18.218H1.10851Z" fill="#83BFEB"/>
<path d="M10.7556 11.2112C11.1087 11.5698 11.1122 11.9057 10.7433 12.3406C10.0187 13.1946 9.28526 14.0407 8.55536 14.8904C7.85628 15.7041 7.1572 16.5187 6.45636 17.3324C5.96419 17.9041 5.50195 17.8962 5.04411 17.307C4.54313 16.6625 4.04128 16.0189 3.54998 15.3674C3.23126 14.9456 3.24887 14.6335 3.58344 14.2863C4.04832 14.8781 4.50968 15.4735 4.98248 16.0592C5.05116 16.1443 5.16914 16.2004 5.27479 16.2416C5.88054 16.474 6.46957 16.2556 6.93181 15.6795C7.3958 15.1008 7.88358 14.5405 8.36783 13.9776C9.16199 13.0534 9.96057 12.1336 10.7574 11.2112H10.7556Z" fill="#EE941D"/>
<path d="M10.7556 11.2112C9.95879 12.1328 9.16022 13.0534 8.36605 13.9776C7.88268 14.5405 7.39491 15.1008 6.93003 15.6795C6.46779 16.2556 5.87965 16.4731 5.27302 16.2416C5.16648 16.2013 5.04938 16.1443 4.98071 16.0592C4.5079 15.4735 4.04654 14.8781 3.58167 14.2863C3.97259 13.9969 4.31596 14.0127 4.62676 14.3634C4.85832 14.6247 5.06171 14.9106 5.28006 15.1833C5.64721 15.641 5.94921 15.648 6.33132 15.2043C7.42661 13.9329 8.51749 12.658 9.61453 11.3883C10.0055 10.9359 10.3233 10.8929 10.7547 11.2121L10.7556 11.2112Z" fill="#FBA62B"/>
<path d="M1.10852 18.218C2.06822 18.2162 3.02703 18.2171 3.98672 18.2101C4.10911 18.2101 4.23237 18.1715 4.35475 18.1505C4.78442 18.6161 5.30917 18.8326 5.95014 18.7844C6.58847 18.7362 6.99876 18.332 7.39672 17.8523C7.43546 18.488 7.06303 18.9589 6.48193 18.9677C4.98604 18.9887 3.49015 18.9843 1.99426 18.9686C1.53642 18.9642 1.23002 18.6704 1.10852 18.218Z" fill="#67AAE4"/>
<path d="M1.11727 8.27205C1.09614 8.13702 1.05828 8.00199 1.0574 7.86608C1.05299 6.51312 1.05299 5.15929 1.05564 3.80633C1.05652 3.04875 1.43951 2.66733 2.19935 2.66645C3.48745 2.66382 4.77643 2.66031 6.06454 2.66996C6.36125 2.67171 6.65796 2.72344 7.06737 2.76378C6.61306 3.29251 6.23887 3.7283 5.84002 4.19302C5.67538 3.99924 5.53539 3.81949 5.37866 3.65377C4.72801 2.9637 3.69172 2.87689 2.9627 3.44596C2.22136 4.02379 2.02502 5.03829 2.56914 5.8213C3.13439 6.635 3.76303 7.40486 4.36438 8.19401C4.24552 8.21944 4.12666 8.26679 4.00692 8.26767C3.0437 8.2738 2.08048 8.27205 1.11815 8.27205H1.11727Z" fill="#83C0EC"/>
<path d="M10.7697 1.26352C11.1034 1.62302 11.1026 1.95271 10.7477 2.36833C9.95268 3.3004 9.15323 4.22809 8.35466 5.15666C7.7084 5.90899 7.06127 6.66043 6.41326 7.411C5.97215 7.92307 5.48702 7.9108 5.07056 7.37505C4.5555 6.71216 4.04131 6.0484 3.53329 5.37938C3.22865 4.97779 3.24626 4.6744 3.57379 4.32805C3.95591 4.83925 4.32218 5.36447 4.72455 5.85988C5.32149 6.59379 6.2583 6.54118 6.84292 5.78535C7.16252 5.37236 7.52791 4.99445 7.86777 4.59724C8.48761 3.87385 9.09952 3.14345 9.722 2.42357C10.0627 2.02899 10.4193 1.64845 10.7689 1.26176L10.7697 1.26352Z" fill="#EE941D"/>
<path d="M10.7697 1.26352C10.4202 1.6502 10.0636 2.03075 9.72286 2.42532C9.10037 3.14608 8.48758 3.87561 7.86862 4.59899C7.52876 4.9962 7.16338 5.37411 6.84377 5.7871C6.25827 6.54293 5.32235 6.59554 4.7254 5.86163C4.32303 5.36622 3.95676 4.84188 3.57465 4.32981C3.96117 4.02291 4.35209 4.05886 4.66905 4.44292C4.88388 4.70421 5.08198 4.97954 5.29505 5.24259C5.63843 5.6661 5.94835 5.67575 6.30757 5.261C7.40814 3.98959 8.50167 2.71117 9.59959 1.43713C9.98875 0.98556 10.3533 0.933827 10.7706 1.26352H10.7697Z" fill="#FBA62B"/>
<path d="M1.11731 8.27205C2.08053 8.27205 3.04374 8.2738 4.00608 8.26767C4.12582 8.26767 4.24468 8.21944 4.36354 8.19401C5.17532 8.91389 5.99062 9.03665 6.74605 8.52195C6.98201 8.36149 7.17307 8.13526 7.38702 7.93798C7.45394 8.41322 7.1581 8.85515 6.68794 8.96826C6.55323 9.0007 6.40972 9.0121 6.27061 9.0121C4.91207 9.01561 3.55353 9.01736 2.19499 9.0121C1.58219 9.00947 1.25642 8.77798 1.11819 8.27205H1.11731Z" fill="#63A5DD"/>
<path d="M1.06626 28.1516C1.06273 26.4365 1.06009 24.7215 1.05481 23.0064C1.05481 22.7293 1.18512 22.6021 1.46246 22.6021C3.31405 22.6039 5.16477 22.6048 7.01636 22.6021C7.29635 22.6021 7.4293 22.7346 7.42842 23.0046C7.42313 24.7188 7.41697 26.4339 7.41081 28.1481C7.26289 28.1727 7.11409 28.2209 6.96618 28.2191C5.00012 28.2007 3.03319 28.1753 1.06714 28.1516H1.06626Z" fill="#84C1EE"/>
<path d="M1.06621 28.1516C3.03227 28.1753 4.9992 28.2007 6.96526 28.2191C7.11317 28.2209 7.26197 28.1727 7.40989 28.1481C7.41693 28.2639 7.42837 28.3787 7.4319 28.4945C7.4407 28.7935 7.31039 28.9399 6.99255 28.9382C5.16033 28.932 3.32722 28.932 1.495 28.9382C1.18243 28.939 1.03804 28.8093 1.05477 28.4997C1.06093 28.384 1.06269 28.2683 1.06709 28.1516H1.06621Z" fill="#67AAE3"/>
<path d="M34.9258 7.84854C34.9575 8.55965 34.5833 8.97615 33.8816 9.00947C33.8112 9.01298 33.7407 9.01035 33.6712 9.01035C27.5485 9.01035 21.425 9.01385 15.3023 8.99982C14.9941 8.99982 14.6525 8.90162 14.3875 8.74554C14.0776 8.56316 13.9957 8.21243 14.0591 7.84942C14.649 8.11422 15.2723 8.13527 15.9072 8.13439C21.2691 8.12737 26.6311 8.13614 31.993 8.12474C32.9765 8.12299 33.9802 8.27731 34.9258 7.84766V7.84854Z" fill="#D9D9D9"/>
<path d="M24.5021 5.31537C27.0317 5.31537 29.5612 5.31537 32.0908 5.31537C32.2193 5.31537 32.3505 5.30923 32.4764 5.3294C32.7388 5.37148 32.8929 5.53282 32.9096 5.79938C32.9263 6.06506 32.8039 6.25095 32.5424 6.32197C32.4209 6.35529 32.2889 6.36494 32.1621 6.36494C27.0449 6.36669 21.9268 6.36669 16.8096 6.36494C16.6934 6.36494 16.5754 6.35617 16.4627 6.33162C16.1801 6.27024 16.0392 6.07032 16.0577 5.80113C16.0762 5.53194 16.2382 5.34956 16.5279 5.32413C16.6441 5.31361 16.7621 5.31537 16.8792 5.31537C19.4202 5.31537 21.9611 5.31537 24.503 5.31537H24.5021Z" fill="#070707"/>
<path d="M14.0591 17.7918C14.0556 16.3705 14.0424 14.9491 14.0547 13.5278C14.0582 13.0964 14.3699 12.7649 14.7987 12.6703C14.9677 12.6325 15.1465 12.6255 15.3208 12.6247C21.4312 12.6229 27.5415 12.6229 33.6519 12.6229C34.5922 12.6229 34.94 12.9693 34.9382 13.9092C34.9356 15.2025 34.9303 16.4968 34.9259 17.7901C34.4055 18.09 33.8359 18.0751 33.2601 18.0751C27.4737 18.0698 21.6882 18.0707 15.9019 18.0733C15.2724 18.0733 14.6367 18.1277 14.06 17.7918H14.0591ZM24.4617 16.3249C27.0141 16.3249 29.5674 16.3249 32.1199 16.3249C32.237 16.3249 32.3567 16.3345 32.4703 16.3135C32.7256 16.2644 32.8894 16.1127 32.9088 15.8435C32.9299 15.5568 32.7828 15.377 32.5152 15.3016C32.4051 15.2709 32.2836 15.2762 32.1665 15.2762C27.0493 15.2753 21.9321 15.2753 16.8149 15.2762C16.6873 15.2762 16.5543 15.2762 16.4328 15.3095C16.1748 15.3797 16.041 15.5743 16.056 15.8304C16.071 16.0864 16.225 16.2626 16.4874 16.3117C16.601 16.3328 16.7207 16.3249 16.8378 16.3249C19.3788 16.3249 21.9198 16.3249 24.4608 16.3249H24.4617Z" fill="#EDEDED"/>
<path d="M14.0591 17.7918C14.6358 18.1277 15.2715 18.0733 15.901 18.0733C21.6874 18.0707 27.4728 18.0698 33.2592 18.0751C33.835 18.0751 34.4046 18.09 34.925 17.7901C34.9602 18.5529 34.5649 18.9764 33.8006 18.9764C27.5908 18.9782 21.3818 18.9782 15.172 18.9764C14.4016 18.9764 14.0045 18.5477 14.0591 17.791V17.7918Z" fill="#DFDFDF"/>
<path d="M34.9258 27.7325C34.4187 28.042 33.8543 28.0832 33.2803 28.0832C28.016 28.0832 22.7518 28.0894 17.4876 28.078C16.3403 28.0754 15.1755 28.2244 14.0608 27.8035C14.0573 26.3699 14.0415 24.9354 14.0555 23.5018C14.0599 23.016 14.4456 22.6591 14.9298 22.6136C15.0575 22.6013 15.1869 22.603 15.3155 22.603C21.4293 22.603 27.5423 22.603 33.6562 22.603C34.6071 22.603 34.9399 22.9353 34.9381 23.885C34.9355 25.1678 34.9302 26.4506 34.9258 27.7334V27.7325ZM24.4616 26.2919C27.0026 26.2919 29.5445 26.2919 32.0855 26.2919C32.6736 26.2919 32.9096 26.1437 32.9131 25.7745C32.9166 25.401 32.6701 25.2379 32.0987 25.2379C27.0282 25.2379 21.9567 25.2379 16.8862 25.2379C16.3165 25.2379 16.0551 25.4019 16.048 25.7614C16.041 26.1209 16.306 26.2919 16.873 26.2919C19.4025 26.2919 21.9321 26.2919 24.4616 26.2919Z" fill="#EDEDED"/>
<path d="M24.4617 16.3249C21.9207 16.3249 19.3797 16.3249 16.8387 16.3249C16.7216 16.3249 16.6019 16.3328 16.4883 16.3117C16.225 16.2635 16.0709 16.0864 16.0569 15.8304C16.0419 15.5743 16.1757 15.3797 16.4337 15.3095C16.5552 15.2762 16.6881 15.2762 16.8158 15.2762C21.933 15.2744 27.0502 15.2744 32.1674 15.2762C32.2836 15.2762 32.406 15.2709 32.5161 15.3016C32.7837 15.3762 32.9308 15.5568 32.9096 15.8435C32.8903 16.1127 32.7265 16.2644 32.4712 16.3135C32.3576 16.3354 32.2378 16.3249 32.1207 16.3249C29.5683 16.3249 27.015 16.3249 24.4626 16.3249H24.4617Z" fill="#040404"/>
<path d="M24.4616 26.2919C21.9321 26.2919 19.4025 26.2919 16.873 26.2919C16.306 26.2919 16.0419 26.1209 16.048 25.7614C16.0551 25.4019 16.3166 25.2379 16.8862 25.2379C21.9567 25.2379 27.0282 25.2379 32.0987 25.2379C32.671 25.2379 32.9175 25.401 32.9131 25.7745C32.9096 26.1437 32.6736 26.2919 32.0855 26.2919C29.5445 26.2919 27.0026 26.2919 24.4616 26.2919Z" fill="#090909"/>
</g>
<defs>
<clipPath id="clip0_229_2">
<rect width="36" height="30" fill="white"/>
</clipPath>
</defs>
</svg>
