<svg width="17" height="15" viewBox="0 0 17 15" fill="none" xmlns="http://www.w3.org/2000/svg">
<path d="M10.8295 13.968V12.5509C10.8295 11.7992 10.5534 11.0783 10.0618 10.5468C9.57024 10.0153 8.90352 9.71667 8.20833 9.71667H3.62121C2.92602 9.71667 2.25931 10.0153 1.76774 10.5468C1.27616 11.0783 1 11.7992 1 12.5509L1 13.968" stroke="#4E88F4" stroke-width="2" stroke-linecap="round" stroke-linejoin="round"/>
<path d="M5.91467 6.88249C7.36232 6.88249 8.53588 5.61357 8.53588 4.04827C8.53588 2.48297 7.36232 1.21405 5.91467 1.21405C4.46701 1.21405 3.29346 2.48297 3.29346 4.04827C3.29346 5.61357 4.46701 6.88249 5.91467 6.88249Z" stroke="#4E88F4" stroke-width="2" stroke-linecap="round" stroke-linejoin="round"/>
<path d="M11.4849 6.8825L12.7955 8.29961L15.4167 5.46539" stroke="#4E88F4" stroke-width="2" stroke-linecap="round" stroke-linejoin="round"/>
</svg>
