<svg xmlns="http://www.w3.org/2000/svg" width="34.441" height="42.592" viewBox="0 0 34.441 42.592">
    <g>
        <path fill="#e20052"
            d="M0 242.581c.112-.834.212-1.671.34-2.5.2-1.271.373-2.546.627-3.805a15.678 15.678 0 0 1 3.29-6.9 16.018 16.018 0 0 1 8.529-5.528 16.685 16.685 0 0 1 11.623 1.017 16.157 16.157 0 0 1 8.175 8.523 21.761 21.761 0 0 1 1.356 5.583c.145 1.013.31 2.023.46 3.035.028.19.029.383.043.575zm15.945-2.516a.992.992 0 0 0 .026-.147c0-1.926.006-3.851 0-5.777a.915.915 0 0 0-.161-.452q-1.285-2.011-2.587-4.013l-1.765-2.725a14.1 14.1 0 0 0-5.9 4.864 16.633 16.633 0 0 0-2.641 8.249zm15.587 0a16.652 16.652 0 0 0-2.645-8.252A14.054 14.054 0 0 0 23 226.967c-.058.078-.1.131-.138.188q-2.133 3.3-4.258 6.6a.984.984 0 0 0-.127.5 659.332 659.332 0 0 0 0 5.447c0 .12.015.239.023.364zm-14.311-8.822 3.293-5.1a15.1 15.1 0 0 0-6.591 0l3.3 5.1"
            transform="translate(0 -199.989)" style="fill:#e20052" />
        <path fill="#e20052"
            d="M75.906 0a10.4 10.4 0 1 1-10.417 10.357A10.408 10.408 0 0 1 75.906 0m-.021 2.495a7.9 7.9 0 1 0 7.9 7.922 7.949 7.949 0 0 0-7.9-7.922"
            transform="translate(-58.666)" style="fill:#e20052" />
    </g>
</svg>
