<svg xmlns="http://www.w3.org/2000/svg" width="44.545" height="36.512" viewBox="0 0 44.545 36.512">

    <g>
        <g>
            <path
                d="M44.545 217.542c-.039.106-.084.209-.115.317a3.668 3.668 0 0 1-1.959 2.414 1249.05 1249.05 0 0 1-12.824 6.064 4.663 4.663 0 0 1-1.9.366c-6.089.027-12.177.016-18.266.016h-.62v1.3c-.007.663-.278.941-.927.942H.889c-.626 0-.886-.274-.886-.922v-14.692c0-.612.266-.907.866-.909q3.544-.013 7.089 0c.618 0 .9.3.9.932.006.674 0 1.349 0 2.068.622 0 1.2.013 1.773-.011a.479.479 0 0 0 .309-.238 5.132 5.132 0 0 1 4.733-2.751c3.537-.014 7.075.021 10.612-.012a3.79 3.79 0 0 1 3.6 5.355 1.247 1.247 0 0 0-.038.183c.421-.2.8-.37 1.171-.547 2.663-1.259 5.357-2.455 7.978-3.8a3.721 3.721 0 0 1 5.48 2.57.413.413 0 0 0 .061.116zm-24.622.894h.523c2.03 0 4.059.006 6.089 0a2.23 2.23 0 0 0 .1-4.456c-.506-.027-1.014-.016-1.522-.015-3.276 0-6.553-.021-9.829.028a3.369 3.369 0 0 0-3.164 2.24 1.044 1.044 0 0 1-1.13.735c-.692-.025-1.385-.006-2.09-.006v8.209c.136.007.237.016.338.016 6.234 0 12.468.008 18.7-.014a3.4 3.4 0 0 0 1.371-.332c2.633-1.221 5.25-2.475 7.872-3.72 1.56-.741 3.128-1.464 4.673-2.234a2.229 2.229 0 0 0-2.017-3.975q-4.8 2.265-9.595 4.554a4.882 4.882 0 0 1-2.18.493c-2.551-.016-5.1-.006-7.655-.006h-.484zM7.34 213.991H1.5v13.439h5.84z"
                transform="translate(0 -192.446)" fill="#e20052" />
            <path
                d="M184.027 0c.4.092.807.157 1.2.282a7.469 7.469 0 0 1 5.495 6.4 7.6 7.6 0 1 1-15.052 2.13 7.715 7.715 0 0 1 6.512-8.743.906.906 0 0 0 .188-.069zm-.839 14.059a6.266 6.266 0 0 0 6.227-6.292 6.218 6.218 0 1 0-12.434-.056 6.267 6.267 0 0 0 6.207 6.347"
                transform="translate(-159.365 -.001)" fill="#e20052" />
            <path
                d="M234.794 31.43c0-.283-.006-.541 0-.8a.685.685 0 0 1 .7-.71.643.643 0 0 1 .669.69.958.958 0 0 0 .654 1.173 1.184 1.184 0 0 1 .419.358.684.684 0 0 1 0 .926.7.7 0 0 1-.91.113c-.162-.11-.308-.248-.478-.341a.65.65 0 0 0-.8.081.638.638 0 0 0-.206.725.692.692 0 0 0 .679.493 2.1 2.1 0 0 1 2.011 1.7 2.167 2.167 0 0 1-1.153 2.334.473.473 0 0 0-.191.308c-.031.206 0 .421-.013.631a.671.671 0 0 1-.676.653.637.637 0 0 1-.687-.668c.047-.565-.063-.966-.643-1.188a1.789 1.789 0 0 1-.612-.553.684.684 0 0 1 .041-1 .692.692 0 0 1 .99.053 2.728 2.728 0 0 0 .628.474.658.658 0 0 0 .928-.447.677.677 0 0 0-.541-.86c-.2-.042-.413-.039-.612-.09a2.1 2.1 0 0 1-1.566-1.764 2.13 2.13 0 0 1 1.137-2.178c.071-.038.144-.072.237-.118"
                transform="translate(-211.789 -27.109)" fill="#e20052" />
        </g>
    </g>
</svg>
