<svg xmlns="http://www.w3.org/2000/svg" width="43.13" height="42.85" viewBox="0 0 43.13 42.85">

    <g>
        <g>
            <path fill="#03285a"
                d="M43.13 307.9c-.037.1-.081.2-.111.3a3.5 3.5 0 0 1-1.9 2.3 1225.72 1225.72 0 0 1-12.417 5.771 4.584 4.584 0 0 1-1.836.349c-5.9.025-11.791.015-17.686.015h-.6v1.233c-.007.631-.269.9-.9.9H.858c-.606 0-.858-.261-.858-.878v-13.98c0-.583.257-.863.838-.865q3.432-.012 6.864 0c.6 0 .869.288.875.887.006.642 0 1.283 0 1.968.6 0 1.16.012 1.717-.01a.463.463 0 0 0 .3-.226 4.985 4.985 0 0 1 4.583-2.618c3.425-.014 6.85.02 10.275-.011a3.613 3.613 0 0 1 3.49 5.1 1.17 1.17 0 0 0-.037.174c.408-.187.772-.352 1.134-.52 2.578-1.2 5.186-2.336 7.725-3.613a3.613 3.613 0 0 1 5.306 2.446.39.39 0 0 0 .059.111zm-23.84.851h.51c1.965 0 3.93.005 5.9 0a2.121 2.121 0 0 0 .094-4.24c-.49-.026-.982-.015-1.473-.014-3.172 0-6.345-.02-9.517.027a3.26 3.26 0 0 0-3.064 2.131 1.011 1.011 0 0 1-1.094.7c-.67-.024-1.341-.006-2.024-.006v7.811c.131.006.229.015.327.015 6.036 0 12.072.007 18.108-.013a3.341 3.341 0 0 0 1.327-.316c2.549-1.162 5.084-2.355 7.622-3.54 1.51-.7 3.029-1.393 4.525-2.126a2.081 2.081 0 0 0 1.142-2.237 2.121 2.121 0 0 0-3.095-1.545q-4.65 2.155-9.29 4.333a4.8 4.8 0 0 1-2.11.469c-2.47-.015-4.941-.006-7.412-.006h-.476zm-12.183-4.232H1.45v12.788h5.657z"
                transform="translate(0 -275.911)" />
            <path fill="#03285a"
                d="M144.024 11.392a5.1 5.1 0 0 1-3.261-2.044 4.469 4.469 0 0 1-.914-2.7 14.785 14.785 0 0 1 .19-2.964 4.967 4.967 0 0 1 9.735.767 11.005 11.005 0 0 1-.058 2.931 4.9 4.9 0 0 1-4 4.006 18.369 18.369 0 0 1 1.885.175 7.824 7.824 0 0 1 6.508 7.806c.022 1.586.01 3.172 0 4.757a1.461 1.461 0 0 1-1.629 1.605h-15.325a1.457 1.457 0 0 1-1.608-1.621c0-1.656-.008-3.312 0-4.968a7.834 7.834 0 0 1 6.8-7.625c.521-.063 1.048-.079 1.672-.123m.04 12.856a.906.906 0 0 0 .042-.181c0-2.134.007-4.267 0-6.4a.7.7 0 0 0-.207-.428c-1.094-1.109-2.2-2.208-3.3-3.309-.086-.086-.181-.162-.283-.251a6.407 6.407 0 0 0-3.328 5.657c-.024 1.5 0 3 0 4.506v.406zm8.6.009c0-1.377.01-2.706 0-4.036a12.828 12.828 0 0 0-.1-2.052 6.26 6.26 0 0 0-3.234-4.492c-1.224 1.225-2.436 2.43-3.633 3.65a.713.713 0 0 0-.125.458c-.008 2.019-.005 4.039-.005 6.058v.414zM141.292 5.724a3.636 3.636 0 0 0 1.729 3.77 3.35 3.35 0 0 0 3.769-.094 3.593 3.593 0 0 0 1.56-3.661h-.461c-.841 0-1.684-.037-2.523.011a1.188 1.188 0 0 1-1.4-.837c-.006-.019-.04-.028-.124-.084-.551 1.045-1.545.963-2.549.894m.082-1.481a1.373 1.373 0 0 0 1.574-.494 4.292 4.292 0 0 1 .53-.538c.54-.529 1.085-.477 1.347.224a1.187 1.187 0 0 0 1.444.864 18.71 18.71 0 0 1 2-.015 3.454 3.454 0 0 0-3.185-2.808 3.5 3.5 0 0 0-3.708 2.767m3.415 11.7 2.943-2.926a23.11 23.11 0 0 0-5.836.014l2.893 2.912"
                transform="translate(-123.417)" />
            <path transform="translate(24.285 17.882)" fill="#03285a" d="M0 0h2.807v1.382H0z" />
        </g>
    </g>
</svg>
