<svg xmlns="http://www.w3.org/2000/svg" width="47.472" height="47.432" viewBox="0 0 47.472 47.432">

    <g>
        <path fill="#03285a"
            d="m290.573 190.95-.1 1.248h-2.2v10.678H276.8v-10.65h-1.49v-1.535h3.012v10.636h3.053v-7.569h1.555v7.566h3.78v-10.655h2.278v-.581c.009-2.642-.034-5.285.041-7.924a4.365 4.365 0 0 0-4.56-4.565c-1.854.009-3.707 0-5.561 0h-.538v-1.554h6.136a5.851 5.851 0 0 1 5.988 4.876c.005.039.049.074.075.11z"
            transform="translate(-243.101 -155.448)" />
        <path fill="#03285a"
            d="M151.72 0a17.067 17.067 0 0 1 2.095.67 6.857 6.857 0 0 1 3.913 7.206 6.9 6.9 0 0 1-13.718-.464 6.86 6.86 0 0 1 5.832-7.327 1 1 0 0 0 .21-.085zm-.8 1.556a5.343 5.343 0 1 0 5.325 5.339 5.346 5.346 0 0 0-5.325-5.339"
            transform="translate(-127.143)" />
        <path fill="#03285a"
            d="M120.515 162.863V149.13h-3.043c-.009-.194-.022-.341-.022-.488 0-3.615-.01-7.23 0-10.845a6.9 6.9 0 0 1 5.557-6.912 7.029 7.029 0 0 1 1.423-.146q3.012-.023 6.025 0a6.883 6.883 0 0 1 6.854 5.728 9.36 9.36 0 0 1 .091 1.66q.011 5.214 0 10.428v.553h-3.05v13.76zm7.734-12.194v10.642h4.583v-13.746h3.055v-9.757a5.333 5.333 0 0 0-5.513-5.521q-2.919-.01-5.838 0a5.219 5.219 0 0 0-.922.053 5.342 5.342 0 0 0-4.579 5.442c-.02 3.135-.005 6.271 0 9.406 0 .118.024.236.041.4h3.037v13.721h4.585v-10.64z"
            transform="translate(-103.704 -115.431)" />
        <path fill="#03285a"
            d="M1.625 190.5h2.234v10.667h3.78V193.6h1.554v7.573h3.036v-10.635h3.05v1.516H13.8v10.667H2.327v-10.663H.069v-.6c-.018-3.2.007-6.4-.067-9.592a5.854 5.854 0 0 1 5.7-5.963c2.083-.068 4.17-.017 6.255-.017a1.17 1.17 0 0 1 .2.039v1.515h-.708c-1.823 0-3.646-.021-5.468.006a4.164 4.164 0 0 0-3.967 2.4 4.525 4.525 0 0 0-.431 1.866c-.036 2.826 0 5.653.01 8.48 0 .089.016.178.028.307"
            transform="translate(0 -155.29)" />
        <path fill="#03285a"
            d="M293.11 82.789a5.4 5.4 0 1 1 5.438-5.348 5.4 5.4 0 0 1-5.438 5.348m.085-9.24a3.849 3.849 0 1 0-.088 7.7 3.849 3.849 0 0 0 .088-7.7"
            transform="translate(-254.053 -63.572)" />
        <path fill="#03285a"
            d="M30.973 82.787a5.4 5.4 0 1 1 5.407-5.413 5.427 5.427 0 0 1-5.407 5.413m.061-9.24a3.842 3.842 0 1 0-.128 7.683 3.842 3.842 0 1 0 .128-7.683"
            transform="translate(-22.559 -63.57)" />
    </g>
</svg>
